<mxfile host="65bd71144e">
    <diagram id="93E2XkRMTOACptUGrVXd" name="Page-1">
        <mxGraphModel dx="1240" dy="854" grid="1" gridSize="10" guides="1" tooltips="1" connect="1" arrows="1" fold="1" page="1" pageScale="1" pageWidth="850" pageHeight="1100" math="0" shadow="0">
            <root>
                <mxCell id="0"/>
                <mxCell id="1" parent="0"/>
                <mxCell id="2" value="" style="shape=image;verticalLabelPosition=bottom;labelBackgroundColor=default;verticalAlign=top;aspect=fixed;imageAspect=0;image=data:image/png,iVBORw0KGgoAAAANSUhEUgAAAKoAAADPCAMAAABSkbpZAAAABGdBTUEAALGPC/xhBQAAAAFzUkdCAK7OHOkAAAAgY0hSTQAAeiUAAICDAAD5/wAAgOkAAHUwAADqYAAAOpgAABdvkl/FRgAAAv1QTFRF////5uXmx8fH4eHh+/v7lZSVvr6+oJ6fjI2Pjo2Nq6qr2tra/f398/PznJucs7W4qqyvvL3Aubq9qaipl5aWmZiZt7e4t7a2urm5p6mspqirq62xtri7vr/BpaSlmJeYw8LC7e3tpaeqra+zury/sbGxnp2dk5KToaChy8rK9PT0qKqtsLK1r6+vm5qa1NTUsrS3tLO06+vr9fX1tbW1lJOUwMLErKus2dnZ/Pz8+fn51dXWo6KjkpCR19fX3NvcwsTGzMzMwcDA+Pj45+bm4+Li8vHxs7KyqKen09PTp6amu7q6pKapxMbIycrLy8zOxcXFvLy80NDQycnJycjI5OPk8O7u6Ofn0dHSxMPExsjKzc3NSUZHLiorQ0BBzc7Qh4WF3t7eaGZnenh59/f3zs7OgH+Ad3V2dHJziYiKkI+QpKOkfHt8cW9wXltbYmBh7Ozs8PDwOzc4WVZWiIeI09PUra2tT0xNi4qMhIOE6unpbGpqbmxs0dLUo6SnVFFS/v7+2NjYoaKlmpyfnqCkmZqdl5ib2tvdlJWa////m52ikpOYhoaIkJGUj4+VdnZ6p5+OsqiLsa+lrosO+8UA7LoE8cAGsZUy7O/6xJ4O/9EF/8wI/8wA7fH709PZ+MoF2a8RwqlPxbV8xKYxnZaDlYx16Onvr6N4ppp2r6ij9sQD8PL4+Pr+0cmtubGYtKyrxbqtpaWv/v34iXtDh35nu7KnfHZjs6yXfntsRkBhV1Nj2djVIyaCJyyUISSNGyCKS0t8+/r0LC52LjGSaWiHWVl/ODl6vLu2fn2K6unh5uXf8/Pv4N7c4uHc5ejn293e9PP1z87Kc2lF8/b+rJpWl4dTeWAd/P//9///4+vr2OHgkiQttUlO1FVajEtN8/39zSsq7RAY8Rojpnd6m2Bi4uTt3RskqDot7/f32uPm6O3uzA8X2Xl8r5GT46yv58bH69rc7+vo4eXlytHT0dnbyIyQqV5Zt56fvF9j4rm+lWAZ19jkzdC5oaysm4aEEJJq8gAAAAF0Uk5TAEDm2GYAAAABYktHRACIBR1IAAAACXBIWXMAAAsTAAALEwEAmpwYAAAwGUlEQVR42u19C1wb15nvgEDijXgJaUY8JBkQjMRLvCQBsgSIl8BCIARGgxEP8UYgHJAEAYyxr8fGSVrXTp22t940vd1Nu2nSdNu9t7brTWPfbne3291mY28TN0nTjbNxmu3e3ey2uffub8+Z0WMkZBtsp76/3+2XWEgzo5m/vvnO9z5nEOT39Hv6/5kiIllRjxrDLimazYmJjYtPeNQ47k2JScnc5JTUtPQMXsSjxnIPyuQLBAIUxYRZvOwcTq7oUeO5C6WniAUUiQUS4b68/AJpYdGjxhSeIvO4Aj+hYlyWmiIvjo4r+X9wpEVniQVBhKJ4acq+uPT0MtajxhZMbB5XsJOg6KakZkcnscsfNUA/KYr3iQXhCYpuVoW0UlqoeNQoKUqqQgV3IRSIbhYQ3eoa5aNGyi6T3BUqPdKA6KblFOeqHiVSda1QLNgFiaHWrairf3RINfkpu0LqZe7+9N+N0Jazi3NCRrM2P2vXSCHhPN2nDlNRKC2oTU6pSqpuCGyMyo7btyekAkFyxaeLs7EsvTgvJVWGi8XClJzsJnqrvjk6RbZHpHgZ+1PE2RRXWctPScbF1DhHUWFKdnRxS1p+ZVJqquBeYz+UsLjWTwunvqyyLWWfRMBgHiqWpO5LBf/L9gxUIJBIPyUnsaY4KTVFgu5AhIpRFN07TkClSZ+GBlC1V8ZlJQv2KIz3oOTohw+0sTZHmII9XJyAhJUPG6g2ujZLiD90oFAAHqrLXdRckJclE9+XLN6LJLUP0YFt4mSk7uN+CgylCC97eNZKnV+VfB9KaLckTsl/aFB1ewCKig1isRjzERd+useXUWHGQ/MDy3i7RYnLhFkdWZ0H+FmRkIxdXaaOrP0pQonAcBfxwSu6HhbUln33ZCowAJJ9HQe6qyJ74s29DCYpylklhcbc7s4qISa+A1xxykPTrBn3gAp8ztSOzsjIml7fN9hJtTwVoq3j+EBHWfr6Ow52lKKGcKfCefyHBDX6blBRA57SMVAY38D8RquVMAIXezDYZRK1Rh46mIzu5K04tVj/cKCmJ98RqBhNPjgQad7xFR0B7il/aMf2KE3hgf2SHaxFqzIeClJzreQOQA14VWe3LeyXholGZGQAsYgaQjOBo2rtAWGo2GIVZQ8DqjEPDw+U29E9lniHL5UQdss4kITBiZrJKRtSFJT/aRzoTAmWA7Ewu+8hQJ0OK6pibodJzYjiE0KkbYaYBYxKGGxGhudUiMkRzZpn7F3oPJQS5DKKUzIegtdaGQaqGK0aUDOZmD1iDY4Gy4lBMPxFzj5k8TBwx53ZvXMOGxJQY4ndB4RMmRVXRT9wXlOfX7rz3qc+1sfgqG1uxqmWLgV/bwggROKJicOEHEH6naoBAgyd4sqAa9I7cEBmYA6t6IUHhNq/Q1QN2AGtX0YXwH2Ln0WWa5Gg8RWFDJXALzvL+5z9CDLpqB8n4hHENei2BzjbNNDBsLpoVaXlwaAmhUT1qKHKFEBVMzM3q1JmIva54N+3zJ6Bf6XLSIQTHL04zKm1JiAJVikyKGcc16pmMBatSlfvCtIdSJkhDBJVMfeQlnHvJ1mJzljw1+j0ML/VRywDHiIex6Aom2hC9MQKsroKfgGh6yN6gP5r9/1Y0eMdAYkVp0w/iNkKyj4LBGvCEj9Ls6cRZFweK4UWQDUYF/S1eWqMNFhqmsrqdCo3MYbAA2bnXIN5CNI8wZ8w+o40lQQ8YbGworhhl8B2Uk7Q/Tcc7Bv13bsJt0ONOGbA50LA5lXr2J1PEsEulBJxiAeI7XIeMuaMRjJm/TvN9UK/EIglVZWm+0TaWCtjiCne58PTEDvhLCwaQzjrG4jeDbgYe6+wo7zesuIU2YA+mJtqrbPOIApvRgZRjFX5saJoVnXS/TkEtVkBSRVjh+J92z3Levsy+FtkXW93DAFdH2Q/lYreeUC9imCr6qkYWl5FzEDXJrTXg7E251PFfZ2BwQUYm3E/VlaUlOyHapBpvMpE1VKOtMQXOTngfbyVWGYof71Ny65obq7I5AOqqMhr5rG1tgCXlOCthsiFygypJxyLK17N1fcYQ2mhwtSCvaexGEw1CDu9KtoyB4a7ogiROuehKDT6FOVCa7u8WddnFjFca5WoqU9XJm9vDaj3qGVnRp0WUS7PAgvR7N1oO4IzwOIpFXXsvVU8WbWlvhMYUg95BxRvnb1Ia9F1R8DHEHXL83rMdwiSGpoi8+SRPsPZODICRH5ycAFYX7+J0xzCmGaWm8KrlO9FZgPFJ0Pq414YCo7D43G64NvKdS9UVas8r48+cYKoRJe3lI/WyqSypLW0Lp3GGxvoB/LyGAW2bigGUsKDLLmLwmAVgMiiKympZLdIy/zFJ0OqiUY6CsS1ZAbo8nYgeN4rJ+am0SVUZQ07bW0Tk8hkpTKZBPwH/shQ/GhaF+01iXRp/d5UmmJwHUprMaKZTHPRe20H8CBjg6LJWdWVaU27QVoj9RkqcWmnVzMPQXuZBvQikeSVviJ2mglCVpQYDAYIEROsbR07TtHRLQMOkJdKuFtl1A1QaeNosDPWqeqlQWDnFEpkZog+k+2/hBYQxVhqynRly5F7lYzK0323H5Ucoe+uSq+ZgMbK1Te63EZtiTK2UBhsSwZMJpEItipjYuoyppcqoAZojpOmx7qmjq9hAK9gM4/SFKa2SMQcDcxXXiVMAWuiY/0CqzEZBCGEopLUlLToDN7dtLa+ssr3I3ETbeCV4zpEB6R0XupS0Oa1pi0S/uLH8zGJBBOfmIyR6uqbokgGKczavHTX1EkuJkneRI9Qvy6t2zFMXwOIkWMO+C9jtNCbDq3tcDipaidbmH3ngoGlwK+nDD6zn0k405HYemSMcNMCV5YHud13TCLDuMcmp+TxDSQpHSN3kKhHOjkFeFuKyuFAWahoN1KqSGGPUllrwZskp4bGmmUQhCPgyrfdCak2w196XDtA5+pVKkSR4XSOALZaKHnTTMPimC0Nl2H4qW1pvRKikneRYWlBV3D4JBAEibgRfEmdRv/66fVB6CPmE3U8WsRak8PnNdAUaXigUdJqf0XHkDJAbUuIhdfQ1zkJb/WOXV0ECwObpRDoUrkXkltLkpYCI9kQzSGjympJladIRe/ZqC/ePolxJZI8eJ5qOv3HnwLsnCR0iGZ4nhKJx7lhkw7ovqSwSHMLsvwVHVRiolUS30qdC0l0UU7zaFwueH1sUybhHt9e6vUxz2gdIzXZ0kVySjdATg/NktnWWS1pW6D3xhdvb2GYbA3+WN0SrVRElnEiXZfjJHLooXXIEB5qehiO6urK9gVSf4bH6ITEgEXa7T0iA7B5Ht58ZRlaetx9uGXef5u1vJlc8vCYetyzSpKexWYFmZROiqSzk74D6tMnof7KhEIwTSlj0RwRG1lotTZ6MwZ9+w1hodaF4uyTRlekMLK+hv20oB5xGruhvxMFbrppCjFLgTSItpK5WMy6jSGR6fWTeUXDrdldNetao9aqNjY4zKRrtS0icIjRIcYxDBrNCLoK1BqNiKzLAHa7lh4mMjQc1KkAylF1f1p6enVKUL4fldGCivAmiLpl66B1UYskWlc8UqD/S9ZAKIvFxDIHz+F8x7CIs9JPjsbKVYqh2tH6HFJh7REx9FeD4zQmwCVrAKZomhpclljnHBinccPD1NBqPBRmZKGpDK5G1janpiRjwbUnw+ONvv1xxKC8bGUSaIKCJTkIWHWYhIvh3NP5CgbUromSejCAgsb+xtRUjzLwsXHoNMYVcJOlwPdd4FCaXb4MMCpFyNAqrbHCiAAqZEDtKRXsSNIZsgYCB/Q5HSY1lKfyFsDTLplkc8p1FKss0wRrpQ1RTQ9/qU0KqG2JF3lEFAycbM2ckuXEuI4nrwHZ19dSMtAHlZ9ilRjmUVcaw+4OtRvbKSL4GOWk9LqozMf88jp0gsqlwFdi45iroNu28kR+H1MCisbSClwxTxw/enIL0Mmjx59wuQqqW0cZh+jMlVOrveYWNy4zgpNxfK6h0Wm1qZep/EJ8GC2QXBfwX7U7k2iGg7QTVuBadkI7LYd2cXQaqAQ2V2BnJ5CFjhHLwrB/XLFaXDFHUVgC4OIUcbngg/hYTMySxXfMqEspmpyrIMkj7i0MuK2sbMgNZfUMYVcidV5vYCAZ3Qk14Aubdsqy5DFqj2UCBPTE3BgdAsapYSHD4Ib3fUgXVeQZn9T3ikSihXrXk5PHTnp9KgYdO3b02PZ4OmsBHCRStKwWJZK2fGhtJ7fEYFj1USkMNgFCFJUvu9K4k62y6EAltlW8k6k19K7lEXXbwhxhp84JTlmPid2U+qnvycxurk2S5wFqTkpvaZu+A7W1FdQ2U0fl11ZwcvvjKVt7GIVWtgvaEqQZ+pSeuGgeZXDGhKFslRX70/dIfXaoBMgivbs8NuMIEnkYypEmDojulszuHUtdbgW5Z7IM9XvfuCVccFtbfEmQKac1L5syoOV9oWyV5AcSWpo1/A5MhdbUOrwOI7bRWqBWNlO3c71XVdbp9w7V7B+IhdulwCEQ1dIm1k309bcpV6gbPRDKViw/EA7Y8kNa4zBaUtUjIzwVol6cgOerAH4lr/Rosf+yzb2k6KnP7IE+qySb+P6v55+UAIEqpHRUOZENooxF2pO1HAhhKyYN5PSaioO1mWG/GslkIb2Dy8vEIG3ykBowQo8YJJMBW5rXSz5+5nNnd03nnv78BgOqbVIiAW57NYThgYnYnnWvzRkrDWYrdzrQjtV4PETxPg7GEzGxBAYTa4QopI7JFiENa7K1aKCX2H6o9eef+cKu6YtPf8nP1SUtqZwSS9IASspvnhqcZiFKpIESStvBYLZy2wIdLuXpQYUUdF8h0lDBdhBOmOhYom6LEfiY7RJc4OJnzkxE+gTgv0Koz3zxc198Br5QgPyfngn9REFNo23ByEw2Z5KLS7qAXqFYYeMD53VgxEphPRQsjzhW6IcqCoZqOEDFU/XDDqc1W6WGPuoo0NbmTeBrbDm2T7ZrIW/K3UUQ6pfPXfiDZ//gAnj5ytlzX/jCubNhP/0B+PQMgOoZhj+zwsTfihk24AJMoAJ2xZ+rVCC0EhirEgdDjfRDTayUMXdJOqmtc22IJ9ZJWKEvwAZGOy0ZfIsrmJkYI7vLyKbtkVEI9cJzzyWQCV/NJMn/5v7a587+YSywpE/9EUl+aehrz5/7w69+fYP8o6cSyG/E/uFZCNXidneTZVrSNDuDApMmgGGBMdeHgzXkXKdY1x2s6CWBroHRKWZ5QlxF26aVZaCaoyYGnbNtudVKRIPiXPEWV7K2ApRUa457zVVEqgFUTAj49LU/JsmE/BeeP/tNDHgtL7wIXjZfOHfusy+BfS++AD7JBDTUbZk9Vg0chtmjMsGJTS7G9SCqbMhW9QBvkVguc1GZrJ4g1gny2v1Qo1xMqOhBOiNhGSSKG5EM3djiYBlgqrQUO+7iHD7qroHSZrKjk5QAXChN3fBC3Xrhc2flS2DnCy9+iyTXANQXfFDJsj+ioU5uDVE6ZL7S5W6uPI1JgNPeD0XR4yTGgTp0TFKWPlgCZDw/1A0Xs5QKvR5aLlxO5/KECgxSuQKxYdjxykTSNFHidejchxVQA1yQAMHd+AyEKgVc/SxGQQWbKKioH2oaBdUzE+sNcWxDFlLJOS1bK0cSW+DVXHCY8+n2AP1BprpCobHwkYvhzoizAjm+KJYNpiXU4AZkl265oCUVVXsNq3a4geJqcirJ5KqcydXPpvmgltJc9Qyz6G/HL5niVaSy4Ggp0DIV0DaKRgN4kFymBKDJTKgMW2YYCCqYQMozIyJc4qYxjsp7qL+KVZqrshPcl156+avcNckpwNXmU7I1wbe/ja9JngBQ/+SUZA2jPp3AaAFYpcLtjf6R4aG8HD1pdss4CQir2X8p3gSlQweYbbBiIaOE50oNQOV2hiLVgyPZsuNtfg+5AsZL+hUF5OrZ4u8898Jzq7Of+e5Xvw00wFPg01Pf+c5TLzz3p1AD/Olz331qFX76znM0V1fgnWmQl6Tbiwqt4IxLp5KBvYmjkpfp1hVL9uwMHClmphW4E1RU2B8KdQCotezkbbPfJmoyQPBvW2mAXP3yuefPnTt34ew5SECTgk/PX6A+nqU/nT0LPz1P69XyYeBBxtvByIwm3JFAlXi2S4Gk5kKdoyUy8mYakTpKMxlxpgAwqk2uQNlXXLWj5C33IGbBFnSJyWlq+LOfTCdJ/iylV7/wDIO+cLdPFNRVHUlObicpSU02nZThbIoTkUYojGaHHtE55gYpT0DHrO4kp4WHejBUVBXVQFqTYwrBeXsn0vUa0jgjm4pSuLahAHzx+V3T56Cs2l1FozHJ9hag7hbXJ0GIq42RAJZWwzHVtTzoHJygk22dKYz6QDIjvzYVgIrnhjL1CBijSzIXlfDJcDfJSffsyYyijONAIdT/973Q/2ggLYeP1pXnHBuf0ZO1Q1rXXDnZOwl51gUBJjk58b7Mr6aDUYBNzg6gKQhAlewYVewjSO9RcQY0+0caHevp6hjD7EjBKQzo1e9dvBRCl78PXr5PvVwO3XXlz4BhlR3bXp0Qn2aTqjxPTTPQBzkogFoCBXSe0XXX2ykODzXHDxUVRoZCzdMjJbLjeQCqcZJs4PdOn8Q2Z09iAgj1lR8E06VXX7r6/WuntsDLiclLIfsoqFxsa8LA3QK/XMWiAu+lowKgC/NCr1rFZUCdDmxP8kuGOItyuMwBgW0AZ5GXTmnBWZPWW4FejQFSAtzBsFAvn9x46dqryg382qsbtlfCQqW+jLv0ZLHDXQmkqud0KfDel0JnOBkl4aFK/VANHVRwEDeXn9dtFsE7YuFBp8oFrYyJszJeZHZ5/fBwUC9uBRIq8XeACglzachWqb5+KoHUxEBhLQsdzLkBq4Qm1wa2t/n1KppFfSffSgw6ncQIeNsKJOKYLAaOKgCDF3FginsXqK9+z2QyDQyMmcZqpHeByj1tJOMHV1aXh5NYU6VAwxtDp4h072NAZaStq4V+XTVAR40Iu4DVKIXiHFmP9OL4aTAAMh2ex0RkxXH8zlB/cHHFpomH1MR55dKdoeLHm8kNua1B4elzxciAP93aHQKV4V6jpQxl1eV3Arl0MdZeEdHtqimHP5UfgdgMYqDzycihbE0b2XbyblB/cO1/6tiQjE9e/MFdoJ7MBlKvTwBuVuskl1uENIUWgVkB04qWtgS2e/yJAIxSGMp1JyDCagTvM3sRrWSTMwrsftv6uh2YF8FdoF5+1SeqsrtBFWzmkwkrK+45Vo+oGN1kIfO8EKiNARsQBLV80weVVqt6I2Jp5WcvwtaXZhXwVbaq+TBOtejmyQzDXaH+0J+TuCtU7mob2czvaza32aRruBpRhPYBiPaHhyqS+qEysqqIORFBEsoSkDzZVltCOketIFs3EqLFO6FeuvSDS5epPxddoiazx9LUZDGBfUBaqe07oeIz9tGNUbKB8gIkWiQq4AciCmhlizrF4aH60ytCqvLmodMZeQBqVBn0ALemyQWpdWVkLpesRHdCvXrt8rVXX7l85cqliyAKUJWwgLLovXbp2tWLF6/Cf9d2QEVzalx2jhHmvTmbMuDM8Y846D6OqB4HVO0qU3ioC+m+nIWQuhGmORGsVcJ+OVUZ9AAAVHBONWumPhzUi60nr7xE/vBK4dbli/0kWSNfitog/+zKpSt//upVW+PVV//86qUdUCuVCeps+6AjNlG6KQNjqmuAAJYgYWzGSTgh1Ki+8FATo4OhstwzrPJlwg24qqqAGXUK6ry9bqUrLFQtLZ4bxy+/0u+x5LZmasxNoqvA6G9QFiEhHFSqnMGPz2zLWJOAgKgsIXIo/bCTmJNaIiwhUJk+QFGlJAiqqFEESx/1Ihqql6ukqqctIizUvG8t9PYuLHzrh5evAfWjqV5KAEf/8PvXfqSA24v+/EpYqK22jYgEstaByYDaKVMhCZrsldm4GqVeHwqVYQIUBcFQWYvucWJ1YlFEC0CKbJMDrt2oSOjbUIYZVpeu6cBAaio/ffHSlb+IUhWVsKJUqo0nLl+8+pfmpibzX129uENWxekb5Mrc+GL8aPlhFIOhIO3+JfZnTC5Cj0nJhMowrA1TPqc7mU1DnRi3j8/CDiMlgCqXrSVBH2hlxMoLq6wu/jASaP3cK5cuXf3RjyMayz0RERF/8dLFH7zSlgs2V7+yUwMYgGtVb+tdqj9syxDLxihF46N+mE5VHWJAZbgrKn96RUI1kC3Q6UMbTFY3RwENYIgGUIt6PbElZNJaGKhcSiRfvfx9v1olyayLl679CL5puhbWBNjmZo0kqVScxsVjiIqhrCjSd4aXVaU/ZyHx2mLgk0VQFX+kQoFESgQFKmis3A4XWbu107BefMJWUlISf/WVV578a3WJul4NPzW/8so19vdKSo7kXru0w7BuZZPddepYMB57YzHgsOozQ6CW96NhoSLbPqgYbYuzCQB5aRF6WTwPYkOxWOBZ9eY2GpvI6qNhoJ5gAXCtmr+0HSlRa0r6e2pqSkrq//KvANCSkprInVzFj8lJBY+0jYAR4JJslSOW0D5Lc9YdoB72eYd4FsXluUpw75VOWN3WsZBygcQFgmKllqxpIttP7IQKRLRoAZI+8SfzS5V52ZXGn+gT9Qt6uGn01MWdTuApYKd7SUsPkNgY2SaIpXJDoNoCwRWazNCryKS/AaiTKsqNw/J6DtUEowUB5ZosppXUT667ZqyqgdNh/NWLr/5NYXd3d2FPF2+6RG6uaO+vYPMjqU2mTd/vYUKNMZH2xWYoyZGnS/PpqwSRluEEMoNrBtT9VN64cG52ZZCgGhVsQOltJp8G8butOK1rjGSFiwIuXfkRUEtNFj6vjmNJi+ypKEmPlfOhBmsSnbgcBqqrkeR02WsBVPnxUjmw3aFtP2OMeF9YzdjhT68YOugykGV6iKNBYLukCIzNatnRON/ALooJ469efoLe2VdDlkUnqBLItFoyvs+7LQxXBbEbjYOxJExb5G9Bu9oc2lmn83v7wYmgQM5CnMJwrRLqoIZbUiGdsjXoW2ea5cOFZMZmGAHg/sQDaEFXQ6p55N9+l8yMJGt0C3Bb+Y+u7PCs8C0OqcoocDj05GgsV8xCVCE98CAOCVRSgjKBAaiokJLvxLGosXyHk4D5q8xGxLMlgSkLdtuydkTTfgoPjVgvXfueKhGQKrKGtJm+ceZZkp9I1kRS2xKBug2Ciklw7lSuyqggWXxYE5KtKREzzEtHMacXZAWSVmgp05mN9UsGRitWB+EkZvmR0MRpgceDloJxQJJHxkbrRKzDspPjW9wgqFe+5RcAjemnTz+r7Coia7wCQJ4MgopNzq7Jtss3VqZGE8HOrtMyMGh6oOXRMOZeeToYWUsZU5MF0itoJxWRxyZFVS8hUXJgmS3gN8XJjqX5zdBp98z4rABnQL38ZG8EpPKu+N6SzhfPv2bTAa52lVMbe3lMZSXZGpmZcQOXQjm5DPuycrZKjUBUoQaXE44430yj+v0MqHnMwCvdD1W8nzraZkHYw0NWJ5T2ahViw3GXvwnBuJJ8ojoGY5qAlzYaIJFjbUbOvr+7cOZP9v+ErCkkqY3KRqYJwGKMpyUrYyttZMLwGAiBtiWb84iCEtWZYStBWCd7GpA+JJKR8cWXmBmf4tRAeoXyAsxzVqdzLoOaWNBVgyRwSl3dfrZWz7hUOZuTAaivqL172GyysYL19GdIIAAmnwCQVwOGdftkGjk026orXjYuTMI63SkZGDNqyLb5iSiEFTdIEM65VWjLA1DjmEpXGtBipV5hnVKDGCAK9mzYgH3myTbrfFfeyK0UkbwTAaiXrhxpNAOyaHUws4mdefZbXcoXXxeWN8Gt5t7Jy36ok6e1ZLm0L9JT7IIZEP02DovCZVDTaGG/ceK4qHuIcCGdjLoFd5o5EyObkbWkU4FqqgnDQvUspDUgLFwy6S2vs9LgCNOedvmhwoh6AxDJL4IHfOm1r5Fd33j2zEFqI9gsvMiAClsXBlrq7TkwQGg7JUFViILKSpsJ4EG7YXfkVL+Z2RnErFwD3clQuB3+SXR9INCBPSs6cAM2JQI3zFs18Mv0EJgXKpWO/P7J6zcAkX9PFzTIr0tEaZJnz3RQW2/cuP4z+jAK6qkBMwgR9Pw5Hjiwf5sLk+eFdE7fTTidTnDxqHElU1QFkiTmXJy8QOEKTaHK6vPZ0mWng62B4lAODFufDN/c7rcNcDRUgdw1csKl2Kh3vkHRmzchvfmmr5kpSpr2jdfO0FvhDvqon78FoB5f3Y6FP7mpQJ7bNolz14BrXO1tDcpbmVUjC0b7BNLDLKXLiplTnHilAY2L0RIwDAajsbGoEuqAPGChpTIcPe2KcetJURk/5rQDBVxlvf3OLyh6B9K7v/QPpCjdP/zxmXd8RB3y3ju33r9u3sZWjhewy4BTNXTs1DGuAGp3W1C6oqhsha0P6l5ILmB2x+sYM6sMhyir0aVF5uXLBGzXQWxglJowXMDFJKdzC5caSfsEfnok8fo/vk3jpF7e/uAG31+FUea+9pV3b/v3Ua9vvkWyRk6trVSS5qWBrhMYjguwNSCGcuiqLMxY59J86fVC5uwZNDmofbFfHoDqVVcNS+3DzuWkMSP8ENcIPUHI8pihI7AmcPx0xWQj+f4v337nvZsf3nwPvN58F4S0XUf8Gu27T//Fr26//eHNwBHvvkWOjXeddsMSvfrwYXiPZUChNlFKdZVwDy0verOsWub9R4VTTKhj1YxuAa9ttRPjftdFA/y0egMuwNemYO6G9DjSyGY1qXzJ8tE/FX3jrV9/9OsbH/RRZT5fSuAfXvvK18lv9pA3/vmjf1LAI8zvgwCsOZ2U2xOoI4pB4INxwSiSU+N7GUhB5soIdbXg7pWgTkvYVcz4HYaDlPNoohq2ctYpv3YJbMorpQINusK6ypkFSjRu4K2v28w//uCtD8xGekwNGKk/8/uePf91UpdZ/sH/en/B9sGPwWt/Hkm2TLSkeXtz5cdwHMuEDfAUgqFMEOFF0RMXxlKDqsH7CphQbZsMqGhqD7UROgMthHs1F/yNAIDnNyX4yWnv/VU7YtqAe/LNpveB0n/xOz8mTd5G1UKqtaX9G88+/dN/+Vey99fvv/XW+7/uvfHWjUzA8IJjEz7DlrGJSyRAOFtoTWRpQbpWxmZgqKw8JBAEQS1mQjVLmS0h4j7vEhMu62ASEjELByAfCIOWi+NAQik7sG0wAMN44+fvffjRh++998bLH7/5Pl0lzoRVdFsh+ZMPmv7tow/ffu/mxx/dfOftDz+6+fP3Sb2bi9pNtA92mItxH0OQbl9bghLhLy9SWdaSDkMw1KAOdgsnCKq3z8LobG6J1VkJmB1UTAP41cn4URhmkxr7JhezAz5+8zY9vN94/daXKAidP4avBxbAz/iY2vWO7xUMO60bA1ihiNjcBhwDwBamIR8sI8vDgaLVoZDZ07ygSlFvflALBk7PfDPNIloncTiCqrqqgegmbsmwE3UessQOe2RcmST5/i1asf7i1us//1izQSp+xboBkPz7iz8lb7zpVbo0vdFKkhwQ7eK4u0upc2/isjQQDi1Ba6i019WtEyM+YQzpXcJlQQteJCYFQTV00AWPyWXC7jdqZUAEbFyce3I7fxsFug3fBBJwXXzbawRunbn1xsfv33jz9m/+moz6+Pab/dd/c/ttQF6k7/zyOqm3Q5WIc12uGABgE2imbipT0QdXtOh3epNokSEdYVhcUIFaVRw8ux6nfZm+ZVj7NMbGwgZe1TQ4t64Ux/GTAkoLY1Ds3vq51yTdvvDMrdtv2v4EvPv36y/efuf2rz6+febMmdff8O4+eJ3kb9ODl4tjAswQjyCN2ZTSt81By9lK99mxQvvsJLXBM4RCFgIwdHixJgBx99Q7BqF5bYRyJZdxBV5zwU1yQeH85W9/++HNmx899frZTz75t5c6fnPzwxerNGDDb91vnPny+e/++82bH//2t7/59nVS5Q60SeKyKmBlpr0qf2IQ6By9ncIdGdprK8sPjmYLQtobce/sBSTKwYHzp6mQwQRVYDXXfz1sBk5akRy48dZ18vq/njlz/vz5r/zdyL/c+On/5r70s//z7Jkz55557fNR18mN92/8X9sGmen2a0S8FN75akqLGrVIwyphdQ9TetzWGcJUVBiy3EVlCFR/s02SdSIemSbojIIONuyUynxY8S23irweNTVW3sSK+NJrZ88/f+b182defxrQy6+Dt8+cPc9usNiaWKrqMpIUzfgvgXGhVuJRcUiEcwK8ds6s0E6LKXTxBDT1HlAF4sfpVlx7V4SLD9d8SDCXaKIyoWfZ5nfDsEkYHPbmmEm9RSQ//+XzL7987uzLn1w4//In5y/87dPnz//dP0R4VApFFzQc6acxP1KYGdPlGiED2NXO5YA/qu4IbbRFU0LmhUSnhkBFhbRuHXOx55zViCJ9fdgdG8sqg4YsTua/6AhU6B5398Jb12+8cOErL5+/8PzLT3/5mTMvP3/hzHfOv/aP16+//2ORLh3o4na7j19cqo5nrOgi6K6qhTkgX3QmuKhEEErovpCJQTuXAlnzTrLVpLETkVbncqFCBSczpUGsuWte3YavjUDrNZ+v+/Dmx79+6ue3bn3yydwn4PVvX3/j1q25v/mnD29+9M89UhDs1j+Je++FBNZ+kNyyhMgZwtvSM0XM0rpTm7qj7RtNDekVyNm5vh/3kL8FstG5Ak5DTwrLgydVG7wCyz1qh1N/FP8BrNZ7b7/3zi/eeQ+8/OK9996D3vTbUE29IQWuVNOIt+CIJ3OgJ6Wjrh/r5SsitdKzAgZ2zgrA84zBUMOsBSNO8feGxDoBR1cIOnfIg0PCk4bRQoCdcFP1d+EbQbbJT7dv5W5ApCe9jQCSWmhJvevt1A4SfGCzja2rlG4c7duxxiiKYtkhC5FkhJk8snbI1xwePYgsLA/aLLSXboxTACXG40ooPklOzDRBs//Bu2HAvvPGf3weumEjJzGapZtw1CvSaNdtqRipI/Lg6gd0WtoUfPsBzFJh6n5pSJIwty3cCo8mb3xW5FpxLoJvzNASXlMLg9oaMUaBxU4+SUWq1+sBWCbad27fevcfqULak2sUu2QYnFiCsKR0gxIyxIMT7pZUKgXFg75O5kxGsSQltSUjOjondLYVYsqo2rEeFJpMhwE1kRpiBZytfHCxh57Z0gLHQwJbIIGjmiueyYeZso1v/exXb75x+zZ0tsDrrV9+8+8pL7vATo0orPQo1e+Xm+abkRDnAC/FxBzduGhRM/sAS7PaKuXUmj471+211FXtmJtnoL1B0ToB20oVy4u24Qn66J40aBMXMrdKMdhhPDXDVlKcfetnL/7qXUC/+ua/fP46LFuONo+cgH01WPIaJZ+eNnrUL8zUIVFWcDablV5+a1QdmPQjllRxku4yfVUVZqFH2hdIcsJ2beWctQiZWaaOVegilnTw54raT8okXAEmdru7inwRYAJMqVy/Dq1DmR3E+gJMxhVnwsNVujQLooKOe7qDKEDqndacZa+GDwgqKsiKy7jHiiHTzTsWTxX3HUFqiCk9OLvbGT017PRqwnXH/AC9YI5Kt8mVyXDJ2rado/XPaaTufGSx3SXGuJLSrSV68qqpDaZDPNGIenkGWVoE0cesc4WOOPqqfIIqlmUV3Hv9yPbsnYNLbUbMEJPKWojYCkVIVDYYXC0Eex5RdKXR/peNdwzDSku5x7ftU9n8yFaNpi8yUxpr3z4GJ10b2rooBypBHVdI26TZMtOwk9UziQTW2RjwayBxah5nN2vztmaErvSL4javp2bn24GjXjQ3F8+fcNKVpIX2uAE682HhLR3lcoWl+FZljGtyMmbq1Cb4JNvCpzvprzdo09j6FqNoDK4wAeK6WetUk3vVd121f+oSmpW/y1XuLAX7g+e/C1CJ92KK4uFCBBleBwx2DvuOLzLGdfnSceVjPNmadBNbMxjW8LUtqTxT7Wv0MndVRyoQI+FCJrKbhwoA1IZ1KzLmW1xG85hfq1dF73rpwNGCLEmwEIhl2kBrWT/RB2ccwVSRt9ScEF8hzzUHbllUgl6vVzA0TBRLt5SpgUeXgXhSbSVykVmgrxsHHbHeZJVGbfDdwqq6vay3kMQrDcXa58fqGgRyBRczQFRSfy55tJ4vr9Caw6z6qWgq5C2113tlMpeCNrGOtMBVcCyVXgdA/bgf6f7ovS3GtyQPUQRi7K99d6WWUOutdGzZRcwGgp4Ey1hXcx5PN1Bva/KIRJ4mW71Wx8tr7jJ5AoX++HH4XuTMR1YZkd2AX04B0r0udq2rDVEEKG7y9uypZoadVtq6jBOZIY6EymPr6+lnt/P57ezcnj5beQiLEpzUQjZpTk+JQ+fbF0hQ3AdSoAiKQxQBipb4FsVJHKaZeoTwGedGztjdT+dxeRcjGCEorA5H16K3vqPQBpaz2V95P49tMBdUhajXtQ6Tjw+J1G9fdXoXtoorOHKPRenyCyftVN8Gh0fxtZCI9cq1+XGhT/Oj+wvubzkj/Q6lZRD2ebWSCIYHYwSH/tSQGT/G94qeJ4Qt+iX4ldEhje4I5Upnd9uIiVGk1SeprY/5l58VVxXc74KBqsqqkDnDYuwx2t61wJE7N+jVR0Y+p2yA0tqNdugpafMrIGAekGPPLJU7K88xFbCpEILdgvCJWN8lFNqD4kC5LKNxL/CCKScUKyru0EIHdj0f6ldfrTmN5Csq4a3TV8AVNbomzPYpBJmHM+CGvd0RdpbOo4W/RjPRW+8vQmrUqYEVooS1D7RKWI4u1Cs0JJvACNI57Lb1Zd9RUlIe3zVPvR0HrFupQLQOqNT4SP+695BYS0VjF8yjsVb9gPQDhwJT/FGZ/AHX4o4OHVtAE3QMsJCE6kXC36MRny/P81qdxWkwuseR6VnEnLOchthnc1boyTOxS0mUq6f0K6O+x4QMl5+bkr03ZDtIWbnzMQUGyYHIeUTFCaQ8uuTexLFyORfOoHYXWJDavjkOMuyMWx2k9jXkVgZpzHj1fuYsf7Qqffeg7kCiMDE3ahA+3reAKPzXjvQVwMoHgU1TDRN2EFEgjmjEMYconN5Wr37GUsusgYMYM+gUp+Q8hNVC+9p2zoEHYFNLfAEiROFzTfqsQFtONMcReXF5C3MTSjfwnYcn6X0Bj0czFrScIRTUOO2DIwX+AD/s4z8MwgNan1X1W88yMNTU6ypkxjHjHCQIqXYwETl8mN7XQN8EVWvkQVloGK+r3Suq8BRdFXaNGdSQfPCANnh5RzfQVVrASb4jkaWyA7O0mITMMNu9zVrTfiwUqDjrPix/WBIVp95hPRwDN+uQ1uSXMhV/dc6IqOYyETdUp3XAwzePR3P8J2rUHjgoDLOuraT6odx+SOwyTHAHEhskVYcitf5nWcEp0xZONqUi42G8qPT+kKIaY+SBFG641YLFWcX3hyscpVfdZbVngDarY39kd73oDl6RqrE1svtAh5Abfs1otFT6AAY1lCI4YbRAkCTgsn37Ow9mRfar1SyPvqihoWE0sdeiUZvYxo7Og3CtaMOdziDO4jw4wgDFpQjuRajBIJAlp1RldRzaz6vSVbF53QeqsrL2yTDUcJclw1Fxcpv5wQEGSJm+yweBoGKxwYDSi5mI77WuOXya1L597QUPjo9J7DLurqDumlD45KAUWX7ldOHog8MLosq9PQnmHqwXSFJTKqTRHOODrrobjgrl2INj9MIUpvBqK/M/vadcRUMXC6UISOD9PUAAPtEoRZgdncF/iOppJ3W3JSfzUlNT9+3bl7JPKBSWyiRcfE9PNEElWalp0RkVn/ojzhIK2bzMvKXs2qSc9PToysok6fRSaWrKPtlun3YC3KcCueZRPH1L4bGNdVUnVebzU3fJ2dKMT2MQ7YESK4qzdocVbzY+WqggnEvfHV/Fd1qY8HdI7FJ8N1B3FKAfATXd8ZkCwSSr9Tz4xR6MWLuEild8mo/d2hUVynfnIDzMx8PcJ8Xd+/kntLAKH7mwpqfsUrNKph+qa7p3SsgQ7ta88ngPfrkHIU3L7kYVFNaHGPDdD5UJd4kUCGvOo4VavPsnRUrabA9+vQeg6F2LKjBYD+XhMPdLrOzdiiqV8XuUUHm7FlXqwVuP8knHGbsXVYEAS3uEz1/di6hCYV168CveLzXtQVShsD54Iv2+qX13z2rzUXLxw85Q7J6S9pbL4C4NPPg175P2JKphuiZ/d2TepVsdgDr5qKCyk/eEFITYsff/sJ0HI85eHmsMk0j45qf0WNt7Un4H9UQLjOr5Q+mn3QYTlWPFuZgsWQizSLxqzaNBujFVVxedxNmaTpPI80qTeUJeMk2lkKh3PBmXm7aWlBMd43K5ojnyrkf34Pgohchsqzf16Noz5UtLaS3Z2bVSqbQFUq20Nrstztij7TvC8ugf6ePXf0+/p98p/ScB8oUwofxmjwAAACV0RVh0ZGF0ZTpjcmVhdGUAMjAxNi0wMi0yMlQxMTo0OTo1NCswMTowMCfmm7MAAAAldEVYdGRhdGU6bW9kaWZ5ADIwMTYtMDItMjJUMTE6NDk6NTQrMDE6MDBWuyMPAAAAAElFTkSuQmCC;" vertex="1" parent="1">
                    <mxGeometry x="731" width="119.08" height="145" as="geometry"/>
                </mxCell>
                <mxCell id="3" value="" style="shape=image;verticalLabelPosition=bottom;labelBackgroundColor=default;verticalAlign=top;aspect=fixed;imageAspect=0;image=data:image/png,iVBORw0KGgoAAAANSUhEUgAAAggAAACZCAYAAABKWcKsAAAAAXNSR0IArs4c6QAAIABJREFUeF7sXQdcU9cX/l5CEsLeW5YgCjiR5cQ9cbVqta17dO/W1vpvrXYP21pXt3tbBdwTRRQEHCBLhiAge49AyPj/7s3gJQS122Le79dKkvfuu/fcde453/kOA/2ll4BeAnoJ6CWgl4BeAnoJaEmA0UtELwG9BPQS0EtALwG9BPQS0JaAXkHQjwm9BPQS0EtALwG9BPQSaCcBvYKgHxR6CegloJeAXgJ6CegloFcQ9GNALwG9BPQS0EtALwG9BO4vAb0F4f4y0t+hl4BeAnoJ6CWgl8AjJwG9gvDIdbm+wXoJ6CWgl4BeAnoJ3F8CegXh/jLS36GXgF4CegnoJaCXwCMnAb2C8Mh1ub7BegnoJaCXgF4CegncXwL/SQUhPDzcKCgoyL6itLS/maV1HyMjI7Pbt3Nacm9llxTcyYvOzM1NvH/Tdd+xEuBE+PWa4e3Trbunj4+lpZUV7hYW3jEzMrlUXl2es2nTpgoAsj9avv65B5fAUS8vM0bGeU0uh7XqKY5K+Moe4HDadwa9h/xO/mBd6me1vlN9VHUqRwbIlM9qPCMDVO9TvYN+Zn1Py2K9W10F5Xfa9bpXXdl1p3XTKlc9CHW0VTVCSf20y1G/U/mDqg30o/J+hiNPGpeTtfnBe+u/cWd4+NSPGEZu1ia7tqnM4XAgU3WQsuMVslHcQ39Xikj1nZxhyo0M+V/s27dP9N+QgL6Wegk8uAT+UwqCl5eX4PHHZzw5atTouRYWZn3MLSzMjIyMaGulUim+37jx5oHt20an5+cXP7gI2t85dvToJZ9/tWajjY0NXS5J2bW1tbJmkSjvVlZ2zMnIY59u3rU548+8Q//s/SVwxN3XgYEklmHgSe6Wy+VgmLYhq/4slwOs72nJcuX/yPfs3+Vy+tM9y6HPkpuU/6o+a31HSqLl6Hi/hMtBur0JfEvrwZUqC2C/W/WMjvqwJaPdZkXlVe1jtVFLnG2yYbWDLUOlfFTFKdrLWg7k8l3j8rJm37+X/lt3TJw4OZNh0O2P1Jr2t3pQqEvIFov5wSdO7Kv6I2Xqn9FL4GGWwMOqIHAmTXrCwdfX3bG6osIrMSHJZfykqYmBQf0+CQgICGUv7irhFhUV1W3bumXc2rVrL/1ZgQcEBPDGjBl7YPGSJeECgUBRHGsTKCkplSQlJn6+af2GVAtLM4eAwMBrTU3S4lOnDhdlZmbW/9n3659XSEChILTGMgxDFQRFP2hueOqvifJAFm/2pq61wbdt6MqnOhr9cvIaxaZOb2EYtXLSbsPWUS85A2TYGqPXEmekbypC18pGMKS4jpSW+7RNo43aCpKqzbqUGO2BxJKdRju0ZEp/A7NrXN6tTqcghIdPugwwIb9njnUw5FRF5EmlraFHjx4t+T1l6u/VS+C/IIGHTUFgQkNDA5988qnlAwYO7G3A5drJ5HKjLZu31CxYuIBnbW1tTITa0NAIhsPAWGk9aGhsxNdfr1lVUVa2at++fdK/QvA+Pj6mH3308fkBAwf2JeURk2JVdTVsrBXWbolEIrt29WpRcnKyY/ikSRwDLre6tKys+FDEoT2XLl78LCkpqfWvqMejXIZaQQDjqXFw03FiJ5ua6iIKpK6NXNepmn1fh5s/VUyUVgr1v6qTvOr7NsXltrUJDMNdYWUrRHW5CK0R+ehS3ajQb1SKDNEWNE/sigJU1gH2zKRtU/3W9re6LK17FXewtCPVe1hWA4Xyw1KoVG1UKkSQo7MqCEflYMbda+FTKYeqztC2GmgZmIqk0taBR48ezX+U56q+7Z1TAg+NgjBr1iz7gID+rw0aPPhFV1dXoUrcRUV3UVlViV49e6KlpQXks9BICEcHB3pLS0uLfOeOHRGtreLHVq5c2Q4b0KtXL2Mej2cmEAiM6uvrec11dQz4fFgaWUqNhEbikpqSeg6HU5+WlibW7uLHH3989JKlzxzy8/MTEkG1SiTIycmBtbU1bG1t6e1xl+PQP7A/DAwM6GexWIwL52MK0tNvPvfJJ58cYRuDO+cQ+vtapdOCwH6d0jyv2NOIqf8e1gXV79obs3rTVj2umBIKc7J2kW2brvpVOt5LLAgJ7tbg9POEPDEHgflVtCC2BUNtrtZWBDpwWWi0TdsF8ke6QMPtwqqbqqxOqiBMmjR5i1yOOdoiY3tuNLpE95BieXqYcg4jGxwZGZn5R7pB/4xeAg+zBB4KBWH6yOnm815dcNrP378/n8/TkNepU6cxYsRw+t2xo8cwNGwoTExM1Jvxmq++zLh27drwmJgYijvo27evm0wiGRMcOiDE28sr2N3DQ9jF1U1oZWXJMzM1Yfh8PiOVyiBqFsnr6+qlJaWlLbdzcpoL7xbdvXI5/kJZRdllsVh8Pjk5mRz5OKOGDRv7/CuvHggKCjIk5RNLwtWr19DS0oyBAwciLy8fdna2UGEhVJWvralr2rFj+/rMD9Pf2Ye/xqrxMA+kv6Nu59x9HURKDILO073yZK3azNmuAOUu3+ZyUG98ipN7O/xCR1gA5Uaq87SuLFO7rGZDLjLGeOFOjQHczCXwPZEFXrNM7bZgKzS6FIV7vUstZ124i7bNXUPJoZYKtYFF+YcuxYZaN9RXJ8UgTPkSjPx1XQufEp3SHmWg6medyoK8jmEQFhkZee3vmAP6MvUS+Dcl8K8rCKtWrQoOCRm438/fz4WsWQQQyOVyqUyqq2uQmZkJMzMzXDh/HsHBQTAyNkFtbQ0aGhpk164mbYs5F7N14pSJnq6ubsOtbWwGOtjbu5hZ2nDqmlpQXlWLqroGlFfUoK5RhOaWFkhlikWQxzOAkVAAK3MT2FpbwtLUGHZW5oBUjIqyElFxcUlSbXV1bELStdjs7AzHOU/Pec7Y1LS3hYUFjI2NkZmRCUOhEI6ODqioqMTgwYMUi7JcDplUBq4Bl1gTpDEXYtb973/vvp2Xl9f8b3b0f/Hd1ILASGIZKECK971YbgZN8/39joEsE367TZ/lSmCZ5OUMg1ovNzSZmkJsagq+rTW4rVK0VleiVC6F2KICdtZ8FJW0wKLJDhbgwsDMHBAKIK6ogqC6Cka1dTDLK1TgE+jg6aieOkCY2vXs4HNHMruvEtJJLQjh4ZOXAfiULe77YAzu3TVAC4eRj4iMjIy97/jU36CXwH9MAv+agtDNw6O3VM7x+HnzL9928/FxJXKrra2FgQEPxsZGdKONjIiEqakpQgcOgAGHA4bDod+XlJRg0bx5GTNnP4n58+d62NjY8DOyC5jfTl1CdNJN1DQ1QyqT0Y1aFY6kOEWx/MjkhUrfLENOThwODLhccLkMvJ0cMGVECEYO6ANzM2PJ+fMXmn/88adL/foFhMya/YQZh0PExtCyKysrsW/fPowZMwY+Pj60+wsKCmHvYA8+j0fuke/Ytj3i+02bIl3dXbdFR0dL/mNj5F+rrnYUg86Vmn3CZ5+UOwQgtt9s7wvYY/vwleUmjQmDx6ChKCwsQGbmLTQ3N8Pa2or+S9wdXhYJmD1SjE0RhiiX9KeKrwGPh/q6empt8vfzg4W5OQouXUDAmVjF2GTjDDTwCSzQpHZdtC0JOnY7bWVAJ+6CVY7ifoJB6JRRDIvAyH9QxbH8GeVANTEYRj4uMjLy+L82UfQv1kvgb5LAP64gTBo3rm9g6KDXGhvrp9k7OFTPmDnTmSyohYWFdI20tbWhGyxZEl1dXaGKIpBIJEhLS4dcLoNQKISzsysyC0pxMSkNCalZKKqops9wGAZchoNWmQx9vbrAwswE0VfTYcTn4cMXZmHDnhO4W1mDaUP7Y9sJldIvB59rAD9PF6TkFkAildEFW8Djwd+rC0J6+mBA3+6QtzSiprYG9fUNcHZ2grOzszpcrry8HNU1tTAzNYG9vT0yMjLQo0d3uuhX19S0frtmjdTHx6co+1b2uhOnT/yam5tb+zf1aacpVuFiaI1ltEGKqhay/PrKTa0N+MeOGNCWiPau0NG9ypM9NT1zOagxN0azQAAj3x4o8euJS7HnYMmrgrBGDl5NM8RVDWDAwR2BASx6OmPYuNk4GbUNLZllcBK1UAOBwMYEzeaGaLEAmhgnBASGwj4xAU15+TBuaoJZbVvEgzqSQlvx0VV/7ZnMVjhY8mpnP2fjGdSOePplZ1UQpjIM9ssBqubfSzS6jDo6hw4jX3I4MvLHTjPx9A3RS0ApgX9MQZg+fTpXIpEtfvGlF9d1796dm3rzJlzd3KiFoFXcius3bqBnT3+k3LyJwP791ad9uUyGvPx8bNm8BQsWzicYA/y46yg2HjgJiUxGN2iukg2GnNLeeHICcgvL8NuFBIT6emHSsCC8u3EXuHIGRzeswBtfboaztTkqG0SIT81WiIFh8OToAZg2MgRLPvwBlbX1LIQ53YXo5x5uTli+aDr8urnjl19/QXNzCx5//DHw+Xz1gCq6exclxSXo2tUTFy7EIDx8IrV6HI6KwqTJk+l9hw4dunHq5InRBw8eLNOPxI4lwMYg6Lyr3Wqt5UVWYwpZuAO2m0DFq8Aup/1JGjI+F4mjh8ItIASEKudm8lWUVzeiu30JzE4Xw71KkyPnDJdB0yAvDBgxA9HHd8Ep6Q5CWyQaLoQsO2PUDLRHQY0TzIwNEDJ4BI3OKbh8AQHnLoOj5E5QnfY75IBg7WK6LQPt3RYdRngoJoMKvN8poxjGj580hMtlzgCgqOJ7WRA6woKqImZY4dafRkVFvKOfy3oJdDYJ/CMKgq+vL/+x6dO/nvXErEUWFhZ0N01PT4eXlxc102/btg1BQUFISEhA37790K8fjSxEcXExrl29Bk9PD9g7u+HA6TicuHRNsYEDsDIzwZA+3eHr6QIDLgcf/noQg3r5YHDf7vhq51G8Pms8XBys8eKXm0GAiSc3rsCxC0ngc7n4YudR6oYglgJnW0uMDPRHF0db7Dwag9zicrXiQP9guSYIPqKXlysmDQtGHy9HJN9IRpOoCcOHDQOPz6dukuNHj8Hc0gKOjo5UefHv2RMnjh3HmHFjaXFEkUlJSSncvm3r0p07dx7tbIPqr2qPGoMgl3uqgXbKEXvPkMSOKqDrVK3rXtZ99YY8NMx7EhczstDU1ITGmioMHzMe8XGx6OUkRd+IVEUJahAgcIorR8Mgfzw2eyl2bVkHl8QcDGxVRt+ydp2ESb7IKDWEX8+eiL8QDXMbe5iYmqKXjQVsDkTCpPkPRMqywzCV+/29dkFN9wrL/cJg17jczseDMHnyZF+ZDARQSNchDd1QzUHVRojUFvKoCAvVHe0g3xsVFTnzrxr3+nL0EnhYJPC3KwhhYWEG3bp1X/vO8neeVZMOAdQE7+TkhPPR51FVUwNzUxNwDXiwtLBASGgIUlKScTv3NmbOmo0Dxy9i/b7jaJVIFSd75SL4WFggGJkcl1JuYc1b8/HKl5thYijAm0+FY8/py6ivb8KscYOwfMNuNLe24tTG97Bp93HMnjgEy9fuQGZBCbW4zhs3CEm38jGkbw8kZ97GheRbGu8J7O6BBeFhqKlrRFRMEq5k3IZEJkVXRzusfvEpWJjwceDAAUyYMIFGWCxZtBhPzHqC4hMKCwoxb8ECJCUmYqxSQVB1fmJiYsnGDesDjx07Rnwq+ktLAtSCwAYpsiINtDkN2C6G+yoPuszq2ruFsi4ZC5+GXChEUvwV9My+hTIJELT8HZw6cQJeNuXwPH4bZg2aEbJH7U3Q2sMNA8ImI+b0QZjdzMXImpa21snlqLYwRFaYB0pETgjo3x+3168HnwtkdO2GkaNGoT43Gz67fmsjbFJGXtA9X4PXgMWsSOMyWbwMqnBNVsQCG4/Qzi2jVnToNtgpLQjjpk+35TaL7zAAjUrqoNuVnFa6mTvbuxnkVw9HRQboJ7BeAp1NAn+7gvDSc8+Nnb9k6X57OztjFSiQ4AlOnzoN727esLWzg5mpKZUrAR/m5+WhvLwCgwcPRHZRDX44cBJZBcV0wyY4gilhgdh18hKdwBbGQry7YBreWb8Tr82egOu38nA1Iw/fvb0QsUlp+P7gGbz21AScjL2OazkFOLXxf3j9y82wtzRD+ND+eOvb7ejn4wG/ri64mVuI0J7eqG9qxo8R55SENoCdhSm+fmM+vt1xGLcKShDk2xXpeUUoLCeYBwJK52NwX18smjocZcWFFKOQkpyCefPnUdcDsZCUlpbi+vXrcHHpAn9/P/UCTywJZ8+cyfjkk48HZWRkVHa2wfVn26MGKQKebFpjxQKtMIXrDn9Uvpm9Yd6TqpllhmeBHhsEPJh89jGOnDwFu6vxCCqtw0kTQ2DkCISGhODowS0IMRTDOaYABjKFK0rOyLHJzQm9etlCaNcbotJryLlRjjkFpWpxtHAZlIzwwMUqBrPmPo8jh4/A/NIlDK4X4aKDOZpDBmNo396QfPgpjFSWB7YwdR17dbRP/Qj72Kv6kuV+0djwVMpHJ7UgEFdnc7OYdIY6v8e9FAVdv7VBNdQKRH1UVIS5nvPkz854/fMPmwT+VgUhPDzcZsGCRTeCQ4KdVH67uro6REefx8iRI2m0glQiQVl5OWxsbHD27FlIJFJMnDQZ3245hEPnE6i8uFwOundxRPiQAMTeyERs8i11tqQlk4bhxJVkCAx4eHHmWCz7bgfWLluAXccu4kzCTUwZ2p9u8j9FRWP9O4uwbucxZBWU4KVZY1FdXU9BjGv3HKegxgE9vTFlUADe2rBLbUF4++lwNEuk+Gb3MeVxQ3H8DPX3xsBe3bD71GUUVdbA1twEq154EmZ8OSIiIjB+/HhYWlpRUCXBWZArOzsHYnELunXrBobh0HaRK+JQxMpnn136wcM2OP7t+mhEMbBM+Bq5CNqB87RO1LoaodtO3HanUkloNDTA3UWLcOVqErpmZSC4oh4F1iY4Yu+EfgEBiIuLg6+bMQJT8mBR0qB+/o6pAEmeVnh2thQbtnMQcrsKTiwrQ4WbBRK8XJB7txlBwcG4Eh+PmaVFsKoS4YKdGUq7+6Ovtzfctu8Av7lVI29E26avG1ehs7kqfgNdDJMd4C/QSRUEIp+JEyefYBiMJn+3DSudeRY0xNmBXkaVVA4HzpGRkXf/7Tmjf79eAn+lBP42BSHAyclo6cpVn42fMP4FkgWNcBDUVNegtKwM/n6+aq6DhMRE+HTzRnp6JtzdXVHTKMdnmw8iv6ScTl4zoQAWJkZYvnAaEtNy8VPkWbjb21BTal5pJfzdnGFibozkW/lY8/pcRJyNp37/OyUVSM4tpCd8wqrQ0NxCv5cRMzWd0BxwGQYkZLGFuC4gh6OVBR4fHowNB05SvgRitTjw2av4ZudRxFzPUAMXDRgG374xD/tOX4afZxdcuJaOlJwCioOYNCQQr82dhHPR5+Dn54+MjEyKobCzs6P9Vl1djTt3CmBtYwMXZyf63e3bt8sXTn+8h0NRUW00oA+DVI5wtoLQoaVAm4mQ+okVJzvt8EXtXAzqz2wKZFZ5rTwO8hfMRXJ2DqpKSzCisAD2dc040ccXNXIZ+nZtQn4eB4Nyi2Fd1YxaMwEMWyTI97ZBvb0QUisj8KtFMCmoh2teNVr4XJjWiVFib4zLbg5w7SJDUhYPZGSE37yFbCtjXHB0gYu7O7wtzOGxex84rQogrs6dqiMUHevmjkCOKleETj4EUi6nc2IQqIIwacoKRi5f/UcWUhWxVXvQqHTk4cOHCfhRf+kl0Gkk8JcrCPb29sY2VlbvWdnYXPj6m2+/d3JycibSSkq6Sjflvn370M1dIpXiwoULMDYyBo/PQ5cursi+W4NPf9mPelGLMi4cmDiwLzhcDm5k5uPdRdNwNTUHrs626N3dAy9/9gtMhQKYmhrjwrUM+LjYo7CsCo0tYsVmLpXAkMeFuakxTIwMafgjyeFADojkZC+WSFFd14AmUQsk1GTNUb9X5Q5ZuXAa4m5m43jcDfVC/cSoUAT4dsW7G3ZjZFBP+Hs4Y8Nvp2FnaYbcojL4uDrhk1fnIPV6Ily6uOLSpUsICxsKByU9tEpJsLC0gJsrpYDAls2bD2zfvCVbIhFHZebkxBEsY6cZZX+wIeowR4bxVG1kOimKtct/gI2T/ci9SIOqrA1hsmI1fty0Hk5yCSZnF+GGmQCFPrZwd+fjSr4QY30bUZUkgmeoDOmZhpg+kcG1bAm2FQzCfPeL8HE2wKETMnRzb0bBTR7M/AU4kmqCAe4NyL8thWdWGfzqm7G/mxsquTzMnb8Qravfh1mtWI2iY2Mu2AoQaYeu5GW0fSw8ApttUuM3lSBYtNW0zE4a5kjaNmXKlCCJVB7f5mXRxBpojA3dGRx1gBWZl6KiDn33B4e6/jG9BB5KCfylCoKHh4f90CHDIoePHNHvSETk5S++/mowyVFAGBFPnDiB6dMfV1sOTp86BQsLS0osQ6iU1+06hn2nYikHAc/AACMCfCl/Ac+Ag8XTRmLNjiOYN2EoenZ1wbL1u/C/+VNxOikNdqZGOHc9E1X1DXQx5cilcDbjY/yQQAwKCYCNtRWEhgLIZVLU1dahRUwsCVwYGRtR07+oRUzDFZOuJeNKcgbOJqaimTFUWwtMhYZ4euxAGuFAsAfHL93AmtfnIPdOMWrqGxHYsxs+/ukAenh2waShAdh3Kg4RMUmwtzTHV2/MQ1NtBUpKSpEQH49FSxbTd5LFvr6+noZBThg/jpI01dbWSrZs3lLcL6Cf+eZff3n96NGjPz2UI+YfrBRbQVC/9l5xaVp163Djvx9NMWtWXOzuANOeNnCxM0Bmdh0spTLYO7bgdr0xUvOaYedgieF+QG5KHYS2AtzNaMLQsda4ltWE0lo+HCwk8HcXIPZsNezdBJC1SGHrZoxL2RzUVVbD08EQbiYNqKkyRKmcga+XGQrLW9GSVIqg3AqNFrWzorDzOyitIGqFgc1poCPldbv02O2UrM6Z7pk0U4lDICAihe/vd166hqBMhu+PHIl45ncWpb9dL4GHWgJ/mYLQu3dv55dffW33mNGjB5GkSjt37JQtWLiAQxa1qMgoDBsxHKbKHAqJCQnUotDNpxv69OuPzZHncTgmiW6cJkJDGonw3MwxcLS2wIGz8fBzd8Z3+0/B0sQIG5Yvom4ET2d7rN17glIpG/MY+HftgkG9vdHT2w2mZoRbQYzaulq0tIjpCYtnwIWpmTnK7ubC0saJWguIwkD+Jesn2bhNjI0pLiDvzl1cSr6FhPQ85JVWAQwXAgMudTs8NiwQZqbG2Hz4PLq7OaGlVQIOGLw+ZyLe27gX/Xzc0dTUjHM3Mmk7Vr/wJKyEQE5OLq5fu4pFixerc0nEx19Bnz69KRkUAW5evXpVHhQUxOTm5EiOHj2yYu/evd9kZ2ez4O8P9Vj6yyuncjEAck+NU7JqY2Sz/mhxHnQQj6aoo3a4ow7uAwX1BQMZF5BxOIi2NIV3eFc4GLXg7OUG8MwMQBKB+3YzQfrtRljL5bC2FaCqSYq0uyI4WAjAu1WFFm9LVNa1wtdFCFM+B1VlzajnG8DDWYDsPBEaJXLI6iUYNdQEacV8VJ/IRmhtAzhE2ZUq3GFtUQtKngd1FIPmZ10KREdZMFURDKp2thkS1L74ThnFoGpnePjkywAeOO1zG2xFDZHV0lmZs/X1NWP0TKl/+TKgL/BflMBfoiB0c3KyeWXF+4nhkya6qfIo7N27HzNmPA4CSiScB8HBwbSZuTm52Ld3L4JCQjBt6mS8/PEPuED8+4TXwMQIn73yFNbtPIrU/LtwtbPGm3MmwcTYEM9/+jPNpxDi25XmTzidmApJSzMmBHbD8wtmQSptxdmz0XBz7YKQkGDweDwaRUDcGqqLRA1cjpwNiclshI1SkBYp9gs53aDJfxWVVYg+Fw0jYyGGDRuOa9dT8NnP+1FQp4hJJ5EUBMfQLFZ8tjE3wfrli1FTU08VhPK6BqpkELAln8uBnMPgvYUz4O5ggrNnz6GxoQFLn1lKny2vqEDilQSMGz+OvjsrK1vJvghUVVW1/rRp45Jvvvtu8784Pv7VV2uEOXbEDEhqyBrFHRIKdZAiWrX5dsQHoLJCyLgM7oZ5oNrUBKLiOrj2toZMziA9pwaNLUTB5KCxCWAMOGDkLTDkSWmgPQmAFLVyAUYARkpYQIH6WgnMTLjwcjWHIV+O7LgymHezgUlhFVwu3wGh/lYoMcrGqaI16EdFY3ViC+6VobGdRUErgyObhlwRFtnZFYRNABQT8V4RIA84A+RAsgGXGXro0KGaB3xEf5teAg+9BP4SBeHjjz9dN2funOc4iiQF9Nq9ezdmzpxJQxfJfyQvAglr/GHT9+jh54cBAwfj6x1HcfGGQjno4+WKQb19UFZTh4lD+uOD7/ch524ZuBwGi8LDcCI+BXmEwIhhYGwAjA7uSVkSIZfSNNCE197Pz1eddllb8q2tYvz02UiYGjahvsUeg0YvRc/ASR12ECE8SklJpZsPsXzcyr+LXUdjkF5YCQJZVu1Lbz4djsYmEX47cwXr3l2EFz/9BcWEyjksEAN6++Cd9buoy+S9pTPhaM7DbwcOwNXVDaNGj0Z21i0cP34Cby17C+KWFuTk5sLX11ddp5SUlIaPP/pw/Pnz52Me+pH0N1RQle4ZgCcNa2TH9StWdRbjJasC7QPVNUMi2RERqo5UFK5iEVT+q3lCrzc0QHVPR+TbmKK+UQwnWxnd4EsLZXC0b4CXhwHl73WxEWPHWQ5OFvhgokcGZobJkXWXDx5XjowsKcqqzODcBWgQAYVlBrAy48OtpAaWN0tgLO4AekLr3IHFQFd7Ve3SUjTUUlIpXKovtFeCThzFQJo8adKUZ2Uy2QZt/EZHHqz7fS+Xo5DLxYCIiIiCv2Eq6IvUS+BfkcCfVhA8XDx6/bJ983UfHx/V0YYu2kePHKWpmQmBUNKVBJqRkeFy0Kt3HyyYPxcrvt2B45cVGVI9He2weMowvLNxD312UK9ueG7GGCxZ/T0aWsQ0nFDaKkH6Pdr7AAAgAElEQVRcWg5M0Iytn78NoZEhzp2LxtNPPdmhUqAt0cb6evy4ZjEcPUfg8VnzwTWgbKv3va5du47LcfGYN/dpbNl5ABsiLkLCcOkGtXDiUJSQbJGiZrz33Ews+WATjbz435LpeP7Tn1Bao2B9JNf6ZYvRWHWXgjNnzJyJFe+8QzEYqz76EDy+Aifh6amZuDAq8nD8Bx+8N/zu3btN961oJ7uBKAhAayyHYRRCeRD8ATt5E/sRreRHHef0ZRENaUdIMAyaOQxSw9wwbiQPBWVyxEe3okdmGcq7GsF/ghXKa1oxtBcPK7fUI7fKEn6OtVj2hBGOJ0jQxY6H1EOVsC0UIb2nHfr2N0APNy4ORjYjILYAHBo5o6MTtbAGqjto6DCjUp2UVgUWlTRbXu0IknQkoNJ4s7zzYhBIOydMmDyAw0GsduiilgzU7p2OQhzVfQGIuBz0j4iISOtk01DfnEdYAn9KQSAUyosXLz0z84mZilzHrOvAb7/BydGRJlwijIkfrFwJM3MLzJ07F3tPJ2D/mThqJjXk82AsFOCd+VNoDoWfDp2FDHLMHjUAoX18sHLTXlTUNYCRirFo8jCMHxqEOwUFNCGSb4/uGi4E9vtVvAuNjQ0QCo0oOPKTZcMhZNIhhwCjn/gZvr2H00fqamspxa3KPaJrPIhEIty4kYLmZhH4QmNs2nMUidnFFPAY7O8FH1dHpOYWwNjQEC8/OQFrtkQg7fZdmBgJ8PTEofj+t9OU2vm7t5cg99ZNHD92HCHBwRg9dgyysrKQk50Dn+7d4eXVVeP15eXlTdu2bhn55ZdfEp/pI3W1y8WgHbPP3gwfQDIakRDaoYO6zMw6FJJcW2v84jUML/hlUfxJvUiO4irAxAgw4MrBkbfQYJjmFjnySsTwcBJAwCOZP+WQMwIQz1SjCHC1ZWAo4EDA42JDqjdeyDgO+6oG3QoCaxdSc0BoKC9a7oIHkIW2taQ9w2LnZFJUiWb06NHGAoGwBIDJg4jrfvcokQmPR0UdOnC/e/W/6yXwX5HAn1IQFi9eHPjWsrfPGhsb00nWIhbTFMcXL8bC29sbDg72lEmQ4ADWfrMW8xfMx5X0O/jklwMgSZjc7K0xMrgnfoo6T1kR1y1biD0nYhEVq7AsTB7QB9HXM8BnpPj2rYUAI0Pe7XxMndqGH9AWdH1dHS5duID8vNvIvpWBgKBgGBoKUV5WgoyEj9Hdg4vqOi4ENpMhNPOmvAQ+Pt1BFICqqkqMGjMeHl5eHVolampqcPTYcYweNRKfrP0ZJ5PvKLI/ArQ9n7/yNFKz7lBMgYDPQ7+e3riWnouPfvkNLWIJzI2NsPert7Br+1a4unZB2LBhVFEiV3R0NPr16wdzc3M0NjbC2NiYfr992/Z9b731xoz/yqD6q+rZjmpZx0bJZlhU52sg9ylHdjtffUckSVrKQDtMAhRgxWYuB1f6uKDBxAgcRgY+X4DqOjGMjQQQGvKoS0zxakrjqCEKMk5ELa1obGqBtbkATc0Ef8qFaW0DQm8UwIDwc5BH2CBMNfhSWRQbjKmlILHrzA6LVFRFURcVKLE9oJHlvlDc2qkxCKSB4eGTtsnBPMUaLur+0mWs6mjosDp5Q1RUxPN/1fjXl6OXwL8tgT+lIPzwww/Lxo4b/4mBgQFTXFwCKytLnD9/Hn5+fjQVcmtrKyEBgpmZOQoK7sDA2BbvbdxFeQp6erhgaN/u2HIsBuJWCT2NkaRJ/1v0GM7Ep+C36ASa1Ki3mw2WLXkCRYV30N3Hp90Jmy3A6qpKXDx/HjlZaaiuLEd9VRYExraQwRgEg2DEq0M/3zxUlN5BfvUk1NY1QdTcAE83W3C4QjSI5AgOHQJ7e0cEDRjYYXw5USYSk67CwtyMEjR9se0wWmQcWJsZo4udNa5n34GJIZ8CLKtqG6j1gLRvwoA+OHc1Df5dXfHZq3MQG3uRgjeJ7JydHCk3RGJiItzc3CA0MoLQ0JBGOBQUFIhfXPR89yvJV27/2wPmn3y/CoNA0z2TrU2HWVylXOnkAlCu6JqbvaIFHfEptN9YAZkBg3wvD3iMHgWOiQlu1lQgOysDpvxmmBoJaCiutRkfxkIGjDa+gaUrkJ8amuWoqmuBRCpHdV0zRHITeHv5oJeFNUQ11bhz7Djc8+9SQKNCz1BrOkp2T5XuoVseah1KxZ6oS4lQKzDtMz227ZCd28VA2jlhwuTBHA4u6BrTLIioWrFiq31sva3tbybrcNShbv/kHNG/Sy+Bv1MCf0pBOPDbwSuhoaGBpIIXYy/Bxtqahhg6OznRU3FMTAwCAgKQmJiE4AGDMPfdb1BeU0dXpXfnToazvRW+2BKF56aPwuqfD6Je1IxeHi6YGNYfX22PQh93O6x6dQGuX7uOkSOHQ0gg4FpXU2MjcrKzUFJUAIm0FefPnoKdaR68PUxh7DgT3j0C4OjkjPTUZOz4+WuMGOGDjKTNMHN5GY/Nnk8tHHduZ6EgJwa1xRGIvWaBbn6hCA3pj5o6MYIHDqQuCsLnoH2dvxADAZ+Pmtp6rPwpArUtUnpSI1EMy+ZOhpmREB/8sI9SrRCMRT/frlj+3U4UV9Vi3sQwjAv1RV19PWpr6+Dn24MqA0QpIuGPBHBJoiVI8ipy/fD9D6+vXPnemr9zMDxsZWtQLat3Ph1UysrVnM2MqHPRV56i1ZELDNAiFELk5ohaI1PYZmfDqKZBwcJILGICHhihEAXebpj382Z1eCopm/RTbOwlnD56CFJRBarKq8FnJDAWCMDhciFTknKRCcaRySCVStAgaoEYPFjbWYJjZIcJkx9HYGB/DTdZRXkF9i5eAOc7xZA3iSBobVUrHfVWpqj07ArLhhoI8ksgEDXrhiywQyPvh9BnYzY0cRqd3oIQFhZmaGpqTpRuhwcd++2iZLR8NTJpq/vRo0fzH7Q8/X16CTzMEvhDCoKLi4uQL+Pb7jy4J8fVtQvdOXfv3kMTEfn7+9P2kvBGkgpZYGiIwP4BeHftLlxOzVLLgjAgPjl6IIaF9MSKdbuQVVSG/t5ulD4wJTsf44K6Y+H0ceT0jOCgIJiatncVpqUkIyY6Gnm3M2FtbQ3/Xr2QcCkKft6GGD/7G+paUF35t7Oxcc1KdPMWorHiLOy938aMpxdr9E12eizSLq9BiWgwMlNiwTW0RujAYTRKYubspyihkfaVnZND6ZTNrWzxwsc/QswYUMrlmcODcfB8IqV6fv3piZSt8YdDZ1BWRbgXGJCSVj03G+Y8MVWmSFbL559/jv7W0NCAmJiL6NunNxwcHekr4y7HH1zx2svPpeXllRFr98M8qP6qurUjSmKD9bQjGHShyHRFOSjvqzTiQzJuDIKmT4e9lzflwTj8zRrwf/gVUjAoGdQXA598DKbODqhrbMbFK5nw6uYDSWsrevj2oFYechFXUnFRIaJ270RyzHkMuV0ERiwDw+OAhDQQVxpa5ZAZcnHZ2x3+oYMwadaTcHByUisG2dnZyM7KpqG5WbfSMTTUD8YCHmoK7iJ+8x44JqRCzuWAeeMVjJ2/AMTNVZKZgbhdu2By7jzMm8Tq5FW0UuyQ0AclhVJbPpSWiU4exUDEpCBMaokCmHHsMfsAgES1YtZmMFLwR8jl8qcOH47c8VfNAX05egn8mxL43QqCp6enuZFA+B2Px0+MOnbkW4IvqKurx5qvvsLb77wNQ0NDuiju2L4DXt28YW5ugdSCGmzYd5zmQiApmkkmxejEVPx65DzmjBuMkSG98Muhswj088La3UfRx9Me7yydhfS0dIwdO5ryGWhfZSUlOHPqOHKzMyn7vqhZBA/P7ki7fhTBfc3x+OJtGi6CrIxUbN70BcKG9UTSxV/h6L0Ic5e8olFsflYcrl/8Cjey3VBeWg7nLi6orCiGcxcv9A8ZgMCgEKrwaF+FhYXIyLxFMQOvf70D1SIJnKwt4OlshyfGDED2nRLqZhC1SsDjcmBjYQaxuBXGRobY+fmbiI+7hII7BTQMtEePHrT4W5m3KE/CwIED6OfcnJzERfPmn+IJeEUpqakbHoXMcSqQIiFKIjLoMCfBPVZ3DYwCGEg5DKq6d4XP28sQNHiIRldGffsNuOs2ocHDEeN+eY9SeMfGZ6JVIkO/Xm4YOuEF9A8cgJaWZowbPx5Tp05RRMLIgVORh1C/+iOY1zW1IzdSuQmqbC3huGolBo0YSTcYQuK1d+9enDlzhgJ401Ou4uRvX+JsbCpsrUzQr5cnykoqcWHhagiIhWLFcox5+mmNOsecOIY7X6yB5e0CMDJW3oYOFIN2LhTtwdy243V6CwJp+sSJk94Hw6zUwnxqKAC63AlUD1PKTuNZBpsOR0Y89yjMz39z49K/+5+RwO9SEAICAnguLi4/zHxi1tMH9u8/8926dTQjWm5uLgy4BnB1U+QVSEtLw8kTJxAWNgxe3f0xZ/ka1DSKMGN4MBpFzbielY/XnwqnXAdNYjGG9vVFPx83rN13Ev7OFvjo9UWUeXDgwFCdygF5x7nTp3DmxGE6D99YvhInj/yGW5mZFC3u53gMXUM2oE//oWopXoqJRu71X2Hp0B/JVw7AzL4/nn/jSw0pH9/7Ji5fKYWhiRPEohZMf3ouOBwDrFvzCfoEDED41Mdgr8ynoN09JAHT1WvXYCAwwVvrdqOPtwcldMoqLENxRRXcHWwxuF8PONlY0Do621nhhS83I7CHJ95dNAXXrl3Dnfx8PKXcAAh+I+ZCDIaPUERapKWnFxzYt09I8B3ff78pOCUlJfefGSL/3ls0mBRZSZjo4qxyF7B87Cp2QA2sgsoErMQMlnX3xPitW2Bjq0iexb5+XDQfXc5cgqi/O+znj8KdWyXo6usCLiOBj5c9Eq7nYdPuVHz0ySews7Wlj6qwDMTlsG/Dd3DavF1ngqVWHhe1Lz6LiU/PAYfDZW1AchQV3sW77yzDsqUh8OvmjPTsEsjkXOSkFsKzhyNKv42EIKsUBZPHYfHX37ard9GdfETPmQfrO4pkgu0AiKwntEGbHWI4HgELgkJBmDqIYWQx97IaPAA4UTkWKDQ1FpCNjoqKeuTCkv+9lUL/5r9LAr9LQZj39NPjlz7/wj5nZ2ejj1avlq547z0uCQ0kYXokfp/8TRac7zd9j959+6Knvz8+/PEgrqTn0CiF95dOx93SSvwUcQ6TBvXD7jOXKbKfXMQS4WhuiK/eXIA7ebcxfPgwNYpfV+N/27MbjQ01KCzMx9vvfYzrifE4uO9X9AschGtxJzGgXyOGTtsKQ6HCNUEwCEf3rICsKR4NIkN07b0Uc5YsVxcdf/4Asq9/i6Q0W4QOHYeEuCt4d9VnEAgM8f7bL2Phs69SDEQXN/cO+yIjMxP1dfVIyczF2v3RaJHK4elgi6nDAlFSVQt3R1tsPXIerz09CbuPxSA+4zY1B3/84lPgNFfhUmwsJk+ZCg8PxTuI0kBSQxPLRNzly3InZxfGycmRJHbKOnTo4ICkpCRNsv6/a5T8S+WqMQiAJkiRXR96jFOe5XRxHbBAg2Qz5/3vLYxcsKhdiwoKCnFy4kQ414tQaWGEakMuupbWo9pMCBHDhVgmg+mwrugS6g6p1XD07BOkKENZfn1DA+Lj4lCxYzu80rKUgQMKs7OMwyCzjy9cnpiN4JBgCFmuL6LMJFw+BytJPDJPZUEUm0+tTEYyCSzqm5HlZAGH2maYNTTjtqUxHjt2AnZ2CuVEdZE5d+SrL8Bd/1Obq0G9q3UAZmQTJenkXuj8IEUiv+nTp/Obm1sKAMZOV+TCHxj6pQwj7x0ZGVn6B57VP6KXwEMlgQdWELy8vMxWvPf+rVEjR9oTU29m5i3KCdC7d28kJCQgMJBiFSmV8M8//0LpjivFAnyxLULdYGNDAeaOG4RBAb44HZeMXw+fV3DDyQFDRoJdn7+JrOwsjBo1EoYCwnTf8XU08hAqK0pRUpiNiVNnwMbOBXu2/4SszCSUFt7AgND+WPLmFhgaGtFCaqorEX0yEk1Fq1AvckXQ6E/QN1BhvidXwqXT2LL+GRjwuTC3HwtLS3O8/NYH+ObjV1BUXI93Vn6OluZmOLm43LNeBGBoZ2+PH3dH4eClNLpRkNA3iUwOf08XLJs3GVdSsrB+/0lqSSAbhIejLSLWrcCuPXsRdegQvlm7lipMYrEYcXFxGDJkCA2BHDBgALWokNPqtq3b/rd8+dsfPlSj6S+ujAZIUZltUD1gWcpAh6dgDcwCIOcA9nu2o1//QEr/rXLnkGrvXfctTL/eAJA+URKCSrkclFoI0UzK6WcLgQMXaWlSWLo7YGj4Inh4eCjGfGMTjIyEqKysxOblyzD2Vp46XJEMbrEBB6f8vLF41ScwtzCnIbVGRopxmZGRgfjjv6A0rxwBPbmoLwD4yWXgMwzsq5sowJEGcJD2k3Tlq9/FhNltboacnBx07doVseejUT9vabvwTp1kSaqIEBa4k9RFK9/FI+FiIO0OD5/8EYDl7QGImsGqHS2WGtYHuVzO5TKjIyIiTv/F00FfnF4C/7gEHlRBYF555bX333jzjffZuQ1OnjyJkSNHITY2FgNCQ3AhJgbXr12Dnb0D5s1fgKfe/gr5JRWstLNyGHC5GBPSi+IQziWk4MCZK5DKZXh37gS42VvCzd0NXe6zCasUkWOHI5F0+TBMjY3w1qpNiDywAzdi18LGpQ5XU62xYLIdYDQZd9P3wM3bBmjaj42XByLQLBVhgU3Ia/oE9UXn0XPwE8i78S22nhVhmHcOKpsnYtFLn+BW2lVciT0BSzsPGBpZ44mn5tyTTInUiywykVFH4NW1K9795ldklrQxKYYP6ofhgf5YsXEPGkkMPGuTe3rcEAzt7YbfDvwGe3s7BAUHU+vB4cNHaLbL+Lh4DBs+TD1AEpOS8p57ZqlvYWGh6B8fNf/QCzUtCO1D8jpkB1TVTys3QYG1MSZEHoatrS3OnT2HESNH0Dubmppw7PlnYBaT2EZURDdkBreM+OC7mcDUkIvSGikc/BlYehnjThXQIByB8eHTaAhvTlYWZQktuhIHk3WbwKXpFBSJlsR8A0jfeBWWXt1w8+ZN+Pr5wdHREYf2b4cD9xKsDTmov12PklTAwYqL6kYpmDv18BQpIxhY7WiYMBITv/iKAhrJFR19nqYSz8vLQ+z0x2BXLWK1QSmIDpzo2rwJGkrCI+JiIG2eMGFqDw5HlgRAI0xKa+PXYK281xSQQb73SFTkzH9omuhfo5fA3yaBB1IQfHx8TL/4Ys35/oEBfdk1IeGL3bv74MSJk4i7dAkCQwEN2SO5BS7eyMOPkWdUzCztePNdbC0xpGc37DwbjwBnE7y2eBYFfPXu1fOBGltfV431KwfByqIUd8tt4eHZA5zmUrTIbmP3CUME9mrFU+OqEZc1B3eyTyB8Qn80Vx5DUqoJqmvr8eRkDhKL3kJ+xhEEBPbEqeO70MTYwRhS9OsOFNSNAJ/JRl1NJmwt+ahq6oa3PjkGLvf+9MzkhH/6zFn07tMHU5//ADXNUpgI+Ph11fN4bc1WFJRWauYQkMtptsmdn72Bvdu34ErcZQQE9qcn3OqaWhrxMHzkCFgoQx5Vm9qUiZNeuZl+s71T+oEk+PDfxLYgtCM8otoYawO8j32YPH9jQG+89ONWtEpakXz9BvoH9qcFNDQ2IvqlZ2Fy+YYCG6Dlqmg15OCAjwtGDWzFnSTAPbsKwkYJciaMw8AZs+jYJn0eeegg/Pz9UbNpHbyLq9Un8gxPZ5g/NRd5t29jzLjxiugFuRyxW35GtzPnUWvGR0EPG7j4yXHuAoNpWXfBbZUqntdKotQ4ZihGfPqFGpsTc/4CBg8dQmXx3Ywp6J2apxSKUiBsYqWOXDA6XQydnyhJNQPGjRtnxuXyzzMM+mjjDbSxCapnOrQmKJRCmUQitjx27BiJ6dZfegn8ZyXwQArCi0uWdH1i7vwUD08PDQ079WYqioqKwHAYhIWF4WpSEuLir2Dmk3Mx73/fQSxV8ALQS4PwhX5Bv3a3NsbWz99Calo6wshC94AXWfArykpw9XoSyrLfgpdtGeJTQ2HEy0J+kTFmjb+FlNu9YGVBGO7kSLvVgNKSUrj5TEJLXRIqK8vh7e0GI34ZuAIvFBckwtutFTlF9qitF4JjYIrh/S/h9Z1PYN17b8DMwgK2doqQwwe5CB106s005JVUY+1v0bS9nk52yCspV7sW1MkFlJvAzFEDMHfiQGzc+D1eefUVeiq8fv067uTl4+VXNSMuSB02bdyYe2HVBz7RgALI0cmuNguC3FNj01Ztgap4fy3lQBdIr5nPBbN6FYaNGYNLl2Lh6OhET/EVlRWwt7PH0Tdfh+25S+2pjpVlt/I4EBtwYSxSZPEk47rSmI/4YcMxaco0ZBMujuJiStvdVF2JofEJsGyRoMyIh7iQEPCNTWFlZUVdVK5ubti/ezdGXIqFeXNb1zUIeRC2SqlyQNqrAbpUYgZqpo7H2PdWIj8/n4ZaElcJSW3ep29fnNizG4ZfrAFPooyC1aE0qcskoE9Gs7karppHyIKwcuVKTmLi1fUMwzzDnkJUHqxcF6rfOtJFNfRVOaYdPhxxsJNNSX1zHjEJPJCCMHPmzDmrP/xoi4mJiQZCOi01DVbW1pRSmUwm8tnd3R1bjsRi/5nLmlYDtqLAOhV9uHQqRLWVCJ84AebmZr9b/JRD4MgqSGsOoqy2GxzNTqO+gYO4m24QGohgZNiI3EIheNwWmJvKKF8+lwPUN3JQ28CFuakAjnY1qBUHQoBEdHVthZHQDA38JeA1bsP4hUng8dqHWT5IRYnSQ9gQ3/h4HdLLRKwUvkqFiX06BKgV4ej693A5NgaDBivSW5A4+0OHIjBx4gRFCCndFBVvz8rKbnl23txuabm5dx6kPv+1e9hhjjqZEulG3Z5WWb2QUzZBhbBKbMwxPiqSunZefuEF/PTrrySlNnKzsxEyYAAO/7wRtut/1c2eyQZCqiiUlZ1wbMJY9AsKQnrqTRCFmYTcuthZY1K0InUG2YQPDglFWVUNZRYNDA6Bi4sLMpKvY0TkMaWVQNEGlctEQXrcdrGJnRqXv47h02bgzOnTGDhwIOXmeOHZZ/H1t99C1izCxekzYVPfpJ577ZQl7dg8pfza3/dogBRVUg4PnzockJ3RniPayoCagVPrRsUQUQiXEm0x8o2HIyMJ7bJmZ/7XJqG+vo+0BB5IQVi2bPmGl1956VkiKZK7wNLSEmlp6XRB8/XtQYl9CE1wwZ07CAoOQfjzq1FZ16BpPdBhSejraonXFzwOoZEQvsr4/z/SGyJRE9ISd+HCsc+oIuDjUYesZAFEORx4DmpEbpUJ5k2rxA+7hNiaMRDe3DSsXlwCcAwgFstxPsIQzZVC9BjViKZWPsoreTA07YYpT38FJ7fef6RK9BmyIZCMk44urli0cj3qyOlT22ysKl35/dAAPyycEErJmQyFhgrKarEYVxISKeseURhINAVZhCQSSeuKd5cP3bp1a6dM5KSTSZG1EOuyKujsLDlQM2IQhn74MU6dPIW4y5ewctUqbFi/HuGTJqFLly7Iz8tD6sIFcGho0VCCdYZOKmdNk5CHi6NHQ6qkRbawtIBEIkXPnv6QrV4NK1ErSk0MYfD228hIT6cpz+sb6umWQfJ0DDp6FALKvqlF/az8rNpsVG0qsBAiaPM2avkgIb2E1nzxkiV46403MHnKFMpaeunNN2Bx5fq9kz61aVDt3CnqFBIc7BqXe2v2Hx78/7EHSTSDqLnlJgPGW1fVdVkNdLkjSE9SwiQG14UCfvC+ffvE/zFR6Kurl4BaAg+kIKxfv+nS1GlTQslTObm5cLC3R1xcPAXPkYswCZLEQ6UlJTh77TZ2nLioyjijeJGG71OhUJvwGBzZ+AHSMn6fa6GjvrtbXIoNPy5AmOtlGBlKEb/WEpZ1hjB9rBgGDjwE92pCYQkXH240QXc3MZ6f04gmkQCGghZs+8AWvWtNURZajuQGQ4weLUdcwctY9fYbHeZjeNAxRJgW794txqGz8TiWmN0mD52uFwYk0mPrR6/gcsw5ygQ5ZMggSvNcXFyM8vJymhmTmKqJH1smk0m3btn2+PLlyw49aH3+S/dpZHPUOvneK9ZfoUMorQfKEV73wmIMmDkbV65cwe3cXLqZrl+3jp68GZJ+EcChZa+h60UCVGRNi3swEV415SGzdwBN8jVj5hM0LNXDsysK7uTDOyUZXTJzkdvHD3ldvSn4lr63fyC2b90CWzs79L6aiB6NSpcFrbTyfzoyTZJfsseGYeqKlbSuhCJ8wdy5WP3xxzh39iwFtAaHhODs9xtgt31f+26+h6VFjXNgP/UIuRhUzQ4Pn/KiHHKC6WkLlmHJpL01oUOPFHlKKpNJuh05cqTT85X8l9YUfV1/nwTupyBwPDw8bFet+jBlxMgRNPg6KekqzMzNqJJA6GnJRUCKJHQrbPgoPPH2Gpp8Sa0YqMLTtBbd6UN7Y2SwP9xcXeGmJFj6fVXXvDsnvwgfbXodY+1PoqWFj/IqOQrv8uHr1YraWkM0NRnQdV8mlynCDqUMDAzkMDWRgGsgQno2D0F9JZAzraiCPRJKZ2H7F+9SXv0/e5GcDYRYh0R1NMlYIEeNjUAR7kksA0seG03zNOTl3cHdu0UYO3YsrQLh/jczN6dprgnnhFQqlR8/dnTh5x99dC0rL+/6n63nw/Z8OwtCRxuoNrWwlhugzlQA66/WULbLsWPHYOOGjZThk5z4wydPVrspruzdA6Pvf4YBsQh0lKNAKSSigBRZGOHW6HHITE9D/6AgGslgbGKKivIy+DY3ISg1C5f6+iOLY0CplUkIcFcvLyTEx8Hbpzt6HDsMu7pmrfBCLXChUmdo4XNpJES/MWPUbpMd27dTnaK+thZz582lSruttTVal78NIVU8lOxQrCyOauVJlxKiEfXxaLkYiFwmTZrkJZdzLv4Yfh8AACAASURBVAFyTaIJLT/B/RZNRZdRBXVzVFTE/IdtXunro5fAg0rgnmO9m4fH0wJDI+/3Vq9+Z+DAAXRnO378JCwtLRAcrCCKIQQzBPRFiJLKW3j4cmuEpq9dVRPWgmQAKbasfJawA+KpJ2c9aF113ke4CcrKylBVUYrtG5ZCLq6gEQP2lgLYWSiUArULWYMTlaXDUHUfyC1qhpwrxd3KZti5TcK8Z5bBgMej7Ins8M7fW2Hi6yagxbjrGVh7IFqN22xzN5AS2xDr1qYm2L/mDUo1ffHiRcyZO0eNWt+7bz+mTZ1CrQoEOb9j+46Pd23fNqe+qXFgbifDImgwKWplctSwIGj70ZUdTr9mGFyzNUf3d1bA3s6W4jiIW+yHH35EQGAgzMzMKE6EXIXJyahcthzGEpIRRKUJKBd71UBijaHbxnxcDwlFXUMDTE1MqDJJUoeTaIV+rS2wO3kW5dMm4bpURrE5N1NuUm4LsbiFJn4KvXwZjk3iNhxFB/klSFvrhAK4rVsLG2UOCFGTiPIukBDLGTOmUzBrQwOxiomQ+f778K8mrgwlSVIHSrom46RWGKn80VMQlMmbDssBGv+qmz9KEbp6r4s1NmUMI3fSkyb93hVTf//DIoEOR7q7u7v7+HHjk11dXVu6uLlbh4UNZcjEiIiIpERGKqKXVStXYtjIkRRkuHDFWly7pQqzUh+12tqq9LM/NawnxoWF0hBJVTkdCYSYUkmqZsJoqH1VVlRg/57dCAyh3g/U11fj1s1EZN3YDbm4AV5dxBA3C9EoAuXTJ5wzpAqqRnM4DPg8BmZmMpRUSFEr4sDIOhCBAyfCxqELjIQm1OffUF9H26jrahGJINCRZZJ9L1kwDh2KRM/evTD/f9+hor6ZBeBUWA60sQlvz58GobQWreJW+Ph0g7OSG+LKlQT069dXrSB8t3Zt+YiRI603fbfug4NREaseloH1V9RDne6ZIeme2zZsNaCPpTSwMzmqF2jlxnjd3hIjv1tPzfBJiYk0xfaHH36IqY89hpLiEnRxcwOfz0N5cTEqlr0Nk8oaxcu0iJbUB3LlAErp6YPWkIGoKC+n3AZEMSBWCZJXITMpAUMvnMfZoWHo0ScATU2NqK2uhqeXF26mpFDrm1nsBfiQ+fIAiadquzjC9ZNPYWZpQfEpBFzp1a0bIg8exJvL3sLpU6cRNiyMhm/Gv/oKfCu1Iuw6gt531FHyRyfMkS2CSZOmPCWXy7dpDbd70ldrzHUValYNWOTMj4o6tPmvmA/6MvQS+Kcl0KGC8Mwzz61cvuLd9wlAbu+evZj95Gxq1k5MSkKQkjWRnGA2rFuPqY9Ng3tXH0x95RPieNNUCLRaZCk0wMF17+NmSjKGDwvTqY2LW1qQl3cbN5OT0SwWo7VFjKFhYXD39ISoqRFFOSdQeTcaKckpsHKdCR//wXQjt7C0Up+042JjkHg5Bra2ZnByMIWTLUmUVASphAHPQIpWmTmaW22RndeIyspGGJvZIHTwULi4KrL0VVVW0EWBtD/68CoMCHaCoZEr7FzHwN6lFwVl7tiyGcZm5hA11KOrlzdc3d3g2gEVc21dHWIvxiLmagYOxd9SSEUFWNTudYZBd1cnfPrSLJw8cZxuJmPGjqF3FRQWwsLcnH5XXVVNmSeDgoJw5PDhqq8/+tAvLS+v5J8eRH/X+ygGgZHEMpRqmW3nZdMH66YSZlsYbgb6Y/GPv+LihRh4enWFna0dfvnlFwiNjNDY0Ah3D3e4uytYEeN/3AjPc7EwkJJy28iONC0Wckh4XFwZEIQcsQSWVmTcCdAsElEAqUwmpZwV0sRoGAQNR329giyrqbEJhkIhtSCUlZTClwv0T7wOLn2XFu6B5SaRcDm4M3EM+j85h5admZ6BkpIS6uoTNTVh0aJFIFgX8p6+ffrgpyceh2/6bc0yVfqVFjZDQ67s1eARxCAQWSiol1vTVQnCdI3tdlgErfTa7GdkkP92JCrysb9rjujL1Uvg75RAhwrC/v0HsgcMHNiVvJyA7MjiQ/IAEDOmo6MiffqV+HiImlvo5/3nknE68abmpqftYweD0f28MG1YINzd3XRiDwoLChB56DcMGjoMlpZW1MRfXVWFovzbGDVuPPb/OBvjgg7AyLAVTc083C3lYO479jAQOkPa2opnX3gRw0eOoooHScO7c8tm/G/VapizSIZUAiWL7enjx3D82HG88uYy8Ph8ms73048+REJiIlpbmzHQvwVfLMtFXYMJrCwaUFplB577CRgYOiEhPh69AxRkO02NjSgpvouKslJMnqZ7Pbh8OY7y6E99+WO0cgTtSHDUHS2Xw0RoiK0fv4pLF87gQnQ0Pv38c/qzVCLFhZgLlHdi06bvsXDhfLo5tbZKsPqDlRt/+vknkkmuU1w6oxjUZvMObMDsjZCGmwFFi+dj6uIl2LhhA5Y++wwKC4tQU10NgUCATz/+BPMWLqTKgJ2dPd1wU77+Aj0ycsGogJFsS4Ky/AZDPhqeW4qShkYMGTIUycnJqKgoRw9fXwokJcrrxXNnEDhgEPx7+tNIH5KzRMDno3uPHnTuOAr4sNr0M/gSJWZHu21yQMZlkNa7B/o8/zJ1j5D5QTKK7ti6BcvffZdye3T19oK5uTkIJmHu3Ln4bc1X6LKLABV1TG/27tZBOmyF/5xYELIemSgG9oSZOHHSMwzDkIypVIC/1/jCLksOeZMBl+N86NAhpVmqU0xNfSMeEQnoVBAC+wXO2Lx96x4SzkguErp1+vQp9O9PwuyklAqYmDmjIiPpHBo7IRwz3voKLWJlGB+dVW3+T/XpSCbF2teeRFlJEZ6c3R57QMBdhBkuZNBgDfHn386lPlwjoRDpp/xgY8OAI6/G4WhbLJ1ZiB/3GiKzdBomPz6XktCYKMGTpA5ZtzLh6OAAbx+fdl1K2nBw/z4MChveRqEsl6OxsQEfvv8eLIR5WDYvARm3zXC70BhhIXJIWhsgt/kOXr2eoGj00eMnssqV425REbIz0jFtxkw1Ha7qhqKiu9QHvXFnJKLi0hVfaxBIaXbHG3MmI8jHGd+tXYtZTz6Frl09aZn79h+Al6cnbGxtaIie6kpJuZm34t13QhMSEjqFFaFdFINup7DuUD3VRi7gwfarz+HVpy9+/vFHLFy0GO8ufwevvPYaVSKTb9ygG3dVZSWCQwfSsNKK4iJU/bAJbgUlVEnQxSUQ5+uBMreu6BfQH0ZGxrhzJw/GxiY0tLWooICCSQk3gn/v3tTSY09AvWZmlEjJxtZWYY27cgUOt26if3aRRhtUhEVyLge3vVzhtPgZmFvZID8/D0kJCbCytqKYH8LfQMoj7Xr/gw+wfctWPDV3DpLPnkHzqo9gSAiXdCkErPg8VVy/intB7V9/BDEIqnk0ZcoUd6lUHgvAqSPl4EGVBuV9P0VFRSzRcyI8IrtqJ2qmTgXh5ZdevrHsnXd6sdtJUjoTFP2wYWE0Y2Fqaiplc/Py8oKnfwBe/eJnmuemHXOiSlkA4GzCwbr3X6JhetoZ6chtm9Z9h4lTpynojFmnm7zcHPj7+9ONf9kzg7Hsw90w4HJwPeECxGIR6ov3wsf5ImpM98CzW4BG92SkpeJi9Fm88sZbdIFmXynXr+NIVCTmLl7arks/XR6OORNvo6j1bRib2MLM3Bo9+w1C8rUY+nd3/1Bs2/wLRowZ385NQjALTQ316N23n0a5BFS4Z88+OLp54qXPN9METmolQYdC5eVohw0rFiH20mUau0+AaSve+x82b9mKLs7OareD6iUVFRUtv3z/04hv1n1DFrf//NUuF4MKHc7mktBqpbYroNLMGH22bEYrw8HN5OsYPDQM33z9NWY8MYum13Z2dqTugHVrv6Ohh8GhA2h4aWN9Ha5v/QU9M2/BqLFVCRNRTBcZBzg/fBCyK2rpRs0h2ReFQhQXl1B3hYe7OyGxwvSZM7Fn9y6qxJE5QxIz2djYgEfwDqVlKCktRVdTQww5H8eyVii26noTAdJ7+uH/7F13XFTH2n526R0pCkgH6aiAgAI2RFS6vfdeEqMmGhNjN8ZEY4+9d7GgIiiKVBGkqVSR3osivcN+v5ldlmVZNffeJF9MmD/uNezuKXPmzLzzvk+xnDaLBiBVVVWIi41BxftyrFqzGulv0lFbVw8VVVXcvnkTy1csx5PAQEp1rC8rRfqSZZCtb2Jz8klGgF9mmQanHyihsD/7V+kg8A0jhru7J6E7fkGnr058EM4ry/MDfj0E3mNxPqtvEWKY+/v4ZHz2L2X3DfyreqBLgKCtra3y448/ZQ0bPqwLKnDP7j10QiS7YIIRICY33333HS75P8NF/1DOot7ef5xDt4N1WG3YtngcNHopUiEZCYnOhyfHPHX8GLwmTEL527eQlJKi9VrSIsND4UEDByGKQZCQlEJhQR6qK8rQUhOPvMxoxMYXQE5OBGZ2K2BgaEwV5gry82iZ4ujB/XBydsYoF9dOD3fV8mVwdnWFkbEpneRpHbmhHhFBN9BY5of6FiXY25tBTH4ghERVoKGtT8GSZBEi11JWWorwsFAMtGdnPPJysqHcqxeEhUVQlJ8LGw54kvekJMgigc4XP51EWU2zYDEpzg/IpH5l5yokJcThlrc33NzcUd/YgLDQUEyeMoViD3gbSWOfPHZ85c+7fz7wTxjF7SBFALqfQo53uV/OzPxeRxMmv+6hZTJ5BQX0kJfH+rVf44tVaxARHg6nkU6Uostqa0VmZhaqa2ph3rcvXVBJQFeQn4+6sGBohEdCtKkVTWJCyBvqAKbFAJiYmCAoMBCjXMbQYxERMWsbWwgxmVTC2czMHOlv3tDSFQHjkgWegG6dR4+Bz62bGOE0EpkZGWh5GgatiCgItbBQLy6CouGDIT3IHqpqvcFkMCk1Ny4mhiqWksBaTr4HCE7nWcQzGtAc3Pcrdu3eg/z8PJoTl5aURPaqNZApLqXdwtWE4AQF3L7iZze0l1TYS+K/xs1R0LsyduxYxZaWtngANEXHJ8PxwderU8KGG1jQjl7n63v3l3/Ce9l9D/+eHugSIOhraVneuu8XqaSoyLaL42kka5Cfl093rrm5eQh8/AhffLECk9fsRlZxWdde49kV95ASxdU93yLh5Qu4uozp8t14OnkCahrqeOB7DyNGjYGICGFWMpD06iVd4HkbmdQD7xMeeBsMTQYiMT4I2tJHUFdbhLjCFZg4YyWeBDyg6nUjRo9BauIrOI7sOAaZNA/u3QMXDy9cPX8eE6dPp+nagGuTMW1MOQJfeGDA0IU0yGhtroC0rCqGOXt1oTv63r0LKxtbemnv371FUWEhjM3MkRAf2yUgab9+Xz9/PI1Nhs/z9K7KinzAxQVeI6Ei3kAxIK5ubjQoW7xwIc5duMAFZLYflyxo+3bvObln368L/wlDWCCL4QM3JlA4iQW8s+0Lw6/XIysrkwJJySL+47at+G7jJjzw88P4iRPhfe0qZs2eTYF/TAYDfvf96IKgrt6bZoEI7uP8r1thKAZki0hB3cgMWVlZkJOVpc9DVlYOFRXvadBIAgEC3pWSlqa7e1I2I7gdBYUeaKhvQE1NNXr2UsX7d+8oLoZ8V0dXBwXJL6Hd2og0lihmf/UdWG1tiI+PQ2F+AUTFROHs7AxxCUmIiYnixnVvjJ0wAd7XrsHVzR07t23Blh0/QkhYiGYmlHoqI2fbJvQgQMX2xi+UREKJdpkEnkwCz3b5Xx0gkG5z9fBaymSxDvOCObqKJXXIeX/incu+d+8OwXTxoLj/CW9p9z38k3ugS4Dg5DTa4cyZk0FChGjPkQsmde+GhgZER8dg4EBbursik6G/vz8chozAuDU/sQ2ISOOvqXOCBEtdFXw5bQx6yMtRuhl/C/D3g7mFFQWPxUQ+g9MYF+5XUhIT4PgBmmFsZBBexxyBsakupJSGoaJaAi9fJmGUmwcNMOJjYkAwDMQzYvK06dxjPnrgj8bmZiS9fIWJ06bRrAQpZaQmJsDe3gLM1mSkJwaitkERQ93XQ0m5l8BxcN/XF5YDrLmfRUdGwHqgHaKehsNrvGCwYkTEMyrUM2ntr2gTEhFQlumgPloZ6WDjwnGIjHwGR0dH2vcVFRUoJih4E2N63traOkhJSdJ/nzlz9tb33337j0BNfxCD8CF1Q77ZmwQNuY5DYDx3HpISE2lmgFARSdI9IyMTSQmvsHjZcgQHPYGLmzvd1S9esoRalg8dOhQhoaFUu4DoJbwIPAi99By2ERLPdrKDUsnWSyCrbr6eFhynz+M+1+ALJ9E7O7/rWt2hY0R/2yQmjEx9HQxw+gJPw8IweIgDzExNER0TC1NTU8oYIgHN/Xv3KO123+5fYD1wIPR0dWnwQLJl2dmZ0O9jgJTDh6D9PK4DPyGoaC4AfEkvknz3Xya1LOjldnFxUWEyRSIZDGj9NxkE/mOyWIztvr4+P/yTF5Tue/tn9UCXAGHBgiXDNm3+4ZGQkJAwmfzIzpVQ6kKIrexgBxoYpKdnQF9fj6oqZr1rwm/eDzrvhOkkw6aJtU+mi1xtoSwjJlAYiaRdA/z9KSPg5vWrGO3iRhkIrW2tMDQ2xau4mA/uxgU9jsCHD5GQ+AqTp8/Cw/u+eBkfh+amRpj17YclK76g97R90w9oamqGlrY2DIxM0NfCAkcP7MN3mzZ/UpuB95w+N2/C1t6BBjWWNrYggc5oF1e8eZ0KZSVFmk3gb69fp1Hmx7RV25FRWs3BSvPR3DiBlqpSD1z++WuEBQfBwcEe+fn5UO/dG3Hx8ejbty/VQ8jJyYOWFhusePu2z/3ly5bwIic/2xH70RKDgAWPV165feHOmOgOfacxuHD2DObMW4DXqSmYOXM6Lpy/QEsOJCP26uULzJo7D08ePcTYCRNpOWfZihUIDQmheAQiocyoSoVNUCrEG1o+zolnAckjbLD6JJdKj/1zpsAgJK4DByAgkCFYgRppEcQMNwYk+8DG1obiFgYPGYI9v/yM2XPn4dzZM/D0Goujhw9hoL0DlTcneJfx48fjxs3bUOvdm97n/EWLkXD9IkweEcnzrjiDT8lUs3FE/+4SQ/tL4+7uNQlgXSEh0+8FJrb/VgA2oZzBYNnevXuXo7n+2b6a3Rf+L+mBLgHCkiUrhn2/YT0NEMjCTTwACJshIyMD5ubsxS4oOATGRkZUI2DnOX+k5hVyMIWdcpYdQUNbMy5vX4Hq6hrqLcDfCPKbUPlExcRw7Mhh/LL3AK5dvkTpYCTFSzAIhDr4e9UMScbgzMmTlOf+NDwcdbU19B6++XY9bAbZUQbGvt0/46G/P00RW1rbYOjQYcjPzcHKNV9TauXvaZUVFXj8KAB2g4fg2uXLGDdxEh7c90VWZgbmLVyMR36+WLayq01zSWkpCvIL8CgyAWf9n/Eg2HlEkzhBFnF4vLzraxTmpNOa94sXL2FlZYma6mo8DnxCpYOzs3Oo6BRpvr73fRctnO/+e67/7/6dj7EY2k2U6CTMp7LIe18ZXyyGYT9L+N+/j1FjxiA9LQ3jxo9DSHAInEaOwNXLV8AUEqZKhASfQCSTY55Hwc3TEyFPntAs0M3r3mgoeQGbYHaAwF10edL07UBAcl2pTrZYdaIjQDgwewoMQuM/bKDEWUlqJEUQ62gCMQVTCqK8eO4sXNw9cf3qFQwbPpxmOojeB8mEiAgJYeKkSQgLC4eFZX/cvesLdQ0NPA54CHdPLyRGhsPwxPkuANoOPAKbZcQrKkUvsH1G+JcKJXV9JzYz3d3jCV2LApg6Fn32vz6uqch3NAajDSzWznv37mz4u7973dfX3QOkB7qM77lzF9pt3bopWIgg7QC6ICkrK9GJhNjUNjU24c6dO5R3PXjYCMxY/yveV9d2Li3QI3Okg0ktV1YEp3Z+TQF+hCLJ3+gOv7UNtdU18Ll1Ayu+Wo3v1n6NfYeP0K9mpr9B3359ISPz++ygb3tfp/LPcbFx9NqHOTrRjISioiK+XPM1RYST9CxZfNtYpOZ8D+b9+qO3qipWrV1HZXB/T7ty4TylSJKAgrAhiAS1lKQ0Du7djQPHTiI+5jmcRjpDnkMXbT8m6ctTp85ATbsPvjl4pYP9IUg4icHAmunusDbqTcGNYaFhXPbC3bv3KOfe1NSECvSQdufO3etLlyya/Huu/+/+HV6hJP6FTdC18+6Myb/bRIWQs3IlBQaSpqOri/DQUCxYtABXr1ylAkOkTObh6YH7vvcpZoAEDIRGSES3KsrL4TxmDLIzM5H98gGsnyTTAKFEWgL59jZoEhaGfFEpFGsqIZ1dBElC8wWQ7MifQZgKw9A4+lmtqAhqtNVQLi2Hit49IdbYCM2n0VCqbQAJEF46m0NFfwgMDI0oBVdbR5fKKZPAYOrUqSgrLcMwx2EIfhIE+8GDcfHCBXZW4bfDcBg6jJbJZGTlaGbB8NARMNpYH814fDCb8O9mMXQaXq6uHsOZTMZDFiDCswXq9J12aiovmLa95MQ3ydYJCTFMfXx8+CRn/+5vY/f1/Rt7oEuAYGFhMeLO3bt+wsIioqRDgoKDwWpjYejQIbS8QJwbyU6bUPT6DbDD/M0H0cCZGD/UgTOdrDBu1GBqWETAWvxt1/atGD9lGvb98jP6WVhASFiYcskXLCV26kBOdhY0NdSh1lv9dz2jC6dP4f59X+jq9wGDxYJeHwM8DQuhOvkLliylE/61K5dQUVEJm4ED6Y6R4BHEhIWx69d9lMP+qUYmbCJW066DkJuTjS+WLMJ3GzYiMTEB+vp9YEF0I5qaYMrJvPAe87bPHejo6GHW5qNobtf+F6DxTiYeOzMDrJ3jAhERUQQ+DoSrmyvNptTW1sLb+wbmzJnNPfT5M+ePnDlycPvrvLzCT93D3/1zXi+G9mulA5Y/Y/CB3O9bBUkIfb0eyUmJtGz09u07SjkcMnQooqIiMXy4Iy5duICFixfh3Nmz1Dr5yePHVHo5Pi6OshsI1oPaa1emwjoohQYIseo9oTd/AUqLiiGrooKi4mJo1NdD7uIViLQByU42WM2bQZgzFQahcWgQYqJ+wVzkggEVVRW8z8mGmp4+cg4dhHnxOxogxDuZokFIg7JweiopoYeCIhVCqiwvxyB7eyqGNGXqFJw5fYY6SBLLZwtLC5ohKX//Hiq9VLimUOJ7f4FcVWPnx8zP2evIGLC/x/3vf58Xw4feh2HDhgnLyMieBBgdL9r/8PKwWHhYU1PpFRwc3PA/HKb7p9098Kf3QKcAQVNTs4eUhOT9Y6dOWevr6VGQYlxcHIoKi+iiRBoRR+qlogpREWG0ivfA2n3n6Q6lk/4Bj5WxMJOJk1u+QEVJLhwdh0OEjX3kNkJp9PPzo2qJFhYWNNWbmpJEU6sWllZ0MaCUrvBQTJk+43d1yLlTJ/DwwUMUFxdBWkqK6ioQS95+/fpRPQSiKXD10kXU1NZSDnxVdTX0dHTR0tqCvYcOU1T6pxphK1A8AEeamfTBeA8XDBvmSMshzyOfob+FFe2ngfb2XQ5X9vYtcrJz8P2R28gte9fJrIm/L6XEROH9y2qUlJUiLiYW7h7uXC+GmzduYtLkSfT4hCq6bcsW/4jwsPqUtDSSReBI9H3qbv6en3cqMfDU0snVdtY74DFUoh+y/ydXWR5CS5bR4JIwFAgGJSoykgaKSUmJsLa2xrNnERjp7IwrRIVw7lzs/vkXrP56Dc6fPYtxEybQFH5JUSFQ9Rq2Ia8hVtdM0/Z10sJI6GMIq7nzqEqieHklGHt+hZjAAIFdYqhhMiG5cQMapSXRBhbSzpyBYU4WJAndFaABQvQwI7Ak9GBgZAgzc3MEPnpEMwRnz5zGkqVLceXSZYyfNBFBgU8wwMYa8XHxMDQyQmxMNH1fiLOkkpIyaupqwTh0AKrlNZ/weuCTeW7vWybj36yD0OWF4Bg5JbAAff5dVftY/BRGgQfoWMdiMcb6+voE/D3fvO6r6u4Bdg90Guu62rqbf9i06YdXr14yv/7mG7ZccXExZRYYG7MR878dPoxBdvYwMNDHnaB4nLwT+GF5ZRYLCnIyuPjTaryIeY6xXh5d+p1MbJcvXKA6B3HPIzFl1lz8tn8vhgx3pFgBK2s21//K2dNY/e363/Xcjv92CK9fv4aCghKKCwugb2iIqsoKCjgjiwGp0yoq90REWBj6WVki6ulT9LeyQm52Nrbu/IkyDD7ViFlOXX0DFJXZzrAv42IR8MCfyjz3s7RC4ssXFItAMA5fr/tW4OGCQ0IR/aYUp+8G8hGt+QCLAK7uXI0XsZF0MXJzc6PUN5I6T0pOhrmZGT0+WQQjIiJaa6prCk4ePG6fXpDeAZ3/1A39DT8XRHPkTsa8+vcfUKopUpRGrqsnVn61EgEBAejX3wKPAgJgYGSEN2lp1HqZ6BSYmpkhJioKg4cOpaJDU6dPx+WLFzF3wXzc8/GhWgMB1/axMwj1bNGkGjERyP+4FTnllVBU7IG2/CII7zsAMRaLDVLslEHoCBDEvl8P4V7KSEvPgJ68DFq274I4J4NUIyWCF05mGOG5jO1VMmIEbnh70wDB59YtjHZ1wdOwcIqTePniBYxNTGl2hPz/i7hYmhkh/iWOIxxx4vgJmAf4QeF9PQ9YmJP05s9UcfqvU9DVXWLo8ka4uXkuYDBwgveDTwUHHyCPkIk3SVxc1NLb27vpb/jqdV9Sdw90DhBMlE2kxy6akLB8xTJtopBYWFCIQXaDKGOB1LklJdk17o3fb8DchQugr6uDHw5dQ2h8smDTIc4kpKWijMPr56MgLwdDhnSWUCbHe/WCgLeE2AY2JSUw798fWzd8j549e8J5jAtUe/emNdW46Oc0SCFueB9rBLy3ffNGuliS3xIdBEJnMzYzw4u4OIwbPx4x0TEQExejLAa6SKSxg4mCgjys+HIlBR1+qgWRVLSODpXXJUqNJNMR8TQcFhZWGOE8Ci9iYygrgwRGbp5eAg8XblDvegAAIABJREFUHv4UopIKmL2Jo2vEqxDIywJhMLBr5SwUZSahtbkJY1xcqC4/aUSdz8jIiPL7yfGcnEagvLy87dc9u72uXLly71P38Xf+vENJkaXb2cxIAHqGd5EjN8UZf61bvoWD53jqdmhm3peYWkFdU5OOhb79+1NXRLIDT01JoeC/mOfRsLUbhPCQELh6eOD2zRuYPmMmbp7aBusn7BIDafXCQmj+chka5OQhLSUJVkHxBwMEwmIwDIlHjRADJEBg9lSifhCyle8hdfwMRInXOAk6pETxcqQ5xs35DjeuX8MYVzf4+frShf/p06cYZGeH6KhIWA2wxvOoSBooEGly24HkPX1D/TlIYOHp5YXA8ycgf+gM9/F2qpHzZPgEGQ3QRa87g9Dl1ZgzZ47427fvfRkMth00afy4l/9Q0OtHcXHRjd7e3jz+4n/nN7L72v5tPcDdqrq4uAz4ZfeeoB49elCEHkldSsuwteUJep6k4cXFxLBty1Ys/2IF1HurYfKaPSh6X9nRZ7waCJxJeoChDua5WqN///4UJc7fQgIfw8DUHFER4RhgOwjxMdGorqpCaGgwzEzNaS2WUM/IhP/8WTjcPcd2+CYIeFr5ebm4ce0aFZkhComNDQ2QlJKEuLgYnkdGQkdPDx5jxyMmMhJpaa/Rq2dPiqHISEuFiqoaBbIt+3LlR8cBwSyUv6+gwEainvjsaTiKi4rof9fX19HySOTTcEpFe/LQH9NnzxF4vLi4eCohbTN5NRrbDXt4FjdeP4sFXk7ogSq6G+xvaQkZaWlIS0shOSkFfQwM8OjRI4wcOQIiwiJoY7Gwb+++67t3//xZgxXZJYZmIhvdoaT4Ae5+p8wCj7ww4+ctMB00BAmvXkFXTx/+/n5UFrl3bzUEBj6hWRjixlhfW0cDhWcREbBzcKAp+2GOIxD1LAIjRjoj+NZh2Ia+hnh9C1pEGMiRkkCZthas5i5ARWUF5Gvq0bZ7D8TaumYQaIDAKTHIbNmIKlERmp17ffYUZAuLoVNTB+EWFi0xxDmawNFrGR743ceQYcPx0N8P9oOHUJrrIPvBtPxGMmHEYpq+G16eePUqgbqeEkokCXYJ4yHq3i1I/3KIs4rxBVR8GQNBADv8i70YPvbye3l5ybe2sl61Kyx+7LuCAKDtwEXOg3kLloidr+/NN/+2haf7fj+PHuAGCDt27Jg2ecrUC5KSksz2yPj+fT8wmQwMGmSHK5cuUbGhnOxsjJ84AX30DTBy8Wa0tO9GungJsCl7M12GwlhVUmB5gZwnNDgIfYxMEBEaAls7e/x2YB+Wr1yFstIS7NuzmyrOzV+8GP0tB1D2QfKrF3D19IKUlJTAHr568QLCwti7KqJLEPjwAd0t2jkMhqysLPzv34OJmTmlCToMGUqDjZCgJygpLsbI0WNoRmPy1GkCgYXkhJkZ6UhJTqHUyDepKRTPQOq+RK9hxpy5uOdzCwOsbZCTlUVNpyIjwjF69BgqHc3fyMROxI7cl21DNleJUrAki4uDJdys+yAlNYUCIImC48TJk2ifEGQ7cQwkRkPt7eGDB9VbtmzumZ2d/dkCodoDBGr3TLMrHQtdO82xE2CRBlc8RmHknzs2wHzwCCQksAOE0NAQLJg/jy7QlZWVFPOirq5BwZ/GJsaIioyifelz+zZMTE2pe6KpeT+kPrvJDRBiNFUweOMWWr5qaG2jktsy6a/R+3EIhAkGgV8HYfYUGIbFo5nJQKGLM6o0tKCqpgpmczO09PXwdP236FtQBlJiiB5qiH4Ok5HwIh69VFWRl5NDF/zc3FyYmpggJzcHDg6DkZ6ezsb0cETMjp84RaW3iTkZsUaPvH0Vsvt4suHcMgyfoBnvoOTNh3fTHD80gxOfBmK8dPRTU/ynMAmcvcBjFqvN8969e3WfOl7359098Ff3ADdA+Omnn3dMmTrlO1FRSl6gjUj3Hj9+nO5Y+vU1x+u0N0hLTYWbhztU1HQwcyOP5D8bXt4FrPjLV3PQXF1MdzqC2qMHD2DStx9ioyJhPcgOVy+cw5SZsxEcGEgZD6mpKQjwv4858xbCYdhwmtK7c+M6Fi1dRtkO/M11pCPNCIiJisHFzQ0xUZGorauj91JWXIwBg+xAsgwk8FDq2ROyMjKUESArJ4+oyGdUaW/7jh8xc978LscODwlGSkoK3LzGofL9ewqcJOI1x06fQ0RYCEaOdkFQ4GM4jRqNjLQ0EDtpBUWCg8inf+saILyi2ZmlW35D+IuUj1hlA7am+ti0eAK8r19DTm4evDw94e19nVI/7eztYGdn1+nw6RmZmDNrRt/MzMyEv3pQ/VHn4wUpdqE5CsgkdHD6eQKJzetg5zkBjx+zSwzEZnnI0CHQ0tSgAQJZeDVJyeHFS5iZmSL+xUsYGfRBdk4u7O3tsG/fPlRWVqPlbQIGcGiODWLCeCYniRYhJlQaW2BYWw+RxlYuoCdlhE1nHQQilER0EDj4yUZxYaRKSqBUXAiiTW0YVFULsaZWNothpBmEZAyhpaWFuXPn4MmTJzT7FhMTAwcHB0RGRtL/j49/gQEDrGiA8PJVIv173379qJQ5EU56dPYY5A6doYFQl50sWwhJsC5De6DfjUH42DBmuLt7XAUYkz6GQfhQgNDuoNl+AhaL9YOv793tf9R7032c7h74o3qAGyBs27bj3Nx5c2d1EiNisRAWHk4NayZNnkwVCK9euUIXNWllLazZe5Z9HYKsnTnT4aVtX6HqfTGGDRsq8JqJWJFp334gcsqGJia4c+smxk+ago3r12Ljth9x/tQJikv4bf8+7D5wCErKPamhEglUmhsbKC1SQ1ML9XV1FCSYlZmJ/pZWCAsJpiyF/hYWFN3f1tqKEc6jEf08EmFBQRji6Ej/VlZSAilpGWoH7etzmwozlZaWwN7egdIUyQTwNCyU6ukTI6Z2qiURRMrLzYWuni49HwE8DncaidSUZEiIi0NLR5eWTUaMGo1H930xa/6CLvdPBI5aWltx+k4YbgdFfhjLwWLBVE8TZ3asxN49v0JFRYUyGQgN78L581i0uKsbZUVlJdxHObtk5OT4/1GD5a8+Dj+Locv5OeOOGzx0gZcDb5fPgdeSL0GyYWQspGdkoLaqkjI/SPaFMFGIFTOhM8rQkloLqquraB8Tca2tW7dTp8TDO77g6iDwXoegNHIXkCIRSgqL78omaI8YOF4ItVKieDWqL1Z8ux8nj5/E6q9XU0Gt1tYWNDQ0Qk1NlRpKEd2LpKRkWFj0pwHC2TNnISYpDW1tLQpSdHVzwf1De6BBICjcd5OXwshfcujKZOguMXx8tHPMnB4BsOAu9O1zIY941wfws/wHLxIWZo64ffs2xwP+r37Tus/X3QOCe4A7pW7ftv3q3PnzJ/ODbKJjYmA9YABlFIiJiSE4OJg9iTJkceiaH5/EMo8SIEWZA8Ent1Fb277mpgKvgPC3zfr1Q2pSErT19LF75w5s2LwV1y5fxGhXd+zZ9SO27PgJly+co7t+4myno6uHwcMcoaSsDO9LFzFh4kScJ5QxE1M88POl1EbCHy8uKqQLevCTQArsIp4LJAAJDHgIE1MzuHuNpZa/L2JjMWfhIuzf8wtWr/sW1y5egP3goZCQEEMfI2MUFBbCwMgYsc8jqc11WnIyjExM6DW8fVtGNRs0tbVpqjo+LpYGVPMWLcblMycxbe4CPLh3B3MXkqxk51ZZVYXIZ5FIKanHsRsPO7Iv7V+jmA52n2r0UoL33m8pi4RIBRPvC7I4kJ2ksbERF7TY/tO6+nqMchw+NiM72+dzHfwfBCl2XqE5oSj7j3T88ng1pAwbiLl7DyDgIZvFQMYiKWv98MMGlJaW0SCBYDlIsEXGNdlYv3v7Dr3Ve9PMGQnARo8Zg4uHN3QoKXZOxXeUNdgXgBRHW6w+cZ57lQfmTEWfMLZQUhc6MA+joFZSFPEjTDFnxQ7cvXMHc+bOwdu3b6nNN7kvIvpFfDiIYBkJFMhzJ+/k+vXfUz0PEtQQkOIIR0fc/GYVzOKS2Vp//GZMXNcIjhU073jrWNH+9WZNn3pvPD097draEARA9GPlBMFFwy5HTxEXF7Xy9vau/9R5uz/v7oG/qgc6Sgw//nR0+qyZi0lNnixcxKmOpOXTXqfR2mxaWho1WSJ/I2p+iYX1uBUcxWfOxOuLyoCClATuHFxPd99kd8PfiLhQVmY2neSqqqugqaWF/bt/hoWVNaVvLVy6HLHRUXSRJ1oIhNpHKJdk/r/lfR3bftqF4uQ05Kw7BKFWtm8EWTQJ1qC1rY0yGJoaG6jSobiJJnp+OQlMphCEhZgoOHwTlZGJXMAj+R2x5SUASfK75pZmqhYZoNqCbVfOIzU5CT43bmDh0mUIefKYuk1eOHsaEydPRXJiApRVVKh8s5PTSLxOScHmnbtw+vhRTJ42A3HRUfDwGsu1r27vBwKQO3XqNMSUtLHz9E0BapQd/akgI427h39A0JNAmvrOy8ujoj8kO/Lo0WO4urqghdLlWFQj4d27cox1cxmenp0d/FcNpj/6PLxCSeyFn0/vQNAJ22djDmChevI4eGzdgrt37tEUPAkQrl+9iv3799FsApEsJhLfBFxKpMCJ78irhAQMsLJCYmISdVskQldnDm3FYJU+EBdil7V4bEZ41InZf2/W1sKE+R0B4Y0TRyGcm9fpavn1iciHNc3NiHyXhYVfbKLmXOR9I74bCQkJlG1DnBxJpoyURIqLiim4krB9li9fTv0/yL9JacvV3Q331q+HyiOydvG0TkyPziUGLqaj4+tXxmS/mfZHP9N/2vE8PLxmsFis4wDYNC/6BnZ2eOQNED5CeyTZyj0DBliu3bx5c7fj4z9toHym98MNEA4cOLTO08vzJ7JQkkWH1O2rKqvocCf10OCgIAp+Ii06KgoP4nIRTCiOdLbkwR7w/Le+Wk+c3vEFtbnV0Oiqgnj5wnkMGjwEyxbMw6pv1lEWAdn1EyT284gI2NjZ04CkZ69eFFgYEhQINw8v+PvepTX9/bt/wSB9Y+jtegBJCHV+BLwzMAOQHt4Putd3ct5gFnIW7ETlHbaZzcfaj0pFsJo9EY2NDbQUMXyEE3795Wds/+lnbNnwHQVULpw7CwsXL8HT0FAsWr4Ct72vYfW673Dg192UyUD6j1BFVdXUupzq6PGTUNExwfqDF7nXxu1T7ozDgqSYKPyPbUFM1DNYWFpSpT+ioEeWpMePHsHO3h7l5e9pGpqUidLS3mDunFnaWVlZOZ+6x7/r59wMAgO63Gv82Awr4EZqJo2D25bNtI/09A1oKeHK5YvYt38fkaWG9QArJCen0AX43JkzVBr7xYt4ShV89eoVHZNkUb515Th27TtBA+c/qxHxrO/WLMG0uV/STFlDXT30++hT9cQhQ4bi3t071Ja6pKSEBglpb95g5MiRWPXVKkqJJHoMFeXvaQD58IcNUHoYxKuM2Al3wOvBQLu0EwOJhj/dAcLveNBEZVFaVu4gWFjMj+r4oIz1h4/bwGAIOd29e4swd7pbdw/8v/cAN0DYf+jQJHcXtyviEuKUxUBSmNHR0Rg/fhzdkRIFRSLcQmYcsvM/cT8aL94QOXFOfMwNkzsKwdbGutjzzZwPBgiH9+/FuMnTsGHtGkyeMYuKDRGgX0tzE80GZLx5g7iYaBQUFGDi5CmIi4vFl6vWwPvqZUybNQdnTx6HmrAEjH8NhCRDiNdJpfN68oEAoeJOWIfdCv+WkHM/m2SyMWDOJGry9PJFPGxtB1Ld+7HjxlM1RgkpKRrAELtgQnecNW8BQp88Rm8NLTx+6E+paqT8ICUpSTMk/I0ECH3MB2DFzuOCsRwclogQk4nHp7YjIT6WCvsEPQmigjikkZT4+4r3dAdM6tKkhQSHVE2dOlmBYE3/30fZf3kBHSUGwmIQcBCOYiI/w4H34dd5jsKoHTsR/vQp1DU0UVpSitOnTuK33w7j6NFjmDZ9Ou7duUP1Mc6ePQvzvv1Q9rYMBn0MKKDR2NQUuRlvEBsViJ17/4IAYfUiDHEaCwXlnpTBQHATr16+hIGhAcJCQzFv3jzcvnULLm6uuHXzFpWHXrp4McZPmgx5TtaPYBTCv1sLudBoTlcIYC58JCferYPwnw1YZ2dnKTEx8aMAQ6DU64diWnIWAbCZ92C1Ovn6+nJqUv/ZtXR/u7sH/sge4I7P1avX2S1fseSRhISEJDkBkVjOys7B+HFj6fnu+PjA2sYWIiLC1ANg1+XHeJ2Vz4NB4Ax3HhEW50H9sWHhuA8GCD9u3ojBjk5ISkigQcjpU8dx5YYP9u7aiTkLF9OFdqSLK0ICAymlLDYmBlNnzsTpkydw+sIl3Lx2FVaa+hBddpRmEBKlGtHy7QRaXigNjkGvymbov3oL2Vam4AzC3XAaVOQpMJGlJYNmU3WIa6hAPKME/b0TIcQCdvUqwZSdm1CYn0fT+hnp6ejVU5ka6EybMQtNzS1oqK9Dz16qyM7OhKKCIsUn+N69Qyf4gYPsYD1wECQlxAWKPB07fhIWg4Zg9vf7OtY1gt8Q8JTvH96InMw0GBoaUnMhN3e2qzNRayTGTZ6eHlzTphs3bjz88osVXakTf+To+ZOP9XuFkjoYDuSCOgPu6u2s4Hj4CKJjYmkGhwRTVy9fxo6dO0Bkqt3c3SmlkYhP+d67h5rSYmiZ9oWCggLCLp3F4GmzkRZwD8nlhdiy6zfI/g7DMEINJpm49kYEudq1Bj7WZW/fvcOWtUthpWuK3tZ2iLp9HUOmz0FhQQEqiwvQwBDGtGnT4HP7Fs1wPPD3x4SJE7Bu7TqaQSDaGARVoKOjgxdfLIdkcjrn/ewozfDvankzCVxmAzvw6s4g/Afj28PDoxeLxbwNsAb9Bz+jX+0aQDCeNDbWeQQEBNT+p8fq/n53D/yRPcBdh2z72qofPHk4Tl1DXZkU+d+kpyM6OgbTpk3lBghEopaY3hCjx82n7iIjr7gz6IqO9vbdCuA11AarZ7mhvqEBmhoaXa774L5fISffg4oZEQMlIvyy/KvVFKDo6uEJomkwZfpMHDl0gJYgfG5ch7XtIISHBuNlXBy1c57m7A7xL49DgiWENxKNqDXXhJC9CRoVpSEjJ4eWsw9hFlfWNUBYuBOVPuF0TgyYZYYBLs54FR+PntcjUSclCsvESmoAT0oMHj+swYUzpzDaxY3WpL3GTcCjgAeYMm0GBTaOmzCR8tIpJqC5GabmfXHs0H401LPBZfMWL4OUpAS0tLW79MGR347AfvgoTF77CweDwC0Us7/LA2K7uP0r1FSUQl9fjy5uEydOoJ+TgC0g4BHGjmUrNpIS0ZGDh9fs2r3r1z9ysPzVx2p3cwSL1SGUxHMR/H4MvGC89s9q9HXheOUikpJTICJK1DObcO3KZWzeugWXLl7GtOlTce7seRj06YOq6hrUep8Hw2Ucamur0ev8OaSMGgPNqBCkGKjBrFUG4iz2K9MJ6sB9TOw0VKWuFpb9sIV7pUc2/wCZnDyeHwnG9tYx2pDKrESfzLco7mcNg6AnqFi4hGJLJCKCIOLiRQXKnkU8w+Kli3Hp4iXMnDULG77/no5NsNqgpKgAFWUlvJq/CFJFJexr+Bh2g0cfga/U0B0g/IcDngQJbW2M2wwGaJDwMZrjJ6yiyRMjqOXx3foI/+FD6P76H9oD3ADBQENn8JJVX+6aMnUqHdwEQEd06cdPnEhPeP/+fSgpKUFZWRmSktLYcPQmMgtLaUDAnVjagwPOwjZpxCAsm+JMLaI1NLsGCLt37UIPhR4oKcjH3CXLaclg9vyFOH3sCOYtXorL589i+uy58L58kbo9EtAf2SmFhgRj6NBhOPbbISi0CsPLL5+NQWAADQwWclc5Q8xQC4UFeegRlAqjsJyPYhCefDkQ05cswbUL56F19im0ihvZQHgAP0hlwXLWeEQ/f45Dx05gzRfLsefgYfy0fQs2bf8R3pcvYcLU6Qjwu4+RY1zwNDQE1gMHIu31a+jq6lGqI5GunjZjJlVp5G9Hjx7F4OGjMeHrXZ2CgU7UUU5/ntq4HK0NFdDV1cWVy1cwfcZ0ejiSQSB1abJzJK2srKxuz0+/TAsPDc/MzP98dRA6ZRDacyrtpSBBKRbeWZkzO5dLicP68kXUtrZRJ1Iiv33j2hWs/34DTp04Qcc3UU0sK3sLVRkZiO47gDeerpCIiYZheh4d283iTEQONYRNyBuI1bPNmritffHl0RXo6sXAdnPkVXtkP9LON0F1EAbrYVBgKoRaAQYLSDU3QG0fA+g/DgbzmzUor6mhDJaRziNx7tw5LFu2DJs3bsJoV1eUFBVhAHEQff8OuV+ugmxjM9e4qj3QFEgJ5WF9cO+rWwfhv5poXV3H6TKYbVcZYFnzBwm8lEfyfrc/f0EsBzKsGGDtLywsWBsbG8t28+pu3T3wF/cAd4bqb9Y3isVC06XrVx1IepU0YnDj7OxM//0k8DEtFfQxNIKcvDzWH/ZGVgF7h9IpUuZOeixMHemABePZ4ka8Kn/t97j5+/WYOG0GfK5fxbylK3D5/Dk4OTtjy8YfsGnbdgr6GzxkKKKjn2OE00gEPg6g6oekJmtjOxAx0VHo0ciCxJcnuSDFIlmg54UNKKl4j4y011AOS4NRWO5HA4TAL20xffESRISHId7HD+MfFLMvkVNi2BVwD7/+tAPffL+RBikEZ3D5/BnMnDsfPje84TFuAgVOunp44ezJE7C0soSYmATV/CdOgISaRvwS9A0MujzeM2fOwGbQMEwgGQR6Tu7etHPAABaOfbcEzNY66OhoU1rnnPlsMaf6+gZUVLyHqqoq/e/goKDyI78daSjIzT2QmZu96y8eU3/Y6QSDFDuXEATKBPMMSiJqdFlTA9sOHqTGR2T83Lh+Hd+s/QYnT5ygjo5i4uJUHbM18RWMn4SiRloMknXNEOJ4JDTRAMEINiFp7AChPRjgGfjc6wADVCjp5AVuPxxoF0ri1W3gCw7I74kOAgkQ7J68BrOpjS4gzcJMNIqLQLKuCUmuoyBpYAQNTU3qjUI0RL5YuRI/btuGUa5uiI+Nwdjx4/HLqq8wtaAYIs2tnbMH3GCGzzKbXCl/wNUdIPzX45gtx9xGaElskBBP4w0S2KKfHYEC/1zKYrFaGAxcFRcXm99t6vRfP47uH/4PPUCnBX19fbGZM2ZWOAwZIp72Oo3lPMqZISEhgYBHj+E80okePjYmlhra2Ay0hbiYBL4/egP5bzk+DLzGQu0Xw2Bg6kh7zB/HZj4IChDOnDyB0W4euHH1MiZMmYbgx4+oTTKRmM1Mf0NtpUktV0pamkojE6OmqIgIeI2fQGmQDkOGIT/2JXp+fxWSLDaLoZ7RhrTFDpDu24dqFMg9ToRRaC6kHT/MYnjypS1mLF2K00ePot+FGPQsb4YQZ8bcJJuDXQ/vIO55FHT09RH0+BE1c7pz8wamzZqNowcPUM0DUmogzIr83FyKU1izbj1kZGWpZr58D2LoI4Xe6l2ZHGQXaGXjgAlrd3fM0byIch6GyKbZY6CuqswOEM6dpzx50hoaGqhZk4pKL6QkpxI5ZpazszNj1cqV5/38/ciXeKKO/2G0/MU/7QJS5M/Z8ux8BSLGOZ8nOFhg1u6D2PfrXrrTvul9HV9+9RW1TiYiSaZmplRJkXH6BHTfVdPVksUEyjXVIGFnByEtdUQnPIZlYCokG1pQJimGlqGDwRARhVBRAeryCqDw7j1kmlvphJ/qZNtZSXH2VBhwdBAqRYVRoagASU01tKr0RltDPcRDwqHQ0MQ2a3IygrXhMDRn5aIhIgIKBaU0k0AGR2pPOQjNmI2BAwfhdWoKEhMTqUgWycSR7FXs8+eYv3ABbqxcAvOETIHCTIIzCDy8zfYMDRPdds//w3j38PBQa2tjHGUw4MoCmIISXx/BifKemYCMj4mLi67z9vau+R8uqfun3T3wH/cADRB0dHT6Hjly7GXfvuaob2jEiePHMWvWLISEhlLgG2E0kDp3cNATuLq504Vs08k7yC+rYJ+Qf0HjXMakEQOxbMooWvcl9Xn+1h4geF+5jIlTp6GqshJ5uTkwMjGFv+89yMvJQkNbBz+s+wZr1n2HHVs2YsHCRaisqQH57dGTZ3Dx518xPayCBgihPeohMmkoGFLiyCgtgqunJ9I3H4NVUjVk+AMEgkEgNEcW8GiOORhKcqirq0eVTwg0h9rC7moihMHAFtkczNy9DblZWRAWFUVcTAw1fiouLKLlEYKhIGlrZSVl2A0eDHEJSRzcuwcr13xD6XFlZaWQ79EDMh8IEI4fOwa7oc6Y+M3PnF1cu9APN9LiZhU2zxoNNVUl6Orq4MKFi1RzgYj8kCCK6B4QfISwkBBd8Mgzunnz5qP9+/e5p6enN/7HI+Nv8IOPKil+iu7Io+4ZqyyHBb5+OLR/H5xGu+DWDW9MmTqN+miQ4Cov7TXq35dhYtIbMFuBFmEmYvubYtLmbWgDA3Gx0ciMPgvDJ6WQr21EtJE+XLdtRWhQEBRV1KDQQx4FIcFQu30PwsSsydEGq/kyCH1C4tAkLIS3M6ZCoa85FWXKTE3B2IkTcXv5CvTPysNbaXHkju4FrX5zqFNjU0M97m3agP4JaWC2sqhJ1C0jPUipakBdRxcMIQZGjBiJUydPYOSo0YiPfk6zSte9xqJ/VR2bj89v7UyeKw/ugLy7AoOr7gzC//wGTJw4UaihofE3gMEVxegS4wr20eI/N3lEIa2tTZ7+/v6Ee97dunvgL+kBGiDoaWmN9XsUeItIzZJG8AdEA76xsQkkaDj62xEKsCNoajIBtTQ1YesZX+S/reBMNpz8ZKf0ODB2mC1WzXSlYD2SFuVvZ0+dxChXd1y/dB6Tps+iIkhZmRmwsBqARw/8Kd9fWkYGT8PDoNBDgWbfExNeQlFRibIDzpw8Di1JWdiciqEBQoZkM0TnjqLCSE0oiUijAAAgAElEQVTp+ahNy4XWmwpIsYQ+mkEolGSh1VIXbVrKYMlKojWzEDoBaVyQ4oivFiEsJATjJ09GYX4BbAYNoh4PTqPGUElnYksdFfEUA2wHUjbGd1+vwo+796KutpaaThFBmw9lEAhI0cFxNCaRAKE92BJYZmBhy6wx6NVLAfp6etixfQc10hru6EiV9oisNMEgmJubcReFuNjY52vnfjMiuSz5s9x5tIMUGSweHQSeuKmNyUCphBhapSXY2Zeaeii0tnAtmdu/mqEsB+fLV3Hh7Flq+hUVGUHxNPp9DPC+vBzlz8JhGhQG4qZQrCCL1uHDYTDGldJ5iegWodxW5gdD7kYser6vo1bP5SJCyDM3Rf+p04i9NnrUN4D5636IsVjsEsOJjhLDfo5ZUw2TCenNP6BciLAcRJFy7ixUM7Kg3NwKsZZWFPWURu24QZDpZQN5OTlUVFZBXUMDGb53IRwaBpWKajCZwEuXUehhYk5LSoQC/Pr1a1haDaBGTR6enni5dBHU31Z3lA0YQK24KCqEhMCUlUJbczPE6hqhWNfAzk5wWmfQZzeL4Y+Ygd3d3SUB5ioA6wDICDqmIAyCgO+R2lpQSwvrC3//OxwBmj/iCruP0d0DH+4BOq/2M++32D/gYRd3sv379lNmATG2sbS0wsH9+7Dq629QVVmBny74I6e0sjMcm9eTAcBoe0t8v2AsrZELEkoiSoTDR47GOQJKXLYctTW1VPugr4UFiNcBwR8QemFhcRGKCgrg7jUOP6z7Gr8ePoqXcTEQFZeA8NsKiC47BglSFOCJU/hLqh8rMXC7hycP2F41ITTH3YF+uHT+LFzdPWmpo6amhiLGlXupIDwkCGPcPalJDvFxaG5qwvUrlyjYkny3pLgQ8j0U0UNeTmCJ4eixE7CyH4ZZ3+396DhlsVpxcNU0CDEBXR0dmuVZsnQppTveu3cX36xdS+mPvO11amri11+vcYiNjeXx5P58XocuSoo8NdtmIQayx7rBZclyaupFVkMi7hX7PAop925D61US5MprwGSxUNFDDNqHT8DPz4/qUhALZ2lpGRibmCA/Pw/lBw/ArKIW1WIiKJ42GX0G2CAwMBATJ00kWRgsX7ECD+7fhcydU5BPraYBWLWIEMQ2fIuyplb06CGP5pxciB86QgME/gxCh90zA2Lfr4dQL2VkZ+dCmdUK0b0HqUU0aWXmsmjxWooRTs44duwYPDw84Hv3Hhwc7JEaEgzNm3cg0dKKOCVZKM5fROm0KclJKCwoRN/+FoiPi4G9nR0a1n8NyapmtAkxUdZTHuWDbGHpMR5WVlYcSW4WcnPzcP+XH6H3MBRU+IS/dds9/6Evipubx3QGg3EGAOW/fpjh0KHSyTuHtX+fwUBRSwtG+fndSfxcS4d/aMd2H+xP7QE6Bo30DBY+Cgk+LkRWH57W0tICkgIndU6yMya7lYSEJGhq9MaBawFIK+Zku3hR0Dy7X1tzA/yyeuYHdRDIrrugqBhpSQmYvWgpLUUQNoCb11hqm0wCggB/PxgYGlJGw5dr1uLKxfNUgpkAGgkVMvz6TZgdCOGyGLjVdj7hI0FKihV3wnnq/pySLbl/nt/uVC7Gt1fP4F1ZGRVFkpaWRmF+PqVYSklJI/3NawywGYiMjHQYm5jSCbu5oYFaTdfWkAChGEGBj7Bi5VeQlycLWedGhJIM+9lg2fYjXR80r0JlawvuHvoeUc+egTyXoUOH0MmeiOYQlUbbgbZdkGbJSUkJixYtHJyZmflZBgjcEgOxe25/LpxeypURheykiVB1GEZBs2TsaGpqQFRElA6B/JxsFBGRLf8HkHuTBtndvyL8aQQG2dtTJVB5eXm0EVRuXS2Mzp2HaCPxYWCgTkwY2dKS6PXFl6htbIKenh7NSCW8jEd1+A1YRBWyvycijLbVK1EvJQlpSSk0tQcIpMTgZIPVPBmEAxyzJpJBEPv+WzB7KqGgoAjS1RWQPnoKohwwZKydGpSHToehkTEt6REjsda6WtQcPw7N+kaI02sE6sWF8Wb2bEhKy9CgmNh9G5ua0SC1r7kZWD9uR2O//tB2c4WmtQ3UevemfUL8JrKysqmWA3EYzX7gB9ade1Cqa2c7tA9BGrB00xz/4KnX1dVzMJPJOgIwBBrTfKhqxjslcYKGcgaDtamqqupocHBwyx98md2H6+4Bbg+wQYra2p637vn6kLQrr9ENKTWkpKRS9ziSZiU69cTuuLqyAtcCYxGf/fbDixqDAQN1FZzcuuyDAUJ05DNa4yUGM45OztSr4KHffYxycaW6A4QlcOncWUyZMQOnjh6lNX6iSCglI4s9P/2IXXv34+KBA5go3htiQh3CNJ2E8jnLpoiuGhSnurKvl+wqbweiPiVLwFDgeU0ZQFDbW/S0HQA1dXWEBwfB2cUVfnfv0FQ1CZrq6uugptabBgakNBIfE02FkcgusyAvl2Zg8rKy4OjkBFl5+S7nO3LsJNT0TPHt/vM8Wwcew6F2JUVWKx6f2Qm/e3cxavRoWjsnmhRFRUU0o9GnT58ux3769GnUtuXLRrwqKfksBVcEYhD4YOA1ksKIVNeAtpMz6lgsSqcl5mLExpv4irS2teJpeDjV7iBUVcsBA6i/iLSsDFKTk9GnvhZ9AsPYdXgw0CTKRKqnK4yGOCI48DFkZOWQn5dHHRUdLOQgfeYJJGua0SYuhheGeug3cxZqaqohXVVDSwyi5J0ZYcuHQWDTHEmAILnxe1SJiYDJYCLt7GmY5hRCuLER1TJiqJ87CiHRxRRTQhxK378vp+ydpIf+MAsIhHBzK7d8lOk5BokNzTAyMUZNdQ00tLSQlpICI2NjaGj0hrWNDT1Hc3MzBbAGh4SitLgYQo2NKA58CLuiUog2cEQ227eqnaGs3WZNf8JC4ew8tqeYWOsdgEFokEKCfBs+xOClUxePkzmLxTja0FCz/vHjx5/lBuBP6N7uQ/7BPUDHoq6urua+fQdyBlgPoAOwqakRYqJi1AeBABT79NGniGlTU1M6QUVGRsHv6SuEpxawL4d3p8sDilKWkcbNfWspT19LqysGITc7G9k52WhtaaUTMWEvHNm/FwuXrcCubVvw1dpvsXPrJkydORulJcU0SCFZhdrqauruuGzlKpw6uA/rN26GkJjYH9w17MMlPQ1DcX0jnbCJFLTDsGE4feIE9UF44HsfI0aNQnUVeT8ZtK5NnBwNjY2h18cAYUFP0J8TNHiO7WrWRBalY8eOQ1q1D3acutFZapmvX8WZLDw49SNio5/DwsICmZmZVA+BHMPf/wFcXMbQf5OgjiyMpF29ctX37l2fsZ/rLoOX5shXH+ejgALvxURRo6mGdyYmULWwogZgBgZ9aFaBtLNnz1OsgLGxMc0IEGEuYuSlHRKCXtnt4xioERdGWT8z5ElKYO76H/AsIgLm5uYICgpCX1NtpN4+gPc5Yhix7ltkZ2ahl7Y29cAoCnwMvYAnEBJUYuBgEJqYTGR7ukDN3gHKSkrISUmGUd++ePzD95AxY6C/1zd49jyB4kqyszLRt19/XPxpG1RrG6DyKgmSJIPAWSUKjPWQbTkAYhIS0NDQpAFjVnYWZGVlsOqrlXQlSUpORk5OLr3v9/GxUExKhkxxKVsfgUe3QeCL0w1S/FPmE3JQJycnOXFxyXUMJnMdWIQvI7jkQOM1Phok+7u8YQKiAOZiX9/bL/+0C+4+8L+2B7jB6rFjx1PcPTyMSE8UFZdAWUmRdkpGRiYMDQ2QkZFBdyOEzx8R8QyRiZnwjX7TESC0dyGP1LIQg4HgU1tRUloKUxNjgZ0c8PAhTY+mv06FgbEJ1RXwmjARJ4/+hqkzZsLn5k307d8fWto6iAgLoaBGUprQ1tGhE/2zJ49pQPFnBQgpz56ioLoGRqZmuHX9GmVbREY8BfFGILXsMW4eeFtaglYWYGbeFwmvXsLMzBxyPXrg5tXLGD9lKgIfPsSM2bO73D/Z+QcFhyCnsg2Hr/nzfc6ZBDj9KSchDN+jW6k9tJWVJWJiYqgoDmk3b/lg/Dgv6ppJpLDJ4kgW1I0/bNx06tSJrZ/r6GZnEJqJcU0nJUVBqPv2DAABLr6WlwTL0Qki6uqQU1Ck/fUmPQOvXryAipoa5OTk8TzqGcz1DSC6fx8UGtip+/byVIOoEIoXzIOhjS2l3RK/BlJqmzptOh7d2o2G54loUTKFuKQUypNfQf5tBYwbGiDcRNSNGOAXSto/eyoMQ9nS+s2iTKSIi6GypxKUTMxpNk68KhVi1pZwHvslLpy/gKXLl+HShYuwd3BAwqMAqF++ClEywHiyJyVSomCuXYcXr15hkJ09BRC/e1tGfTr69++H0LAwtNU34F1SIuTDw6FdywEkcoTN2PEnX6aKC+IB0E1z/NNfG3d390lgMPexWKACJh/LHPAGEfxZBzaunLG0tlb+fHDw2YY//cK7T/Cv6QHumNy378COcePHfUfS5mQXmpuXR61miSugiYkxDQ5OnjiJpcuWIjQkFM1MUey48JCzo+ET9+FiEli4tnMNKt+XYLCDvcBOvX/3LvpaWuF1chJM+/bDk8cBtNxw59ZN2JEJ8sUL9FRRgaaWNm5evYTZC5cg5lkE8gvyqba+ib4++hib/GkBQtrzSGS9fQcdfQM8CwuBtp4+fZGfhoUADCaVuI2OioSWjg5MzMzwMj4eVtY29F6vnjuDKbPn4t6tG1i0bHmX+8/Lz6cGS1cConHjcURXJcX2XzAY0FNVwJU93yIwMAi2tjZ4/OgxnDgaFVeuXsPECeORlJRMWSdk4s/NycXixQvNXr58mfS5jmaBZk2d5Oh4rHU5Czx7dwU0CzFRoyCHLFMT9B7G1qshGbC4+HgUFRbS8pAwgwHptGT0jo6DBKnDc96GUklRFEyYiJqmRvRQUKQuppGRkRTrISoqjJyo4xAJKIBWGQ85hGdT1yVAmNMRIPA/iwxVObQ6qsNw8FJKVa2rq0W/fhYIeHAfjY11EGthQff2XfSgu372MlIpI4bqkSNQotiL/qW1tQ3y8nIwMTGhCp4keK0IDYJmchpka2ohxAFB8pYPudfxIQh9dwbhr3htmB4eHn1YLBxkgTFSUIDAi0v4hG5CE4uFCEB4ka/vTc7O7a+4he5z/JN7gDsm1679bvjCRfP9pKSkxMkNJyYmQVVVBWVv38HIkK0A+Nvhw5g9Zw6SEhMhIiqBNUeIN4mg4IATD7NY2LtmLhori6megqD26OEDGJv1RWpSIg0QAgMeYrjTSPj63KZsBnExMbyIi6VBC/G7NzA2xdvSYspqIO6IRGGu8ZvDkCBujsRvlbPR4p6Ls3BIDTKD1qEN3IAmf/0+VD2K4lZHOmEaeaQI0ifZwnHFIgqSHO3qBn9fX0jLykGlV09a/5dXUETUs6cYPMwRGurqePPmDQZQgGINzXQMHeGE8KAnFEfB3xISEil2YNVPJxEcx1nHBfYnA+baKvjl6zl48yadUuRKiosweMgQekjvGzehqqKCgQNt6cLH/tuNqJVfrBj4OQ/ezlLL7aUs7jrJNUAiARG/jDEdgeTvDCBdWgzC02bAcew4BD55QpU49fT0oaSkiDFjRiEyKBg1N7whkZgM0ZY2xBkpoUZbBY1tcmgtr4Hr7HlIjosGMyMdGi4eiLl1Ddq9CyERUYteJbVgtLEV8drP2TWDMAWGYfEdazL5rhADxb1lUG8rgbwSTVh7TULmjSsQGzAQOgaG8Lt4FsKyDIiJsCCX/hb9MwpRLyqMRmtL9J4xE1Y2trh69TqqaqqR/uYNDAwMMMjODqE3vaHo9wDqtRzpC/5Vh5uY4tFIYOeyucZONFDqDhD+slfHw8NDppWFrUwwZrJYLEVeCWYeYlWX6/lAwFDCYmE9i9Xic//+/fd/2U10n+gf2QPc6cPe3l5m9dffJA4aOFCTLPrEdOjggYNwdXODkRGbPke0EYgPPdmxyElLYerGI2DwggN5pUM5E+YCLyfoKopirJe7wA68feM6emtoU0lioiPwOOAh7AcPgZ/vXVqDlZKSoqBAosNgaGxCWQ1rv98AMVE2Wj3xURBqp+3iSi1/6CkJpDly3BzZMzvnl7xALQaQsXw4xm7+hgYoTCYTGelvcOH0aSxcthx5uXkIDQ5CTnYmVYKsIzr5AA0QiLDS+/fvUP7uHbXsNTEz73Jpr14l0OzM2C9/RHo+n/EVT6mG/NDORAuzXewoYv/Ib79RZkm7tDKRa7bo35+eh7SqqirWtavXPTdt2nDvcx61XaSWO7FlOgKFTvcoaAEEUDl1EvrPng0fHx+UlBRTA6Tly5dBTk6O/pxoViSFheJF0FUMc9FAQAwLilVt0AyORNKQQZBPSoR2aSXyNFWgWPIOrcJAjZMymrJqoPWqEiKkBMBpXYSSOCyG9s8bhRjItZKHSC9J9AgsRQtTGNXKPaCeU4TX6spoIGP9eTxynexRI1aO4XZ9EHw/F8PHT4eehQWI4SoZrmVv32L//gMUc6KooECBsOkXL6CX/6POj53XL4XGAp3lqvnHCLtc081i+IvfHZJNsGSBcY7Fgkn7lMSf4OEtr9GglEGFv2lrxyYw2BbvSUJCjNU+Pj5PuumQf/GT/AedjhsgmJiYiPbvbzln85bNxwiVjwy3wsIivHjxAi4uLvSWs7NzqIywiakJNDXU4Tx3Heoh2ql+y15sufle2PU1xJRhZhg0aCClCPK3i+fP04UtOysLltbWNAAYaOeA6GcR6KWmSoORuJjnWLx0ORQUFcEiC7WQEAWZVVVVIj82AYrrL1OhpDYGC4VCzfRFISZOkiwmWzcf+KhQEvvlAt4KNaFJmAmJZhZ6tInQXwa4asB51VIqSqSlo0vvobWlhV7D2ZMnKUqeoMQHWNsgLe011DU06W6OgAiJEM+p40ex82eOzwLfzZN0t5mpKeymfUMpdV3AnjxBwvjB5jBUkYHVAGt8u24tjh47RnfIhA63Y9t2bNyymWZbSEt/8ybtxInjg2NjYyuSk5ObPtfx+sEAga/M0KV4K2BrVeE0BLoLl+DakYOQj38JpoMDZA2N0a9fP+jp6dK+fPLoLvJTH6K8Tg7iTUKwePIUEk2taGMCjFY2y4GNVWCfgAAa31vJoEpKDKoFtWBkNUCusQWpw6070RyJUFKfp/GoEBcFS1cMpb2lIVVRD6X4mg7gIc9WkcDWSFaiWlwYLx0Ho5VZAjk5WRhZeWLoUEcavKelpVGwcPObNDBiolBkZgbX6XPw9tQxKD5/yXOdPJmX9mvnxRpwZoAuuI5uHYT/l9eGrb7YRISVFrPA0v+E6yNfbMwZox1/JfxVgn4+pqqqGnH8+PFu06f/l6f6+Z6UGyDoamp/izbmzZ17fro6eMgQS/ZGg4WXL1+if//+9A6rqqpw+tQpTJk6Fb3V1DB37U/IfFfHt7C1Q3LZM56OWi/8unoGBWNZW7NBdbwtNjoaahqaiAwPhfUge6qDQJQKKysqEfM8CjXVlZAQl8CSFV9AUkqK/vTyhfPQ0dWDam91vM/MRdXkregBEYQoN8Hl+gEK1IuLjELykzDY+mdBuU1EYIBAdRAYwAtFFlpmDYeJjRVExcVR+jIVvbbchFAbsM+0ERvPnaaMjsCHD2A/eDBMzdnZAELJfPY0HPp9+kBCSgapKcnoZ2kFdbXeyMx4g0GDhyIu+jlc3QVnTyKeRUJaVgmT1/O5Mrfv+No7isHACq8hEGmro6WN4uJiuHOOSWinxOeCKP6RRjId27dt3/LI37+VxWI8y8zNfPy5Ds8uNEeuEBfnjngXN56+av8n76JXpiiL18OHwfrufYg1tqJFiIE09Z4Q9hoPCAmjmmgSND1Heb0ytA2sYGpqgad7foZRXBJbbZB/183Z2pHFvKSXNN66DIKaaAYaKysQn68O25GekJSUogFcfKAP+mrkQ0hGAfl1+lB/EA7FslqgjU8KuT3VDwa9vgxHe4xcuRoR4YEozIyi4k4sKQOIi0ui9l0Z5Pz9oV5STpkTDeLCeDp8KCzCI6BQVd9JbYfbD/xmTbzmUbzBDwUvkgxC2rTPdex85tfNGDNmjIywsOh6AN+2b2A+UC36oOgSTx80AqwYFqttua+vbzfb4TMfHH/l5XPH3JhRo46PdB41o6S0NGvU6NEmhK1AWnJyCi0xkB3W+/cVOHbkCNw9PaGvr4fjV+7B5xlH9ZM3Jc6jqKgkL4OLP61B3PNIjB3r2eXe0lJTUFpaRmvqFta2lMVAbJFra2sQERaGYcOHU8og4a9nZWRQLwQJaWlaksjNyUFadCzmvmhBrzZRZEi2AGbaeG+liUopIcqKeHfQG/3jyz+aQQhcbAnjQbbU7EbN+zlk1VWh96KUBkibjGvQQ10Nw52cISomRs192lpbYD9kKERFRODne48GTlmZWVTPwXPceNTX1UJeTh42dvZITnhJdR0ENcJgSM6rxCFv/86S1bxf5vTl4dXTkJOVgerqKowaNYry+iWlJCmVzdSEZiTR2NiI69euNzQ1/R97XwEd5dF+f2ctbhAnCfEEC1GCBQ0apRBcKlAvbak7bakL9ZZipRQoBEl2I7g7SSCQQBJCFOLusrvzPzO7m2wE+frJv/THHM4hu/vKzLzzzjzzPPe5t+VqWWmZd4JMGnwjP//I/3JA/Sfv1ZUoSe0W6LYLVrvDbw/wVKcntIiEaB7XB41luhC2EpjmFXHioUo9Ca6PGAozBzmUwj6obzPGkEEe0Dc0hJ6hNcrSUtG0czes8otUTdM2UgjQJhSgbsl8eM+YyYW6aqpL4GDRgqKbGbC0HoCSojSYW7mjttUCIokBT7M8ve5X9Nkp5boNHUXL4Cgf4AazeXNg4eKM2qpytDbX4FJqOkwk5VBSgurMBgy+kA6jNjmadMWocbCBQL8ZOn3MYHj8BiRy5mHWeDu0w2e9hBZ6M7pUhsoDoqT/5GD+i9cKmTFjgFBBn6BUOQcg1r1d5nY40+7HUqCFgB6kFH8qFO2yB7oOf/Gh/B86rcNAWLFixbfPPrd8OWPnO3/+PG7dKkJkZATfAWVkZPJd6ocrV2LW7NnIzc3ByFGjkFNSja+27u/qQejWeRKxCBs/fB63cjIQEjKdx/G1C9Np2Lh+HawsLTHUfxhOHTsKaxsb5OcxgagmzFuwAFbW1ti2eROMTfvAxz+Aqz8OHDSY6zZMnDAJ+QveQ99cFR6niShQ/GYE2qyM0VBXB8O9qRhwqvDOcs/PBWLBk0/ij43rYb/pNDwqlHwdyBc2o+27JzB4qDc+/2gVZs2dx9nqmIqjbPduzJk/H33NzfHjd99CItFBaVkpAvwDkH3jBmysreDtF4DqyvKOrIYu7W5pQXJyMr784yAyGP5AGyXJDlSnoPFlUd6GPz9Zjtr6Bhw6eACTp0xFQlwcnn72GVUow9UV+fn52Lt3L+bOncvj6hcuJOGl5c+OyM7LO3u/jmeNFgMode5w72sa02X3yzus9zwx9XGlumJUTHJGWjmFqbEYXkZ6qDmTgxbPfihQEhgY6IFSOeaEDIBIoER62ilQ42CMmTyXy3Xv+vRDBKSkQ8JTGTtlequd7TDwq9VIT0/noNGkCxcwYcIEzp8wfsJ4xMXFIygoCKdOnYLX0KH83XJxckT+iy/AqKSqi2eiSU+MK+NHY9GK1yAUCXFc9ikUSgFG+tjjZmkjEo9mg0KCxqZ2OMgboZ9TBstgTxy9UQqFnGKAhTls9qWgT1unJ7ln6IAv/nx89fAsaKc9PgAp/q1em8mTJxvo6up+RCl5lhMsqfkRukGm1DbsbUS6tFtESDsoXenn5/P5ypUrmUWpfam/VdsfVOb/Xw90GAjvv//hysVLFr/HcuhZqaqswuUrl/nfAoEQt27d5ECo2to6pCQnY3RQEFwHeuHZT9dzkRv1yOyqzaBu1xuPPARfN1vY2dlyitvu5Zuvv+IZAGxBZeyKZWWlXCZ58tRpnBnO3MKCswWmXU7FoQMHOOAvL+cG5ixYxLMFjj36JgIyGnktivUp+m56HSV11dzLYLgvFQNOFN7Zg8Dknp94EocPHkDmjnhEnmIaE8AJg0YYvfcwJk2dxnfujP+AsdyZmZnB1sYWg728OBaBaUoIBCLO1ZCZeZUbNiwEM9QvAPK2Vt6G7oWRG7m4eWL2a1+jtV3eVVFPW9OCENjoAT9/+AKn5/1twwaMGTeWgx+HDx+Oisoq3l9Mn2HwEFWKIyupqZfx1JOPD8jLy8v4/ze8/r07d3oQKAMJdFysl3h5JwJfbSt0H49Ml0ApBi74ucHVxxYDPU3g7miAuoZWCIViXM+rhbGRLjJyGnA9swk2Q0bD3MISPj7evE8ZvfXlgwdQ8vtm2BWVQqigUIoIbsyLgn9IOJLOn0fwpElISroAP39/lNy6haE+3py3wsXVFSeOH8foMWNU2gpjxuB09J8YEBMPgZLylMybLg5wWboMXkFj+DhmOAPGdcHfhdRjcBvSB4PdjVBW0YiBrqY87djYUAfXbjQg7WoN8i/eQkBqDoTttIsAU48ncKe8Oe0wygMD4d8bvP+ls8PCwpwAIXPFzgeoH2es0Cp3SYXsUiv1sWxndRggiWKxIGH37t3F/6WqP7jsfdgDHbPu6tXfLg2PCF+rp6fX2QxK+c6IkbcwaePXXnuNm5m/bfwNLa0tWLBwERa9/QPqm1mIS5Mm1TPtMch7AN5eNgM6ujrcU9C9fPLBSri6e3LvQH5uDickGjR0KMxMzfguXeN1uJiUhOraWp72aG1ljYsXU3Dh/FlETZyGET+f5ROrggDpiwNgHDgYtTU10ItLguepQhhN8Ibzjk86DJn8pWq5ZwIcfm445ixdij/Wr0PQbxchqmuBmBJcXeCHKzotyLx2FSODxiAjPR3Pv/Iaks6exoLFSyCWSPj1mKzzt6u/xtjxEzjbIqujm4sLNxDaWpowaIhX1xeTAht+24RBPleYVRsAACAASURBVIFY+v4PnElSewHkxrxWNy6c6I3Q8SPw66+/YnpICHx9fXHmzBnExSfA0cEBy5Yt7cEsePLkKbryvXeMr169P5UcWYf1ZiB0pBPejQmQXaBbOICrP5rpI0sixrjHBsDQWAciIcX+bTmwsDXAhbxWDKiqhmNpPZJ8h8B5XDAsbWwwePAgnlrKHgozFI98/jH6n05Bdh8juL/3ITdeGVkW82plZmZw7QN9XR24ubsj7coVTieemZEB/4AApCQnwcnJhXsIbq58B3YNLbg5bSJCV7zKU1TZGG5ta+NkZM11dciR7UFgZi6u9e+LbCND+FoLUVXbjvEP9YeujgiFhQ24sDkTnq1t6FPXAqJQ3lbiuVf5Z60VpUvf8iyGBxiEv+ucvnLlSkFS0qXxhChXAsSbUmpACCG9kCjdVRhKq41yELKHKuWr9fT0rpaXlzferyysf9fndr/Vq8NAeOWV16c+/sSyWAMDA9WqpzXB3rx5k7uwR40axXcuDAiXkJAIX++heOOHP1FSp8m5VhMIaM5Xu811xGLErH4VZaXFGDaMUZB3LU899ghXoxs/aQoXxWEeikGDBqOfrQ3GT5rccfCxI4c5W2BhQT7cPDzB8AuM2piJN51e/iFqbhRgwDPz0WKmjxp5C5dZLn5zDXxvyW8fYiDAgTBHDJkVgtraWpTEHoG9uxvK1sZiaPTnMLexwcH9e7mR8NDsuYiP2QNvPz+MGDESDo6OHXXbtWM7Th4/joDA4Th14jgmTpqEdoUCzo5OCBjelY6AUd+mX72G6yUN+OL32K7GldZOmdOsQokfXn0E5UUFXDK7P5PNJoQvSuvXrcPTzzzDmRO7l63btl1/ecWLKgKL+7RomBQJISqxpm6elV6bpZ3Tr3UA40M46mYBha0++vc35tTEGXltGOusB4s/VU6WLtLHBCiyscTNQH84eQdwqvD+/fvz45hBmHn6BNd46OflAwNDA9Q3NPDv9fQNOE6FAWUZ18K1q1chkkg4fkZDgc3UH1laZWnaZYyZMhUe/gEdxubVq1d5eK8k+Txszl6AdUV1h/GnIYFiz7/6kUFITG2At7sYlOiisrQe4rxGjLhR0ZORTwNO1B5b3Tuv+9bzQRbDffHWPP744+KioqKBAoFonJJiDgEdpmLZuHPRTgTSPlb9PWP2yANIOiH0qFAo3L9nzx5G1PIgDHFfjIr/XCU7xobfkCGeP63fcMbe3r5HDIBpKVRUVHJe+8ysLHgwYSBCeAw94XgKjly9jSaDFunP5y8sQW1xDhYsmNdjh/PLjz/wxc/Z1R2/b1gHL6+hPCPg/Y/VO36t9jKxIjsHR8hi92DWnLnYtf1PLHzkMTQUl+LM4jcgD/aGUCRC7eEkmFc0w6dNJcF+J7nneiLHFf1WNA2wgU3gUOScSYZt2HhMjZqF6spK3Cws4Ds+HV09NDc28rRMi26eEOZi/mPTRm7oHDt8GPOXPMzlnXUkYri5d5VhZpgOW1sbvPr17ziWnK4VltHKAFEvhoYSIXZ8/TrP6GCyv6WlpbCwsOBplyqK5Rnq3umc4ZkR98mqj1b/8usvK/5zQ+V/f6VYJycrHUhOKKnSTRM66XU71A2l1T0EwT7X9NWF4TJPlFfp4EZhIYhIF7Z9mmFR2gqjvWwR7jRAuuSas3CN3xBYTJqCPlbWGODpoZZMBsd/ZKRewqNPPcUyR7BixYtYt24DGurrYGVjy+WkL128yOXRGah0yZLF+P777/H++yvx/TerMWHyVG5MsMIM34sXL0LR2IiSndsxJCtP1eG9+YwpIJ/dB5flQrTIjSAm9bA2M0YfU0MoNmbCqLZZZfB0T2fsHl7QkCNp85d03JNumpZ7/eH//VN/cMd/pwfCw8N9lEryNCEYD4CBGlWpX1qlS5awltaDxvvQRetBI25LaQ6APYQIZUIhzReLxdXR0dH1LHHq36nvg3P/3j3QaSD4+YknTAg+9eKKF/kWn8nnsni7Kte+iZOyOPZ3wMWLl2Bn148vUmxCIxBixU+71CCxbh4E1SzFe2BiwBDMD/bh5zrYqwR0NGXD2l8xeux4FBfd4mBEL29fGBroYfGjS3v03ivLn4SdvS0uXYjBR9/EIyfnBuqYS9/dAzu/+AYB0ixYylVsgtrltgaCNjiQAIxFYd+ovhiwMALDRozCB++8idfeeQ9NDTXYvPYT2DkPw+Qp0+AxoKti67X0NO5OZlLCRiYmiJjxEN8VMpCmi2tXpcXzF5Lg7OKCKU+8jybGf9CFAEgrVEMIXG364OuXH0b2jRzOsX8lLQ0DBwzgu9HtO3ZizuxZvJlsR8wApuxaN2/dav11zS/j1q1bd98CFFmbZO7u5sJ2HCdAB4ijq2hTF2m7btoCahpm9fi7aa0PamME0c1G1E8xQUMzxYuzSrH3Gz3onVNRJvem8cC+Z6GJCkMD3Bo/Bk4jRnF8Sb9+thwI6u/ni5bWVuTm5GDChPGIjZVy4axYaRynAq8oK0Nw8ETs27sXM2fNglQq5aEGljbLlFKHDvVCdnY2qmtqkLNvL/qdPo++Tc29ivSoIk8qAFrrRBOEPFGPb3dbg8oJLA9Xo9HFAgb5NbAsU4n7dYYMVO9hJyhRvQSo0hl7ghZV5/48Pe/603/v6etB7W7TA2TGjBl95HK5G6VkDCEkigK+RI1X6O49uBMsRT06tL1SzCCoAGgxCLlJQbfFSaVb/p0nMW3aNAuxWPwIpQhk/PWE0GI5palQiPcmJOzOj4qK0mtpaQlTEiIRQgC5nF5PSIg91/2eISERwQC1BgTX4uNjkjW/R0REDKSU+CqYLaPo+pv2MXJKfJnMnVIpPPdX6arDwsI8AUEEIRhCKZigUS2l9LpQSOJiY3vWmd0/NDR0hEAgcmGcPxCyfwLO/yMQCOsJUWT4+vpeX7ly5T0bYiEhDzkLhfKRqrYJIBIJju7evftm9/4KCwsLpZSEEwGxBSXsmeZQqjiuUCjOJCYm8rBAF0+Uq6PjlC07dsrs7e24djILK1hbW3OAVmlpGZydnXh8dNfOnZg3bx5yc3O5/nzw4ldQJ9egyHsPMzhYm/N0R6ZbMH361C513bhuLaaGhmHDml9gZGSMi8lJeOm11zDYa2iX4y6c3o/k/UtQU6dEbZMjgmd9xBkVL19K4RTM19LSYFrfBpvNp2BZ3VWA544Ggvou9YYinAq0gOvMKXzSZuCyhrpa+A8fhUTpdlTkboGjbTUEBtMw74kfuQKlprBsjDU//Yhr164iPGIGRBIdfj6oUvW/urDwzN69+1HdJsaqDbu6UlVrDtJSxwwJcMeIQf058I3FqPft3YfpISriqk2/b8aSxYtQWVnJjQMDA33+SA8fOnLh3XffmpSTk3Nfy8AecHY2aVMKjwkI6RwIHbObVsrePbjQ2SIPAeEL7CEfG7gOkmC8RybSvjaFuKoVIkp52mEPA0RrBLZKhLji4QLD0WNg4+jIGQ1ZBsmBA/sREcF4D/Rw7MhRhIaFIikpGQcPHkJYaAgnFtuxI5qzkrLwEtMyGTV6FM8OYt65ysIC1O3bB99bRRxkqJqU1Uj0brM5S6tki32TlQ4CXqrE3stDkHOpCRMvF4EKBZzQiQEfVRfp7CONsaD9QmlTVPeY4Ck+nZaXxfLwH5T7vwfI9Okz3IRCZTilmEIIWGzUFgCbMO5aesM1aJ20SyaLVe1S/kIJDY2YQQjWUqAPAWrY3hQAI3VhYLhWgQButbVm5UZG1XsATFW9DjSFEIyTSqXMg8ELw2QkJ1/MAtBfSejkeKm0I707NDTyM0Loq6r3CocU8rYQzQKoPp2EhUVsoAD3mBHgdZks9rN/pTnTp0+3FgjFHxNgCQVX6GwhIKw9hhTUkL3QRCA4SKB8TiqVZmpfOyws4k0AH2l/18WLScCATK83NNTuvxdMSGhoqC8hwg4DSanEmPj42BOa60dERNgrlGQdAWXxe5byVAmAxanZgsaQLI9IpdJN6r7o0g1k3br10dOmT5/JJg+2mDEmRXc3d5SUlcLV2ZlPTtE7dmDqtGl8snNycsQH3/2Ow5eZB4pNsL2rxDFlx/XvPwtFcy38fH26xM1ZmIAJNn316cdcHMfJ0RGzFyyAqalZR+Wyr2dg59oZEKMKesY+mPvEBlw4n8I5CCJmzkJhfj4srKwgb29HS1klzr70GRwvFEHEgs93CDGwwc8OybKTYOjqV9HPzwuEUSpnZaGfvT0MDA2xad1azIiKwuXzMqQcXQkD/RbAMAKPPf8jdHU7QZ1nT51EvEyGvhaWnBqauY/tHey5VLSmpFy8xNv+6nfbkVNU1nUM9hJj/+LJSFRVlGHS5Ek4ceIEdHV0EaDGcazfsBFBo0fDyMgQ1tY23FnDnslLK16ctW/fPubWua+LzNZWXygxOEwICdQ0RKPa2KEdoH7rOxNpuqZ49Zbmd8HKAF7BhlDIKiBqoSiOCoXB5aswv5LdYTJ33EftYdJMkkrWx+ZmSPXxwoSHojgV+LGjRzFv3lwolQzUm4ZRI0fyjfnyp5/Gdz/9xKt+6OAhBA5nzSDYtnUbgsaO4emTJ3dsh19aOkxrG3olY+oOLKyYMAw1RkZwjD+MNgMhDBb6Inl7Bnwr6jojxFppmF37TfPKd+ND6KbwyNouIOTlqblZX93XA+hB5Xv0wLhx40TGxsZ9FQphH6FQMUypJBEAHUcI6ZxsbxPZ6jKWOj1Sf9lACA2dMYIQ5X42PQPYSAj9TCAQtFJK9ZVKMPdxuJ+fjzvbPYeGzhhNiFKzyLUSQidKpVKm9MpLaGjkZELoXsZfV19fG6a9kIaHh++ilDykPrRGoZAMSEiILtGcO23aNB2RSJIGQL2TI+tlspie7uvbjCeWgirR0T0OEB/1NjmJEPqUXC4qF4nkJpSSLyilk1UhP3JdLm/11+agCAuLjAQoM4B4oZQuFAgE1pRSltLqqN4j1BNCQ6VS6fG7DetFixYZ1NTUVgCE6yopFDQgIUGapDkvLCxiJ4CHAJoNiBYLhcoSpVIpolTgC9CVhNBlmr7tgWV5etnTIx9/9snDlpaWHPlWX1+PxMREvlNi6HlWkpOSeUYC+47tlNqFeli1Ucr2PJ07Yo3rXms3PGmYF56bOwkmpiawtLDoaGd5aSn2JiaiMD8XoeER8PJR3UdTbuVfRdzv86AjLILIwAfjZ/yCfg4q3NrtCgOMrX9jJfpnVEJ07RZsRgyB93Y15TGlSFv6AUoOnkO1uR5agjwx6ZWnYd2v3936HicObEHGufcgEdbD2uM5jA99hXMgaAq777bNv7PcUB6meXTpMk6wpHpQCuyI3oXBPgF4+O1v0dSiBe7sHB0d1zISKbDj6zdRWl7OPTlvvfEmVn38ETcw2LW/Wf0NJk+ZwkMPrDBPT8yePdHLlz83+64NuQ8O2AEIjRzd94NAJcfYSxig60Lekwiot5DEzb76aBxsBpdTxSgZ7Iapn72Bs6cuAJ+tgWGrvEfcX5svgA1xpZAgbf5sePgNQ1FxMSrLyzFp8mQ0t7SgoryMM4+ydOAvP/8Mb7z1FmcAZemOLKwkEgqxb98+zu3BnunlY4fguycOAuZAvA3AUtP2SmNdWH/0KhdRO/f6xzDPL0LBRE8Yns2HVU2j1rvXVbxKwyHRWwil17AKn5GUi6blZv9xHwyTB1X8N3uAGQ1mZmaebW00kBB4A9SZZVcDYAAZ5ibviYLuRCzuivtrHgS2a/+DAvPZUqGrKzGNjo7u4vGcMuUhm337OtMuw8Ii11HQx1RLCz2pp6szMTo6uk0Vgmg9S0EcQRVD4uLiCjRdEhUVJWlpaT0EkNF8/mBOd0JekEpjvtUcEx4+YxKlyv2doRZ6TCaTjrvHbiWhoeHvg5B3+PJPyE25XDCahUY056u8GylnAaJB6MfU19dGaYyY8PDwMRTkICi4515XV9I3Ojq6avLkCHsdXRyhFC7sewJ8J5PFPn+3eo0bN07XyMgkV41BASE0QCpVGQiRkZGOCgW9wbwcBORtmSy2i+fCz89PbGRkJDx69CiXDe8N7CpYtGjJBx98+OFbOjqqhAZmJDCCl4kTJ/LPZWVl2PrHH3hhxQrs2RODUaNGY+G7P0GucdFqWtABklK5PJkM7c4vXsGlixcwd05URzuZpyI+NoarJYrUuAfNj4yVcMv3k3D8dC4mB4/AjEc2wcBQBTy8Uym6dYtLL7NUx6GDvHDi8EHY2vVDZVkpJzIyNjDG2OBJiE2QYtGjS3HjeiZCwnsyPXa/B6tr8tl92PvnUhgZtGDgsFcxKfLVLsBLtlCfO3OasykO8upMcSwqKkJTUzP2n7uG77cnqC6t5TXgA1TLoJo1ejAWzZjCF/7i4iIu5xw1W9Vvebl5uJ59nT8TTRrorVtFpV9/9cW4bdu23bfcB937O8HRbQsBUVP+asGntEl9egmidsTfNXF2rZHOPEbNIgFEFLB861H0Hz4Y9Q3NOPTxBjilZPVIGe2awktAhcDZftawiYyE/+ggyOITMHbsWG4sNDc2YbDXYFxNv8rVNRkfBTMMLpy/wA2Cvn374uSJ44iKmol9O3ei7sBBBNwsUb2I6nZ0N0g0fVIYMgrzXl+M2IRTsKxpQNuaPZzJkelFqE5XeU+6GE3qk7t/18WFqQVU6+h/qhw/LS/76N3eswe///N6wM/vcXG/fiW6lFIdgUCgRyl1pZR4AwIPQOFJKTwIISxfnbnS/5IHgS3cra1tjNUxiHusBJgplUp336k3Q0ND3UCEzItgxbaiSqVgTnz8nmi194BNqL/LZLGPal8jMjLSVKGgxwBo55oX+fn52Gvi+uHhERcpZYZRxyuYXl9f669ZJO9UJ6bESSlh11cp5YHulsmkLOTSJeMjLCziNQCfqq9VDShHymQyPk+HhkYOI4SykAgP+WgMBPZ3eHjkQqVSuVlFnIdDcXGxwXcbcT09IqIBMtkufi+GOwAEahE/ultXV2d2dHS0agLppfQwEJhok6WlpXLZ40/GjR8/bormnOSUFPj6+HRMQKs++AALFi2CiYkpR2l/tGY7cqpaezICsgt03IXg0fAJ8HIwhZfXYC5RzIpSqUDiH6+hMC8VvgFWMLF/HC6eI5GdcRkJO99HXVkyxDoG8PdzQFJKA8aMnYqgiPfu2E+HDuyHo7Mr9iXEITRiBo4cOoDysjJuhBTk5UNXTxcnjx3l4YnD+9mxThjq7Q1nl068QPcbXLt4AHmXt0GgvICSmv7IzrgEia4BAoLfhv9w5hnpi/SzX6Gq9AryMm7Bf9on8PIb0XEZ5m3pZ2ePRW9+i1vlVT1JpbRixmIB8Mtbj6OsqAB+fn4c98FopzWo98zMTHh4dGZHlJWVt6755Zdnd+/eua20tLTxboPofvk90dF9JQju/LC7YxC6J2Npxh+lkIsEqNDVAZGIoA8Kr68eRR8rY5SUNeHawYto230aSgNd6DS1wKSRhUO7sQ7yOYCibLAbgn9eg7PnzuPylSsYNHgIdu/axTNcAoYNw/WsLG68HTp0CO4eHpwo6XpmJmcivXL5MudWGDpkEE4sWwrL3GLV4t6N24EZMpVMfd3ECMq6elg9FYopM/zx9fqTGOtqhqwPdqDd2ADKhiZYNLVCwDgQumsqdH/QPfQYegF6cmh6u2NIbm7HLuh+GS8P6vm/6QGWXllcXGwi19UlidHR5X/hriQ8PGKrkmKueomoAPClQiH8U3v3rX1d5ukwMjJeB5Al6tfwBCHKqZQKtoEgHFQQFBe356T2OaGhof0IEZ4GmKogX4C5aI1SgDHxsbEnNPF6SnCJqI0EBtaTy9uHJyYm3rVd06dHWQuFbdcAaLL/Vshksau790doaEQYIZCqv28jhEZIpVIWEkF4eLg/pYQZCFzNUCaL7VgxQ8LD5woo2abGXuyVyaTT7tbXKq9JWyql1JNtGAih/aRSKeeKj4yMdFEoKMNqMOOO+S2llJJv4+JiWOiiBxCyh4Hg5uDgrCTC7Tq6ks/ffPf93yZMGMetGqaXUN9QDxeGQ6AUufn5kO7Zg+dffJELOrU0t+GN9fFd667e5UlEQgQMcMbF6wWw6WuKrV++inNnz2BSsMojwdPQqsqxP2Y15gR9iqoaPZxJNQVVtENPrxXXc3WwKLIahcX6WBvtDu8RizBn8ZMdrvvuHcbYFWN270JraxucXV1wJfUyhg0fgW+//Axf/fAzqquqOBNjbW0NPAcOQlpqKvwCA5F26RJmzZnTgw5aU8dd2zZAV4egKvs9zJxShut5Ojh6TgePza5G7EEr9DEDpowuhRJCpNcfhq29EyytGRZI1cbonbvQKjLFxxt2wUBHgkYtStzuOf42Zob49Z0nwAyz0aNH46NVq/D6G2/wzBJWmJofU41kpaWlhW5Yv2HVn3/83kwpbb+Rn//l3QbR/fJ7gpPHLEJpNO9DDXBPPTt0JZfSapG2gdBthN+KGId5by5HXX0TLlxIgZt1JWwt9XElux5Fpc3wHz4ZDg42SEu7jrNvfQmHvKKuabmUollfAuXK99DPwQENdfW4VVTEny/jpmDhBFOzvrielYnRo4Owd28C/AMCUVFeyrkPmA3I+D0EQgE3Rq9cTIHRp59xASn1QFFlHBAg28sVMz59A01tSjTV16G+IhVBPib4ZnMWhg0xg66pL4YO9URLSxu2vfEJ7I504JLU19L8dzdcRlcjiFI0Ts/L6im9er8Mmgf1vC96YPr0cH+hkFzoVlmWo/u7XC55JzGxp+ERFjbPHGhiefVswWcLGosbMwBigkwWy1TxumwPwsPDPSgl5wEaTSn8iRrwTAj5SiqNeTksLOJdgG1AyEJKlZsJIUIKWkKVolHx8bsZsO6OJXTmTDfSJmcLrtoBKAiTyfbEdT9JbQR0tFUgwJLY2Njf2XF3MBAEoeERyaDwVmVh00/i4qQM0HjHojEQAHBBJW0DgX0ODY2IJcyg6iwKyjIYlHgiPr4T3MnP7X4nV1dXHRdnl5IXVqwwys3JqTY1Nevbp28fwkRmzp49y8mSGHDR2dkZW7dsweIlS1BYUIhRo0YgdNkbuFnTAn2JGC721vDsbwM9sRgTR3ihubUdr32/FfWNTfjo2YWwMRHD18e7Y8GTy9txKGErmqsOQ9y2H0529bCzbsX10nEQtV+ERKKAvO8aDAm4e3j9t3VrMXHKNHz6wUq8/cEqfPrh+3jlzbex9pef8OSzy9FQX8+1Hph8dHNTM9i9DQwM0dTUiKHeQ7lX5E6FLQaHo6Nga3wATW12IMoq2FlVQiQQ4FCyP/RMvDBw2LNwdlOJKLGyd99+uHsMwHOfrkdtfSOemTUZH/0WAwVbMboLXQGYHTQIPu72fEcqjZXCyNgY5n37wsbWBubm5igoKOD/M0OhvKxcrq+v16qrq6f/ww8/PnT06KGYuw2i++X3/c4D3BRUwV9A/hJqOOjVfcYH8J0IgDpOBG5YGeOh9StgbWGC1PQc3CiogatVFZz76SE1qxlV9QSTg8eisbkV+49lwVqkQPMq5jHqNKwpISgYNQwT3luJQ/sPYHpoCA4eOIBhw4ZxXEhBYSHnNGBhIcaDwUTIWlta4NC/P/T19Tl+4NjRY5gydSoSExIwbvwEHHn9VfRLSu3yMrbrSWD7+TL4+Duj8FYpLqbdBFFUIWKsMb7ZUoaAwQYYFjgOCiXFsbNZEIvEyHvvN9jWq1Iku4g1qXqui17F7cIY6iOPT8/NGnu/jJEH9bx/eyA8PPwhJSVfEsBJa5SyPxnl8xc2NlY/dJepDg0Nf48QwryK6sgcqQIV+8TFRXdgDzQ9EhISMVIgAAtLPE0I1VVS8o36/ThXXGwVZGtbchYQOAIKD0B4hIIOFhBSK5djXEJCzCV2naioKJPW1lZnpZJBlJld0sY2kVQgEORSSgcqlTjVmVxFpsTFxTDgZZcyfXqkt1BIL2p9+bxMFvsd+zw9PNxfqOVBkAuJq0ihsAOESynoQvUiXUGpIpipcU6bNs1YKNRzVSV8dBaFwiQ7MXFLnRp3wTTfb2MghDoIBMKvKAWLqfMdp7r+ckqRIBKR52NiYjgRS6+EW9OnhiSu27i+IxeRyQvv2rmLqywyAFacTIq8vHyuzcBEm5xdnHke/sFzadhy4ALG+QyAq50V9hy9gEGu9nhi5iQs/2IjKutUQCojPR1Ef/ky0tKuIGS6ymOSnXkFSQdfxIyxR1FZq4Pd+2wRGOgB70m7O1jm7uU1KCstxdX0dM5y+NmqD/Duqk/w3OOP4fNvvseObVvwyLIn0NBQj4y0dFjZWHMkOUsRbG1ugYOTI65fu4rQSA350L3cESgpuoWTOwPQ3GKG2dMz0NyqixPX30bYXFWWGAOssZz3BqUYL3y2DkHeHigsrsDN8mrMnTQcmxJPQiwSwkBPBzX1TRAq27Hzy5eQm18AV1c3vPn661xn4XpmBqeezsnNQ0tTE1dzZLLPGibFkpKShnfefmtcfHx8t63kvbXj73gU29vudXKroRTG3dPyuuAMulVe+zfNYpg1zRuDxjpg/DArtLcrUdfQjps3b6C/pRJ5pULk3AJCgz0hEFDcKpPjTHI+TL8/DtKm6PAitEjEUL7xMgz7ObB0Kz52DA0N+ThiTIss9XfE8EAO3j1x6jSCJ46Hk5MzWEioT58+qK9v4CE19swYYyJj+yxKTYHh1z9AoOi8T2N/E9wM9sXyBU5ob6dobqU4cCINs8br4pvtcozyEmLgAFdulDL7KDWjAkd+PA+vrNKeuh5ayo7dsyK0uRE0hhYh5POpOZksZvqgPOiB/3oPREVFCZubW9miz1D7xowJUr04KSnF/Li42O3alVDpUQhYKEHlngXidXUlEb3F0sPCIp+joN+BKoL09PSSm5tbqwghuhRQUCWdJxCQHYTQd6RS6aqwsMjtFHQ2o8MhhAZrMgZCQsLDBQLCssI4wY56MWV1mwUI80EU6CMx7AAAIABJREFUyRpMvlCAqbGxsfu6dxojsKKUpGh9/6RMFruGfVZ5EHAEIIbd4FTMkdhOKfIIUUZ0YhZCJxMi5PfQPl4pwNT42Nh9HSEGwFMFnOwMMWjXKyQiIkigxC8AB0FyIKpqPhDEyWQxzMOgzgHs1hpPd/cl0oTE3wwNOkm4GDgvIyMDl1MvQ6lQYGZUFEpLS5CelgZDI2Mu5hQwbASWfbyecV0wpCjCgvwwa9JwfPO7FCWVdTAxMeDCRDduleGlheHobybGwIEDYGNjhUNblyEvOx4WFmIYGzXDf0g90m4twMjQjf/SAGXhg9OnTiIrIwMpSRcwbmIwdmzdgq9/+Bm/bViHFa++jvq6Os7H4OLmhm2//8bFn1j72K5v0ODBmBA86V+6Jzs4VWoFiaQB51P74qHJpdgTZwOvKRvhPWw8zpw5CweH/njqo19x/WYpVj0eBZFYhJxbpcjKvYWjlzIw3mcAmtracS49G5N9XfHiI7OQnHIRdXW1MDE2xhAvL1RVVSMxPo7jGEaOGskXHO1y/fr1gmVLHxuZlZWlprb8l5vxtzwh0dE9EQRTVUA71dShitl38x5onIsdGTQqvIAG/HklwBFeU01QkdEOyaVytJiIYDbOEP6D5KhrFODnzUqMbGjiIkyDlvRDm7IdJW+kQdCmTjEgBNed+sFpxasoKS2GY39HlBQXY+DgQRw0OnDgQGRlZWLkyJF8/D/3zDP47scfuJcqLf0qx9ywcASjWi4svAkDfX1OkGRsbIyCjz6Aa2l1R11bLPWQO9UTgf0pCrcXARIBzpnq4vMVBGtj26EnkEAvqR5oVAJBNpgWooO1L+ViUAHDtqjBrx32fzePgnb/9PLEqRLTp+dnJf4tB8ODSv1je2DGjBmW7e3KEEKwqnPxp4kymVRF/KIuXIci+eJvBFjEFzWCX+KksU/11jFhYeGbWfhAJBKY79mzpzIsLIKROqlBz3wLXqWrK3GLjo5uCA0NX6n2TLBLLZDJYreyP1QplopPKCUdwliEcNfvW5TSbBBhFlEDDCnFsri42HXd6xISERFMFPSAmt1UAShnymSyWHZcdw8CpeRzgUBZQyktA0TZhChStDkfGKgRoD1wDkKhaEVs7K5z2iEGNQC0A4PQvV7MOGtqawsUKPGkul84V5RCgZGMjKpXD4Kjo6PuunUbKgcOGtiDSIOxKv7y04946ZVXeNoeY/SrKK/AunVrMXfuHHy25k9kVrXDytQIK5+cjYamZtTVNaGPiSE8XO1x5NwVfL0lHv1tLBC9+nWeHTF65DBs/2EJBgU9j4Qdb+LNpcf4JHcs+1eMnbaso01sAZdufhED/WfDc0hQry8K65Atm37DyKCxiNm9kwvoHD96hLvjmdjTp998h6qKCnz92ceYEhIKR2cXDlacGhKG8tIS+Pj6wtSsS0pwx32YEbE/5lsM8BqF/q7Dutw/OT4Yfm6HcOSsGTIrnoSzUz80Fh/B2Llrcez4cVS16eDLzbEwNTKAUqHEpGGDETExEA11jdiceAILpgbh5e/+gEIhxw+vP4bTRw/B1taW8x+wftbQ5m7a+BsefvSRXgV5tm3deuyll1awlMB7Zt26H2abhP7ubxIBPuoNed89Ta+3tEY+ibDAuqEO2hfaANGlMKts4Yk+lRNNMGFOO64V9kH+D5WwqWzkfVv4kD0saT3Ee6ohYHY0AxETIGV+FAZ4++HwoQOYETUH586d42BEph8SyHAsV65g7LixaG1txfPPPosff1kDqlTg5KkzGDDAExeSkjjodP/evRg5ejS2b96E0PBIXDx1DIG74zuWdKbwKF5ohhs3DOByooDfP8PSCCHvilFQKkTRXiUszlfy7wvsTGA8yQCGf5RA1M5o9DtUG7qMk57hGXXWdtfsiVolEQwLycnoCOvcD2PkQR177QHi5+cnYmlrEolEyIqOjo6AxdlbWloEYrFY0NoqEujoyAlznwuFQoFCoSBKpYQoJUqeRM8+a19ZqRR3+SwUyhulUmnpf7L/w8PDrSgl1wEYUYqsuLjYrlz1HI0fsYoCb6lTC3+QSmOe660OoWGRWYRQQ5k0lnsbwsNnRFGq3MaS6vi8AGyMU2c+hIVFzKeAihWSklVxcTHv3K1dISEhZgKB+BxANXS5a2Qybqx0z2J4AuC7dVbqlUoyXsP2qMEgUEoN2dzj5+cj/FeYE3tZ9CXNLa2pRB1iEAjgEBsbW3intjBDoaWlfQdAOV8EJYLH46R71vZqILADfv/9D1nwpODQ3i7KENlBY8bwdEfmXmWxVbawXb58BW6ubpj50udoh5BPdkyLYOHUUQgY5IqtiSf5DtnCxBA3K2r4ojg10BPW1pbQ05FwZsLt656EtTgWEn0RnEefhl1/ngLKS07GKfRtmoj86lB4TWRcDz0L29Fdu5oOj4GD8c0Xn+HFV1/Hlk0bEThiJFfiY8RGTA2SSThfTLqAQV7eaGlphkQsgWkfM6ScP4s58xf2eu2rly+gb8NYZBQFYeysrl6ki0dXobX0U2TlmsN32i54DPTCrcI8ZF7PxWAvHyx5+1tU19bj42fmoqahGWt27kdDSysGONlh5vgAxB45j9NXc9DfVAcfPLeAEx55qVMkGUp+yODBfLJPvXSJ4xI6ijrzobKyCs8/8+zsw8cOc0DfP6kk9PeYQASU7Wi1hMTULbztCO7mf1P3U5mZLoxb26HbyBQ0gVw7Ezz0Xh2OpljAeE0ZiNpZkO9gDMvSJui1yTu6Us528YE+3NjQcfKAo7sHcm7cwOigMUhOusCzF7IyM7kMN/MkMA8Bu1w/235c2GnQkCE4e+Y0AoePwIH9+7lX6NqlFAjyb0AuEWHkmYsQsgVenZrZpC9GjbEYNiWqpBSFWIj2Zw3h5arAobcpHGqa+DRUa6oLKJQwaegak9SmZu7Bd9A9pbJzwGTIxQgKy8piqPIH5W/cA5RSMnXmTGtxW5s9ILSCEFZECUtKiSUhtA8FTAmoLkB0AMreHQkhRExV+fbMXS4ihBGIUhEhRAAKIaVUwFHalHGPcnCPtpx0x2eNa5sQ7JFKY+f9lW4KCwvT19XVlTMug+7nh4VFMHGogRSQxclitQF1/NCwsAi22LJFl71jP8XLYp/pfo1p06IsROL2ElB6UCaL5Rl5PFUSgnOdxFBkhkwWwzFbfGdOqGbXfE/pm2xhbW1t26CkWKx23KW1t0vG7tsXXaVdHzU50Uw11UkaIcpAmUzWxI7pDlIUColZTEwMY2H8S6U7BkEoJP4xMZ3U0wsWLDDesmVLXS99ztIweWiRUoU3wzvcdnpdvPiRhW+/89ZmZgCwyYXtiCQSCR87KSkXMWSIasGSSmUICZnGY6rXrmbAw9Md73+/GSfS8mBmqI8Pn5qD2sZmfP1HHA8vhI72QegYfzz18a+ob2nD5lXPI/nsCSxaOJ8bGif3bgQt3QibwJ/g6jmYt6Gq4iZoezWKcvdhYJ9XkZVnBnOfSyDKeugZ28PAoJMX4fSJ4+hrZY3a6mrk5tzAmPETsfLN17Dy48/4Tvznb1fDycUZIREPce0Hhizv09ccJ48dQdiMmTh25BDGjBkD2352Hf1XXXkLyvZKpJ3fiLEDvkFapjEMPE/ByIBCz6g/DAyNwfgajh6Mh7JoA0Ke5NkryMnJ5cC1PUcv4feEY3xnZ6irg2UzJmBswGBsSziJQ0lpqKxtUBF4UCVWPz+bX4uB3lTXyOHZGnb9+qGkpBTNzU2cvbK9Xc6fC3sm7P89u/ekPvvs08xy6J7k95cG2d/ppL0uLq5KheAkIUSlbNSRqqcONXQXJVJ7DNihKl6Jbmgb9ed2sRA3w/tCZMxUboHGywTuSUwNUf1adAlZUDTp6aBw2FB4zn8Y586d5diCyqoqmJiY4FrqJUwKCUVqSgp8/P2RnZXFKZcT4hPgxHgQzpxGwIiRiInegcDRQTwryMrSgmMWhvn74ca6n2Gbdh06re291lkhJMgebw6T/jW8OS3Feui/t56nNnaANNX17ULTrHmQHameqmyQLn2jlSFCCBLrcrLCZgO3zY3+O42Nf3JdGOGNjk4fM4mk3YRSagYI3QjBQEoxEAJ4EMARVMtoVnfGbYb7v9xV3a+juUC3OPlfJUpCWFjkTIAuFQrJG+3t7fmNjY3NZmZmBnK5fBwg4LgDSjE3Li62x24wNDR8PSFEw3mwWSaLZamPXea+iIiIYKUSBwjBj1JpLMM3qCmZU5iLmhEnVba2Nvffv38/t8AZBbFSCZa5wIynTJksloP87laY1oNSSY8ChLH/KSmlH0skop+MjY2rS0sbjYTCtggiwE+MCIlS1AKK0Li4uI50TG0Dgc3lIpHANSYm5sbd7nu73zUGAgXRYBCmaVIq2TmhoRHxQiHWKRSK83p6esyQETY3N9sQItxKAT8CIpXJYiL5HHG7m9jZ2elFRc0+/NLLLw9nRgFbkHLzcuHYvz+KiophamrCJ8aKigqcOX0GYeFhXGBi586dGDh4KF749k/oiEUIHOSKc1dvwNHaHM8vCEFlVS3WS4+ioLSC9SRGDvHAt28sxZW0dA7uSrt4Cin73seMp6O5RyHt0nno186HiV4ZUq6aY+LwPKRl6cDC0gZiQTXyKkbBI2gLjIxM0Nbaim1b/sDk6aG4fOkiV4hk1M0vPv0EVv/E8SD4+btv8NTyF/jfTKWRpUS6ew7A9199geUvvwpKlUhNTsK0UJYxA+TnZKA1NxLmJkW4mK6LiSPLUV5pgJQMS/gPrMSt+hB4jFoHHV19XE45j4xz6zH7qTU8tnzgwCGYWDng5dWbYKAr4XLCNU0tmOA7gIs0jfLygO8gF3z5uxQXs/Ix3N0GX77xDJeCdnNzRWNjI3Zs34FFixZyAqn4uHgETwrmstSM1tfaWrVe1tTUtH7+2adzf/vtt39M9oL2uDzi6KjbQiRMnEWb7KTL0O25Q+7JX6BNFlRuoAuJmOKcgxnmPBOFg0cuQDf5OgwqGmHVIodes5pRUX2X/L760Fu4BM4BgRw0y8jDmFbJtcupsElOBnF1RbujA/SLC+E5awHycnIwOiiIZzi4ubsja9tGKAYORWvKJcjLylDj44vAESNgY2MDIyMjNDc34+rB/RBv/xMW3TwBjbpiVOiJUW5vBrtJPnB1sofsp10YUtIAZZsclprje/MKaAuBqWdcDSajt3efEuWL03Oyv/mrk9OD8/56D7DdaFtbmweldCwjEAKIO0DMKKWmAgExopRqI847VsPeJnFt25Y/9t5t5K7vkNYxd9Ff6DiPAv+GgdDhBWC75WIK2kxAGPCNZTQw59tLurqSdb17GCJjAKpmtiO7/fy8o7q75UNDI14nBEwSuIu2ghp0GKsk5OV4aUwHnTjTUxAKxYxymbFHKoRCYn6vO/mwsLDhgGAHAHu2fyFcLltQTaE0IuBy9Syk0aokdFG8VNrFy9s9xCAQYFRsbCzjbvhLhRkIzc2tqYSoshgoxbNxcbE/sr/DwsLMCREWcU8RwMIO1aq6UUsKYg2K84AiSsNGeScHLQNbWb79zrunvb29uZ+/taUVl1JT+Q6HyRXb2al22QkJCZy0x8XFhYs6CQTAF2u2ISm/mqPzZ40PxEPBgci4cRM7j5xDWXU9xEIBzI0NkZJdgJcWhGGAvRkHKzo7OaHoVgFMTfvynPKD2+dgnFc0Kqt1cC1bF6OH1eJKpg4cbJQQi5i1pYMK/cNwcA1A7O5dnNegpLQU++LjMH/xw+hrbo43X3oRH3+1mi/+n3/0IeYtXAwHR3afm2hsbICbuyfefeM1BI0di6E+figvLca4CRO4RO/uTW8hIvATLhPMDIRp42qQlGoAhVICT5cG1DfqoK9vJvQMbXEj6xqsbe2gb2CI/fsPwj9gGB5773tk5t3CrAnDuOdkW+JJuNpbYW3sEbTLFfD3cEJ67k20MOrkFQtRXJiLMUFjmKYZ1q9bxxUAGS21XKHAzp27MMDTE3r6+nB3V4W8mpqa6Ib169fv27f36eTkZCa88Y8siU4eH4Iq3+6yW9Zs9Dl4USMWdntVRk3HMEOh2MkcFnPMkVUowUtPjIH0UD5MRLm4nNoOp9jr3NXPxnmTWIAy36GwiJrL0xZZYfofBfn5qLl2DQaHDsKptgFlpgaQtCvQZmKCYndXWAwdChffAGScO43ajAzYXUmHsqWF6UXBrL4ZmeZmkAdPhP1QH9jZ24MBgtmknHUtA3Xb/oDl1SxI5CooSZOeCA3z3WBlJYa+mRNG+tli3R+HYG8lQsWaPFhWsVBDV/GqLvhELVlnfsHbbQ2BdhGRu07KyemRLvaPHFT/Hxs1efIiA13dWjuFgtgLhXQopXxHO4KqWAJ7LR2pdBpSLa2jenuk9+gB6BwqlLaACOoB2kQA5v5mdLuMD74NICzWJmfgPFaIChQlVCrpqbg46cq/0pWhoaEOhAgXUYIgQqkFQPQoUE9AsgDFdzKZrDtHQsdtwsIi3mLhevaFEjTV39f3w24GAgkLi3yeEuUYAYQ/S6V7DmhO5iDHlIsb9XQkzzBwouZ7lj4oEom/JoRw9Hc7wduJsbFX77VtbPEFBCzsMYYCrD26BMo2ClItILhACL7vDQugIi9SfsiyK/gbr1R8ERcXd+Ze79v9OEYoZWhovBoC9OM+ACVkcXGxHO3P2p6SkhLJMjAIIf0p5QRPLL2xhApoTICv7xrtfryjgcAu+OjiR6ctf+mFBEtLxqyp4vs/d/48kpOSsHz5cv4d2+m+/NJL+Oijj3jaFpOBHjzEC1EvfIwmBTBzbABOpGbynH/7PqaYO300XB1tcSrpKr7+M4Hz0//y1pOoKb8JPz/fLjoN+7Y9BmfrFPQZsBnH9v2KsIAfkHjCEgNGbUFFSRaGWr2Ocv1j6O/ijfQrlzn4a8CgITh14hjmLlzMwxYvP/c0fli3Ee3t7Th59AiupqfhmedfRGFBAQ8zDBsxEh+//x7GjhvH2+Xn54+HZs/m4ZToTR/AuY8UbiO3Yd3Pq7Fizs+I3W+E/v5/oLGhCgYNr8F9Qir0jVSskKwcP34CdvZ2+PHPA0g8c4nPx8yb4mDVF8/NmQozUyN8snYXrhYUdTjFBlkb4OXHWHaDhEsJnzxxkp8XFMQpxJF9PRtbtmzB0888zaW2+TzP+BgOH5G+v/Ld2dnZ2Wphh786rP7e5yXYu7pAKMjWpjy4U5pjl9Z04QVQOdiVAgEUJgKU6uhi8ip7nEhsgvGhW6CtFDotKqBfSR9DNM2ajUEjR0Gs1tMoLS1FcXExSvYnwvfadei2tHdhD2XARwZmLBw3Gi7zFyJn82/od/wMGOhZ0M1h16Cni2TfwXAMGg9PT08Ymxjz8cDCSMlxcbCQSmHaqHqsbboCQEiAhXawdJQg94sCGLTKIW5S8mtrxoMGzNrr0+zuTdAc1LHdpMem5V6/Vw76v/eA+RvWjov6SPQYrmsGQAMIIUw9z4gybIC6vre33e5k16lO7u410O6CTuOiI5etABQXIaBXoCTpAgHNEggE1XK5vF0sFrc3NTXJBQKBXKFQKGxtbRWNjY3KnBwzamSU1eHGd3d3J1lZWfReFAbv9DgYK2NhYaEeEwwyNjZui46OZi7/+zZUynbwDQ0NukqlocjYGIry8vLWe6Ft/h8PWRIWFsb6XEdfX19pZmbW1J1vgtXnrgYCO+iZZ5YvWfbEsu8sLSw4TSWbmM+fvwDbfrawV++qmM5AvCwOy554nHMkMFVFxouw4xjnmuBx0n7mppg5PhAeTv0Qvf8U0nOLEDxsELbtP8PBet+/sQzX0q9wDIBEomIMLC8r5iqK46cvRW72VSjzh6OibS5GhKxD7o1MFGbsxohJL3G3L5tYd27fDld3D2z9/Tc88exyxOzaCVlsDGIS9uHKpYvcVc/AidMjIjmj4puvvIxPvvgSu3f8CTv7/giJjER2xjVMmR7Cd5ANdTVIOh2DcVMf5mJSOSe80Sici+nzGDpdifjd32Jq5HNcipmVzMwslJaVIb+ylTMmWpsZY4SXOzLyinhaY7tCiamBXoicGIjDZy/jz0NnYaYrxJ9fvIK0q1fh4+PD00ljdu/BiytehI4uF+TiefUsJZQZPKwwPEVScnLq5k2/PbR7990Zv/7Hg++/crtER/dTIBjZNVOhp0CT5uZtYiHq+9tCP8AXhoM9oNunLxoKCtB06QqUp5JhWNvAn3GuuzHMq1pgVM42SkCTjghlgwfCJDwC9i6uKk9CUxOYvkdZ3g0YHD8B55xeQMFaC3C5qSFaIsOhv0eKvkypUXsx1qQZsndJANwY5InG4cPh6OYOR8f+HDCrpEpkXUpBU0wsLK51ehNqrHVQr6ML+/xabsTUmptCMnY49IcMhL61NZpLitGQloWmc0kwLa6AiHkhtFcfTT20vS8qq4vZNY9Pzc3qkaL1X3mY/wcuqjII9AMIoSPBpXXJSA0xzb00/17CAl2MgJ6aGjWMNhgQ5FKivEGoIA0QZOjqCrO6CyPdS30eHPN/rwfuaiCwuNjly5f1x44dO2/58y+u6cP4hNUllXHKDxrEUx1ZiY2J4QtwSEgITp48haFeQzBnxSdoITpwtLHAlysW40RSOtbEHIaFiRG+efVhnEq5hq+3JvBJbJCTPX565wlIY2Px6CMPd1Aes/RCtps/uX8dKjNXobzGEEvfSeOGisr2UDVj6++bMGrcBHz7xWeYt3gJ3nvjNYwYNRpEIER4ZCSeWfYYtsfGoay0BFfT0mBqaoo/t/wBVzc3GBjow91zIJxdXXGroADjg4M7WB6ZIcAkoKVbV0FZuQ4lFRKEL2PiTw6cP0EjltTa1oajR4/B3XMwol76DI2tbYgc44fIcQHca9DWLseB05eQcCIFZXUNYBLYze1yPDZ9BIJ8PCAUiTi3wVdffomXX3mFk/CwwnatLObN1DM15eSJk0mbN28ae+XKFWVeXh5X3vqnl0Rn16dBBTyW1gNz0K3xdfoStDwchfD5kTh87AJy9x9CU2YBjPwGYuTsSLQ3NeDyWx/DqbKpC8iv2FgHNTNnwnvMBM5VwUpBfgFn2yxLvQT3vXuh06wVyenYmvU0VBSEMFj4bR+LBhPBVuYGIz2UzI6C2MIK9vZ2XL6bFcbCeHJ3NPrv3Q8TtTdBc8E0OzNM/WIliitqcXm3DE0ZeTDy9sSAyRMR6D8I23/YAKvd+6CjFnPq4I3Q3k52SkNXiJR0zKT864xX/kH5N3rg4Ycf1q2oqHqNEMKU9xj5Dd/t3HWy1brn7UIGzCjUzHfdwIKqsyktYaQ+SqXiTz09vUsNDQ3thoaGLFPgAej033im/1dPvacxO8DdY920kJBh1jY2tm4eHn1ZSEAuV3BQYB/zvhg0cCCnA9bX1+PiNHPnzoWHpydH4Csgxms/bAOIEAMd++HyjQKMGOKOxaFj0djYjFe/34o2uRx9TQxRXd+E+VNGY0nEWJ4+xtzrmpfhzMlDuJ60Gu62x5Fy1RZug8bDZ9xKmFuogHpMtfHC+XMwMjFFRVkZN1QsraxwLT0NPn4B+H3DWp6tMD54EidRKsjL5fgDD8+BnAb3yKGDHJvAPA9zFi5CeuolzJrbmb2TnnoGl459CnnTSZRUGmLk2LkYGvQ6jE1UBhNjmzx3Pgn2zu547pO1qKpvgEQo5AqWD4eOxcFzlzF/WhBqGprgaGuJnftO4dTVG+hnLMaXLz+GTDXBzppffoG5uQXvy8Dhw3ka6bFjx2Fhbs4XMmYLcYBcXl7WkYOHJHk52YuzcnM1Oun/6HGc6OThRUCPU8Ck1zg6RwdRlNj0gcPy+RAoCAq3xMMsOx9ilj6omkBRbaQLvTnTMWDSMJz/ejPMk66iWixGrb8PzKZMg62jY8czZc+vuaYatYmJsE29Aj01LqBHR2vCGJp4v7aAVG++3162h3U6ItSMGgHDceOgZ2wCHYmEj2Hmbc1JT0N1bAzMrlyDvlKJ2gn+GPXsApzdJIM48RgMGKhSXZp1RGgc4gHHeVNRX1WFyp+iYV7d0Omj7r6yqIyE4xDRydP/4aGq/9YLEhUVZdjaKp9MqWIWBWFhBCPW4R0ZMVrQD40m6d0m314eU8ew17Lx0gQEZxQKehYQnu/XzyKzN1fxf6vdD677z+6Bu41R3voJEya4vPDCinT/AP9OXXDGYHH9OmL27MG8+fO5Wh1zf0skOkhPT+N6BsYmJpgyZRK+3rgbp67d5IM7fLQvnpozBa9/8wdGD/VAckYuT/P7+Ln5WPbBL6htasajoeMxe+pwLlQ0IzKiw0g4cXgfSNlStOvOQx+HmRjqG9jxdBj+oF1BUcgyLVxccebkcUyaOp1jESZOnopEaSyCp07D/oR4XExJwtsffIRPP3gPr739HqK3b+NMh2KJGJnXrmGy+rz5CxfxNrDS3t6G9NSLyE96GMa2c2FqOxk+/iqlRobLkMXFY/q0aZj5/Me4casUPm79seq5eci/VYZPN8bghfnTcTo1CzuPMtwNXz0gJkrs/vo1DvxkOhCXLl6CkZEhvH18cf7sWcyKmsUlnhubGjF+/ASYsBi1Vln26GMF8YnxDEDauTr8g8frSkAwzNH9FCEYrlrru3qQ2OJfb6gH1y+fRM6VXAjXxkG3vdvGST2ztosFqHw8EjNnjcTn7/4Oa+9RaBeKwDRHCgsLOdvmpOBgnDx2DMJff4FdXbOWKGm314ZXQ2va79yV93wa6mO19SO60x1nmpvA7uVX4eDkhFOnT8PWth+srK2QdOECxG0tqC1Mw6tvzcfqT/7E0L3nQLSbqA5zsGvWG+igz2vzIAJF7aot0NH0RTcsAjuWUuGskPwMRif7oPwLPaBKKWuPVIJ+QwCbO9JyaGmu3NPEqxnjHWm83HugpEArAd0M0E9lMlnuv1DdB4c+6IF/qQfuaZyylMe33343PjwifHxvV09PT0d29g3YWFthWKCVw9GPAAAgAElEQVRq0WaAwJwbObhVdAs+3j544dNfUVjdDA8HG+59uFFczhHdHz4eBWcHG/y8Yx9nXWxqbUduURmeipqKycMH8etOnDi+w42fk5UKcyuHjp27pj6//vQjQmfMxIY1P+ORx59E9LYtmLNgEWQxu7nc86njxzB67Dj89O1qLHlsGQwMDbFp/Vr+96Z1a7Fk6TLs2PoHwiJngElFszTHvBvZGD2mq2ZN0c1cmJr1gb6BynBgKZ9sEbexd8Tb329FZkERXPtZYrz/YBy6kIaoSSNQV9+IgpJK6EhE2HMsqQN989i0QAQMcuYhBJYFwsCHGo8J8ySw0AcjS9KAEjv7nuJm4S3lvNlzQm7k3VCRLvwfKQkuHqOIQnkMhAi7bKdAUdXHCHXB3jAykECy7TiMWpjdpI3u19qTMQZCWzOM/ngWbC2NcCbLAB5DRqOqspKLeJWWlCBt43r0OX4GBhrVzTshyDT9rz7mdoyOXR7THa5Xra+D5qmT4bdIBbStravjbKAZF/dirBdB8pVS5L+/C30ZWdIdSpWhLsjiCagtKIfZ4VSYNKk5aboaCZd1+9v6jT969P+EofmfeFUiIyNNFQq6VE1P68X0A+5pMu3l5ncEJnaGFEr/X3vXARbVlbbfc2cYhl6VIghYUMEuRmNBo8YGM4DGxJIYTS+bsjFts6mbtsmmrFGTuEl2E2MUxShlkGissfcOiiAgqCBVOkw5/3POFO4MM4Dtj4lznmefNcy55577nfadr7wvIVgD0AytVrs7PT2dpafZi10CN1UCHZ7TkyfHzFy06IsVLq4uxCylinWPUuTknsPFixcwevRoDh7j6eHBA/cYBS4Dg3F198bTH32HRo3+1uckc8ATCePRp0cwXvx0GQI6efEYhYU/pWPTAZaKCjwWPwEzY0Zh165dUMTGwtGxBUhPLBWGeVBZWcWtF5mZpxAaGso3VEaew26Dfp078/8eMGgwPv7gXbzw8t943xKXL4Ny2nT8sj4dsco4/JKejskxsTxFcuKUqTiTdQqTppjBgJteyw4AFoy4c+duRI+9C4+9uYgrB8z98sr9sQjr6o/XF6/E4IjucHKQ4udtB/BkwgSs3rKXW0x6+srx2WtP48Chwxg7Vq+EVF25AqlECldXF3y55EvMmz/PFJRoOQu2b9u2Y9asmdE3dXbcoo1nhIZvAcFdYjcDA4SlDwzG8Phe2PHcejgV6oP4TKyGoriFZoHgbCd3nOrZHQN6e+GJe4LQ0KzDtjNhGDZiPPZv2YzihQsRUsba0DdhtFYwkejBl1o4HizFJMZbEKMZmvpjsjeIgJwML7LkmDgT3Bn9//Y6eg8YgM2/JGLGKMY+SrF4VRHO5FRiyOkz6FrVAKkIjlvcH9aX2pHdEPvGaKT9ex/cN5zhP4tglxlF3ZNT8s/+5xYd7luqW0ql0g0Q4nQ63RJCiLlJT9RTazEy1lwGfCxsYxSwYJdigHxWU1O1+HqzBW4pQdo784eQQIcVhIiICNncuQ+umjV7dryDgz7DwHIRnDhxkiMsMrpbRg19x9ChPHWroOA8qq9UISu/GF+n7gQECSYP64dRA3tjYeIvPAXwzcfu4RgBvx07A0cHCTycnTj7Y+yYKDxxz92cYnrwoAHo0qVLK8GmrlvL/fKVFeWIHjcBP69ehTlz52Hblk2I7NsPZzIz0bN3b4R174Hvvv4S4b17Y+z4u5H68xqMHDMWRw8dQNSwO5F58gQnbjqdeZIfABeKCnk6pLWyd+8+HlRIpS54Y8lPOF9chq6dvTEkojtSfjvEMxUeUI7B8dN5+HRFBprVajjLHXm8RYCHE7599zkcPnQYQ+8YCkEgyMzM4jEGEX36cPCpoqIizpzJ5cyMiizN32BqZDDMi75YOH3p0qVr/xCz7AZ3MiOsF+Nu/4EwVjDDDGaHflVCV0i9pJCvLIBzXctlWMxBcM7PE6cD/eDV0x8ucgGdPerQ2YsierAvSioJNqypgc+W/fBsbBb57C0CEC0wB0zIhHqWJBNUsijBvE1KapsBl8wTJQAVzk6onHwHZsxwhkAo9hwtRnWDEy6Uy1FWpUb92UJElVUioMyAnmoR81DtK4cwqwuqMpvQZUsRB+zSTyyeulCmIZohSjv2QbuzNDY2bj4h9C8AYRYDqW28AvPYg3YbtgZNQcgBUHzS3NywacOGDWawvR1p749chwV5VlZWMnplns9NCKE6neRKY6M0f9OmpCvX+m16ACHNEEq14YDgzAACBEHId3AQjq5du5bRS19LIVOmzPCVSBqCCXFwY95enU7QSST00oULFwquB5uG4SNoNDSCEF1nnU4iI4SynOrzTk4O+/6/slA6rCAwycVPjg996OlHt0VFDQlh/83cCJdLy+Dh7sZvuidPnkJkZATPamBpYcnrkjFp8iT4+PhwulsGgrTwv6uRcTiH35TVWi3C/H3x6YK52H80G7uOnubcDX3DQxDk54OXvviJa9d39g3He889gONHDyG8Z08EBwfDwRBhzvqh1Wj4BswsAE4uLti5bQseeuJpjprIFIUNGekYPmIk/AMCceTQQWzb/CteffNtHo8waEgUzucXoHOAPw+6PLBnF+dnGH83Y3RkQEx6ZchYqqtrsP23HQgJ6Yriykb8bdFy1Dc2ITIsCA8rx+Ltb39GXWMzPFycENzJCy/Nj0fi+h34Zf8J7lqRSwnee3w6qqvKMWjQQM7kt3v3bpQUl2DadM6TwTNARo4cwSm0G5uauLLiZSCQqq2t1b71xhvLVyaunP9HzhW+lpVofGZdaKinHA6nKBBoVJqaBQHBL3fHiTMCOq07YySKN52ELHVxX2gAZAN6wdfLEVJdOSJC1MgrqsL+TDkiOmkwZ5oTft3aAOdlOXAQUTzzs1ScQiby85tZE/S7WcvhawxSs3mSGE5qwzOWioLeEgHUu8jg8mxPDOzlgG9W1qGw0Qmj+tUjpIsXjufJ0KB2Q1V1ExyPZmHA+VI4anRm/dURguoHu6KzRI6m/2aDe7GN3ST4x9Rz2W9dz3j8mZ9lwDIHDhwdJAh0IYCRtrILrmojtY1VxXJSCwH6cVpaypd/ZrlafptSqdQjSILMBkh0C+yZARBBv/4YQEk2IUiilK66ePFidgcOYBIXFxek02E+pfT5Fg4Gsx6wYV0P6N7TaDRHMjIy2sSUGTt2BksM6Q7Q+0B09wCkB+tvq7lB0AyKHTod+V6jETZv2NC2EqInTNIOBrTzKOgMoodutlaYZSmRUuFTJyfpyZuZoXK185rcE3/PmHtnz0wZNXqUCROhrKwchw8f5hH3VVVViInRm+XLy8uxcsVKTJ48CSGhoRz8Z/CQIXjl46XILtWjv/1lxkRcuFyOY2cLeZzBfMUY+Hq7452v16BHsD8kEoLdx7Ph6+WBFx5Qok9IZzBLxd13j4eTk5OZ8MrLyjhk7cH9+7g1t6KsFJEDBmLbpl8xbOQoZJ08ieGjRuHsmdPo1qMn9u/ZjT4RkdBpNTidmYmuYd0wctQo1NbWoGtIaCsmvH37D3Bo5ojIfliycj1UOw6hSaOBVCCYHzsWw/uH482vEvFIwgR0C/bH5j3HsOt4NpSjBuHLtZtBdRq89Ug8Ajt5cu4K5lP+7ptv0b1HDw6hzArrP+O6YBkWXbt25cqQi4F2m6VU/vD992tVqrT79+zZ03A7bSCW36rq1nOCoMMGTjLDgIQEAUEv+IB6OmDv5zXoXl5jeqRK7oADA3vALzwQEd0ccC6/GG7yRtQ2NOFIFsXQvHL4XWlAY5AzgmZ5ouhAAzx+LcOFnt5oEAR0zynX4wnoNQWuBJgCJI2bvQjBySzosC2ER3Gmg0gJaWQcEZGd4VReB99LtdDd4wsnP2dUriqFrKIJBZ1ccTrUB8MiKWQOjtDAFZ5enXEwqx6N584jOrMAjk0GqGgCnAr2xj2vSpF7wAFNP1w0ASuB0kxNc91QxcWLbQcy3KYTLSEhwUejoR9RShMIgTm3ulH1NCiOLcms1jMXrInQzOWgn1DvA7qvVSrVn4quvb3pw4CSLl4sKTbK2JSh0RrXwdQUpbSSELKypubKgrZAiJRK5TRKyWcU4JfadoJIGwkhywMC/J5qKxNEoYifB1BGFtUStG8xH/hWYZ7FkkuJ8JYqdZ2eLdJKmTp1hr8gaTpCGORxxwqLQ/m3XC57/2YpCVerIPBuz5kzZ+TcB+d9HxER0cOIgcD+zg42VWoqHn70EZMrgJn+lyxahLvGjUPU0KHc9TA0KgrPvLsEZy9XQyaVolmj5dDLyughiB4cgU9/TMNzs6dCLpPh4Mmz8HB3wQ+q7ahtaMacKaNx7+RROHJoP7oGByMsLAw+PuZrlxEknS/IR6dOnfHTsh/w6BNPYtXKFdj6669475PPcKWqkgctMitGJ7/OqKutQcL0GTiXm4OevXqbKQbsUC4sKsKpk5noGtIVNc0EH/xnNXKKiuEsl2HK8AFcMfjwf8l46t6J6N8zBO9+vQYymRSvPjIND76xGPXNak7E9MDEOzBx1CAUF1/mXAurViZyvoiJkyYazh6KTb9uQmHhedwz4164u7eQUFVfqW5KTEz8efnyZU/m5OS0YuLq2Hz6c9XKCAtXUUpj2C1eKxAUT+kG32HD0VihgevCVZDogGpXOQrGh0Lr7gdv10Z4uTQgyLsKq7cSNF3QYnjeJXRqYGRN+qVQ4i6Dc4InmjU63DmsDMF+zfhxgS8Ci0QiN2EbGOmSbYM1WQYrthAxs81KvPyMrgmKi/28MP+tCzhxzgunTnuC1hJIVOXw4PwQ+qMoz9URh0L80ClUCuUoikuVnqjXuCH7vAaeFQXotqeUozw2SwiEfzyFxvoiVGzej+C9lwzWFaojhDwxOS/7mz/XrLj+r2FQtS4uHncKAha3xf9hfJN+RNp2K9hMWSRER0B3abXkr0b63+v/gj9WCzExCX0FQXdCL8X28SLMFSuysLa26kXL+Axm+Tl06MhMAD8aGSkt2m4yIFhaOwPXE0JnpqamttwyRCKNVSg+JBBebU/KVr5FoyN0enpqaqp1BSEhXCLR7QVgBBtifawjekWEcVSYzgkRYmqzjgj3p6euuyksvtekILAxnDt3buCo6DH/nTxx4kSGOWAsLB1w9+69GDOGxc/pRcTcDasSV/EDb/Lkyfj1100YO3485rz4TzQw/hFCEDtyEObEjMaCT3/AjPHDedDie9+t5be8PiGBmDSsH347ehqHswvg7+OFh+PGY3L0IJzNPotLxZcQM1XPKGlZmNuAsSFeLinBxoz1uDN6DGdwbGpo4FkCHp6e3LVgRCwUP5+VdRp79u3DWIbsKHfBB98kYc+JbDQ2NcPT1RkL5sQieet+PBQ/Dgcyc/HThl3466wp8PFww5qNu6G86w689Z8kjrj4mHIUJo2K4oyMnl6e+PC99zHv4Yd4nIFxsBldtpOTnAMiiSFzCwsL6ZpVq5/LP5+/1BpxSXsT9c/6e0a38PGg2MS+r9TNCV1fUiB6fCS+SdyPvDV74C2TYuhDY1FYlglvNx1OF+ggkzTjaLYGfUtrEZZfBTljQxQXxlzqJEVxhAu8hslRXqBF5+01cKkTMdKKVr7VbAXDddLsBmGZGWm8HRnjGUTpj1WeMtRP9ISzJ1Czow7+OfVwUJsaNe2g9VIB2T29UeDrgsG9JahrdEREqBol1f7wdfTFqeXbkU8IJj0xGbHjemHdT7tBv98Cl3o1W5n5ahnpH3fmjNVN8M86ZzryXTHK+DcESl+mgKuFCtf2DdSw3xkiUVrVtXIzrgHIixpNU2JGRsZtq/QrFPGzALoChDTrKP2fhNAVWq22glIHqSDohoPgQQKiT202I5TSMw0QQienpqaauBZYvWnTpoWo1dr9AKO/NsRw6UekhlLyBiFaZn300enIYkKgD/ZqKYwV4HWVKoXRH7cqscq45YRiDoDThJD/6XTYRimpFwRNZx2EcQR4moBzHLQqFHSvKi1Vnx9vURjdNCF0MzO+A1gI6DYyDyOlMikl2mgB9H0AeuAfUZo3CKlxksuCb0ZcwrUqCLyDw4YNc09ImP5S9Jjoh7p2DQlkwXZsCK9UVeNUZibnVTAe2ixeYeWKFWhuVkMZp+RwzH0jIvDsP/+DcyVX4OokR4CPBy6VVWHZ+8/g5c9/RM6FEj4d2AB7uThhztTRfIYkbz+IC2WV3O8/VzkOEWGByMvNhtzJCT7e3vwA9vfzM6VGGgXaUF/P2fUuFhbi4SeeMMEjG3+vr2/gWQ/MzF9cUozOnfwgdfbA+u0HsGrjTjSqNXB3ksPFyZFnIjwYE41T5wpxpuAS3n3qPixcsR6Xyqvw2kPxqKtvwr+WpXK65xnjhiBhwp04ezYHTnJHbiW4b9ZMnmVhLKWXS1FaVsbhlI3lypUrutzc3J0rV/z02k8//bTL2qS6nf/Gln1GWPhSAjx6fFAQpj0zAOcv1aO0oh5x40MgFQCGgH0qpxYns7KQeVyLitM1GFpbj841BjejOKDPyu7T4i6wcrURZTjwhSQmirAWt2CoIw6abEVH3Z7ywXeGlr6wfxZ4OuGokxzBg70QHi7B8CG9EezvhCY1g+SmWJ1xDgN7+4JIZfjlzW3oX1pdLUjoXZNzcg7fzvPH8tsNbH6MyfI+0yZsELVF3KdVsbW4GfQ/t6FcaAG6SxDIyykpKYyl9LYuSqXyUZ1O8KVU/bW19E3mgrh0qeRdAK+IBdWicJHPVKrkBcbf9PWL0wHCAsksl8uTaWkpLGOHD5c+9gE7GFWzxY2feRejUqyQNSkUcW8C5Lhc7rDe2oVtxowZ/o2NTWsAMtJyYPVeRW2okS1R/LueNhqjCaErrFkvYmLihwgC3UBBfcytj3y2TU1LS8640RPpmhWE7qHd54FqIgSJVNY7sm/PkJCQuwMCAx0aGhs5HXFddTWGREUhYVqCqc9sYzx58iS+WrIEC156Cfv27kN8Qjzue+4fqIOcryhXmQxfvf4Ynvnov6iqE7nZKcVzMydDAgFOchlWZOxA3uUKCITA3dkJE4f1xyMzJsHb05WnXLIMAbVGjd69eqF3nz7o5OvDb+WHDuznKI+ubu56rIa8fJw6eRJlFRXo5OOD6OjRcHSUY9/RM1i6ZgPOFhWjkbkICBA/OgpjoyLQydcTR0/n4YvEXzA/JhrfZ+xAVO9uWDBXgfe+Wo2jeUXcfMysKU/GjYZiwkicyc7BpUsXkXkqE48/8bhZ+iIj//n4o485fbant7c+5oCCnjuXcybnbM6+4qKiUsasRiXkk3Pnzl1zFO+Nnjy3Qnsb/Pq7aJ0b9ja5OvaN+LA7wjkIon6rLq5itNxNoDog70A1grYWQqYDBDH8scXOb6YQtNrlWzMmmh32VuINTCmPhrZaZSzYsj0bfZgWsQ1GmZspFpRy8ql6RwnKpoQgqJccMpkEd0QI8HRpQeE+eEiL4vdyIah1n8fkZ79wK4zfrdKHadOmBTSrtVsI0MvSYWTN7G3LT276u6WCIPKnE4Iljo6yV8VMgreKHH6PfrADvT30x7Fjx8rd3DzYPuhqWuEGmTJ8iMGDB91nZCGMiVHGCAJJs1TpKcU2JyfZBEt/vUIRfy8FXdX6MCSrU1PXzWRZFGK5sGDC9nz+sbFxU0GwjgCm3HwjlJpAhOmpLPWudTEan2wOg1KpfItSYmLPNM43QsgDqanJy2/0+F2zghARGup/513jd73+1pvdzEz7BpMpu4UXFBTwSHxGA804742FwRKnpabyIDyGVMiAlN764gccyC3mVSYO7YtOXu44mVuIzIKLnBY5MjQQT907CS9+vpxf1LQsLFUxBmcLLmHzIT0jJ8MgiAgLwtB+PdE7LAihXfxAtM3QNDegpqYWPCtOn8LO7BL8325unpDInFBZ14BzhZdwIjsf+0+eRUmlMWVMv11E9QrFoPBQfJO2DYE+Hnj3qZlI/GUXqusaOEJKVsElLHxxHiqu1OKrpI0oKinBw7GjMSSyOzKzsjgUs6e7O6bGxpo4Hlh8Q+65c6itrkZgly48aFEc08EXAsOYyMnFE4888nlW9umXWNLGjZ4Ef/T2fgnrda+G0MT68T5k3JxaVFY74EiaHPUH6+Fd38jHWtpscb9ra9c37kCWV0AuKHE7orRGSyFaWibEgE1t1W31m5W0SVEdS4WGpUVqpQQ6gaDc1Qleo50xdAojxwN++8YRHgcr8oiERk/NySn6o4/7jeq/4ea2kgL9DXpch3zhxvd3xLqgX8tgyv2LKlWKnRDrGgZPoYg7CGCIpbwpxZqoKJOCQGIVcf8hAAOxMq1YgytCmZqamm756ilTpjhKpbLTAPQY6y1Wh3xC6MjU1NSLV9tdhUIxHBCY+9MUO2BsgxAal2ojDqG99ygU8fEAXde6HklIS0tObu/5q/39mhUE9qK4KXH3fPDJhyu9vL31rDZWik6nxaZNW+Di7Iw77xzO0/ayTp9G5slT2JCxnrsBnF1d8d233+D1fy7G9jMl/EB2cZQhvGsATuVf4Af/t28+jh/TtiNj73FOcvTu4zM4PsDlymosTNqAaSMH4+CZPJwvrRCZevVpYo5SKbr4eMHbww1OjjKuXNTU1eNyxRWU1tRBx6FmjfcGk9245WsIwePTJuDKlRokbtrL2x/RtweenxOLJ95figWzY6DRUXy1ZiPnk/CQO+CtJ6bDxcmBWwbO5+XhjmHDMWToUET0jeTBlU1NTVCp0jFx4t081dF2ofjXR/8qXJe8Nvx2IWW62knM6meEhn9GQf+a6e8GH7UWfuX1+iBAS9hjSxO+GLtA/GKrN/uWu6UxBVEMxGTaXHh6IlNL9FtZKwpmyzRJ8aZkzGzQP9haFGKAJmtKjrEtkZWkwM+Ns0N2u1xX3whJZEL+6fxrkfGf8RmlckYPSpuOUQpnznVi8ZFtiNhUk48znxrWt1NDLEq54bDRI1XZy1VLQKGIY7DSoVYUso/S0lJ40KAe+rr5EIC+Fsu5RCohw5OTk1vNfX16YfMaChqv1wxN80BHqTBKpVq352o7GxMTN5oIdAMB4al24nmk0cg6Z2QkMWvIVReFIu5ZCiw0zjTTuUWl4SrVz2evusF2HrguBYFBMN8/+/6vHn3i8QctUw6N72UHIXMpyJ2d0bNHT3h5e8HHx5dzDjBTPqMtZil9F4ouICAwAMfO5GPxql/QqNMzRLISM3IQJgzrh1e+WMEPcxYIeOBkDgZH9sC5omJk7D6K7995Guk7DiHI1xtrtu7j8Qs+ri5wd3NBcVklGhhcLl/ArZc8S1NkB7yjVIJZk0ZCp9HC0dEB4SGBPDuhoqYOg3qG4i8zJ+Hpj/7LXQ7+vp5Y9MrDeHdJIp69PwZvfLUalyquYHBYZyyYNw3l5aX8VQGBgZDLHTnrIwvWrKyoRGVVFfLO5aIgvwBxCQlmcQeW43UuN7d08eJFisTExNveV9nWXN7Zq5dbTTNdD2CUGP3QtGmLgwFtOYcNyIt8Q7ex2fPFbskBYatjxsPcqIQY63EzlughUX/MUBj1LzNDgxSdSvo0KnFb1qa3aLoT4O+T8rI/tHj7jd5T/jDtTZs2LUit1rIbJbccXGvpgBJxRichc9KTk9nBZS/XIAGDC+iCGB/B2IwgYLgxlmPSpEneMpnjBYDoqXBbFsxxiUQYk5ycXGXt9Uql8iNKycvG30QupHdVqtQ3r7bLCkX8AwD93phB0fI8+TUtLVmftnaV5YEHHnCpqrpyECC9+dbQsj+kqlQp8TcDF+e6FATD95Eli5ZsVSbEjzGaxxntMYM+9vLy5Fvj3j17UVtXi6lTp/LNlSkFDOrYsrCsAblcBnd3T/z1o29xobIelBD4uLtAAoLaxia88fA07DySheghEegRGoi3FyfCUS7D0zOn4KkPv8XdUX0R4OeN49n5WPBgHHYeOIXBkd2xff9JeHu46EGcGptw4XIF/L08MKRfT7i5OWPb3uPYcyoXjyeMw+P//I4rEy/MngpPF2e8+c0aDg398bNzkH/hMpas2YiQAF/MnRqNN79ejZfnKvF9yiYMDvPBi0/Nx/KfVkKhiG1lGWDfzhQF1gf27+U//oh777uPb/IMRKmxqRHeBkAkJpvy8gr163//24spKSlfXOVcui2rZ4T16gVQxoblZhOd0DJ40Mp/c+HZciaLdpBWioTh9s+qsDEV98Fq7IHI7dAqG8KaS8KCZEm/P4jS62xlSuhTsjP25c9WvI23LdI2bsupAoVC4UtBjhKQ1tCs4mPFsAm3pTCapoQZFbNpXI77+HgN+/77728LSvabNZsUCsXDgPCt5bIkBOtSU1P0CHPsMhmjjCECUbW+A5DtNTVVE2zBVSsUiscpBIZt0AKAqv/3b2lpKeaEPB34SIUi7n8A5lncA3SAblZaWtrqDjRhVoVZOeobm98hlP7dYi6WEEIHX4sbpCN9uBEKAjv4Q0aOHL3snhn3RBtjDdhBWF5egeqaauSfy8O+ffvw7HPP8nTCSxcvcSroXr3CERCg5703Ytsz8iPG6cDwDX7dfQTLM3ahgQHtM9uSnw+cnRyRmXcBEqkE/17wIN7/KonzNfQJC0Ly1gOIGxuF/yZvwWPT78aixAwcyy2Es6MMLnIZp15+8/EZ+HplBspq6zEuKhLM6HryXBHeffo+fLlqA+Yrx2L+u0t5fxjb5N8fnY6ZL3+OKw2NCGNKQUw06usbkVNYgm1HslBZU4s+AR54anYcBNrMsxYiIyPNFCDG9siApNj+zr7Z09MTe/bs4YpTdHQ0/AP8OcgUC1I0luzs7Lo1iatfXPzV4qU3QzPsyOT4I9ZZH9ZjIoGQyHKJjTd944Ft+h5bt3LxwWBKQzT80WTTE2kIbVgZjHNajKyoNyS0AC2JF7othcY8CNLc7WByc9hAYmxRcuieBrVEMe3CaZY+ZS8AFArlKgpyr9lBYgI9so1pYMtaYO6RMquh8YAAABv9SURBVD5PTlKqmaZSqW646fd2GkR9jIDDOoBM4UdFyyFeKJGQaLHbQKGIe4dS+qbYPceXHcEaVWrKDFtyUyqVSkpJiqVnEUClKi3FKkhWG20FUkqyKKXuFof5b01NDVM3btyoDwrqYImLiwumFK9RSucCxFn0WBmleEilSlHdrDPihigIxi30mWee++rxxx+b7eHp6WYZbFdeVo7zhYUYOHAAv12xIMakpCRUVlRgdHQ0T/ljByd7jh2oW7duQ7++kXwqfPjNamRdqAAHs9Pnk/G4hC9feQgvfPYDPn7+ASxdmQFPLzdcrqhGbV0DPnz+fm5RYEGExskiEQg+fWEu3lmSiMqGJgzrHYbY6CEordQ/c+Tsebz/7Gw8/OYS7i4I9ffF0reewLzXl+BSeaUJQY91gf3Pw8URyuF9MH9mPHbv3oPuPbqjc+fOfKzY95WXVeDw4UM4ceIEEqZNQ0REBBcVQ5s8cPAgpxO2LE2NTbrdu3cX/PO9D/5yIusEM5nby9VJgKwPC2cR+h8QyiKIzWPS27zVG97TEvhnI+ZAnGFgg7TJKj6CSbewIHqyGjBpG3xJdPC3uB9sn1wXiUY7ZnJRbs7VifHPWdvgb2bpcu+3ZyRqSwIicu9W1Qxjf0qjaR5xO+Mb3KgZZABSYi5W8eGoo5S+qlKl/kv8ntjYuERCWtJUW5YcWaxSJT9jq09xcXHDtDrsbR2DwpQ96pKWltYhtFE2v5qamr+iFI+av4tekEiEvrZcHOK6zLql00k7SSTaAVqKBAEk1uLbmYJxQCIh863FVNwouetP2htYhgwZ4hAZGTlo5MhRfxs5anS8t7cREEr/ksLCIhQXX0JUVJTJx8tSIrPPZPMbNkM/vGvceIzmqYaOPPKfWRoYQVOTVsCXy9fieKH+oGYd79XVHxfLq/DGvHi8vCTR5BvuHtAJrzwyDc//63vUNzHSHf1myywI/35pHl79/EfUNTUjrEtnPH/fFHyx+hc8Of1uZOUVYWjfnjwO4ut1mzAhqi+3SPz1s2U8k8KoaMh0TZg5cQQSJo9F7tlsuLq58j6y9MTz589jQ8YvYKmLAwYORN9+fbnyY3SpsNTKXbt2Y9SokWZWBrapnDhxsuTggX0f7NixI2nDhg3XSh5yA0f0j9nUakDiHhb+PAU+BNCC4tUqs8CY5K4/KiyZFK2GsovgkVu7DVrQEK0GGNpyZ1j7uxV3gtlo2Prd/O9FRCeJm1yQZcc7MAgvJiZuEhGQKk4/a1sRuPpNkqG8g2rHqVSqY3/MFXTr9JpZDyQS2XZCMMxcoaPfaTTqpy15ExQK5TaAmLkEDL76T1Wq1BdtfZlSqeyvozimDy42H3NCqH9qaioD5Wm36NshWwnMobkJoQ+kpqZ2KA1RqVS+TSn5O0vMs/JCtu3spxQvpaen7LxZlgPje2+ogiD+mInjxkU/MP/hVwYMHDDIwcHBz9nZWWC3/pOnMsEAiwYOGgSZzJwIqbKyEhnr1+PwwUPo268f+vXvx9P/SkvL0NhQz5kiM0/nYOWGPThTVIq65pZDW0xB7SAI+HzBXCxZvREXyyo56mFBcRm3Oix69SG8+MkPqGtWI8DHE+88Oh2vfbkKz9w3CQWXypCy/QCeY1kJzRoOxvTj+t84FLQACn9vN9zRqwvuj5vIrRxHjh5F37590djQiNxzuTh08CDUzWpOUMU4J4ysl0Z43LLycmzatJnHJ7CgThbAWV9f31hRUZH368ZfVampyZ8cP378cruz0F6hXQkcHDLEoayy9l86Sp80y0VuG9/dLHaglX/fYudohZkgtlZYBkVaMECaxS2K6KTNTJLtRL+ZuRgsszMIKRYEMmdS7pkt7QrrNqmgUCicKcg2AjJUjHIpCkhrMziVicnSBG0l66FSJ2DKejsA0o2YVSQ2VvlXQsinFo0d1Giap2ZkZLTKBFAq43/TUTq61bhQ8qlKlWxTQYiNnd6TEE228T3icRYERFoDTLL8QIMys5oQKEVzSgMIS1SqZEYLLA5JsCmfGIXiKQHCkraWPyFQ63RYLpWSfyQnJxd0tO2rHZSbpiCwjjCK6IkTJwb6+PiEl1wqGVFfXx9SfaXKPzc3t9+ESZMCnnr6acEqPHJzMxilMbMgZGVlIT8vHzIHB2g0am66n/vgg+gc0AUbt+7Cj2lbcEUjBQTO2aMvlCLE3xdjBvfhKY6n84qw48RZSKUSLHr5Iby9eCVKaurg6erELQiMqjn/Yin2ZeWirqGJp14yd4RaqwPRNOOO8C6YEzcR3UO7YPu2bdiyaTPCunXjZFQenh4ceIlhPTDWSpayyJ4XF7aRHzhwAN99801DXW3N+aAuwYfkcscr7h6exwK6BOzduXNn0bp16+z+4audve3UZ0rC5Yrqlwk4sAjXxq26GFofroZpZCWbwZSGaORhEKEaGgMGRbEGYsXV+H72/6YgRqMRz/gMf7OobVOypI00OusxDaWCToifVHB69w0W6R+6OYUi7gtK6TPGbCZjMpvZnDB8oa2N0ZhWJg5JEf9bIPTlwYMHf2oE7flDC+x37rxSqfSjlBwF4C9aoiUSCRmZnJyca617TEGglI5uOegNKceUtmlBmKxU9nKghGEhtFICJQK6pqSkFLYjDqbMsGyHt4hIy6cEiYH+fnPbA4ISt61QJMQBus8p1RUQItRRAndCuQVF1npekrOUSmJuRoqjYSe6+bMgNDTUc/SI0SOCQoLmdgvrHn/H8GGO7CA9ePAQBwdiB6uvr0+rjhQVFnLI5pyzZ+Hh4YnQsFAeyMcYFZua1ejePQyuzi64dLkMOw5n4mxRGYorruByeRXUYIe0QZxGdCT9zmymSOj3Yz16EqE6ODkICPLzRXBnTwzuHcrJl5xdXHDh0iWUM2prDw++ZZdcusQBjBjQU5+IPujTpw8PNBQXlq1RUnIZFy9ehJ+fH/z9/XH6dBaOHj6cV15RvnT//v3p27ZtO3WztL+bP7K3/hu4klB+5W8gwosMF8vUY8OOYzU40GpMgPnJYWY9sHKNNGEg2MJiMHakPRW9HeXFSnbEaQF03qT8s/a0WNH0jI1NGECI7jcAZqAjYq9TR2az5dQQWx8gkNTa6ivTbUXKd6R9ex29BBiTplqt22TBk1AmCJiWkpKyw5acYhXK9cQQzGhx2H+elpZiEz2UxSDodGBESa2KXC7zSUpKqmhrbBiPAghUBJRDNhvIu3YRQqd31D3RVvtK5cxAShuWAIi3EjuTa8DY6JAb5GrmWHvb09W01aoui0kglD40d978FydOnBjs7OLiaJneyMzsly+XIjMzk2cudO/ejZvv1ySt4bgIgwcNgqu7O3cPWJbs7GzkvrUQancXOEwZgSF3jkBIaAgam9Q4cPAQ8oqKcfzMOeQVFqOuoRlNWi00Wi0EInD2SLmjAzxcnDEosjtCAzpjYL8+6No1mNM/Hzl8GBcvFaNPn978kGe8EiaXgagjDCmSBR1u3LARw4YP51kKdXX1OHrsGJqbGrkrxd3NTY+QKLrtMUvIhaILV77+8su9e/fvfTkvL+/4dQnb/rBNCbDIgA1hvWZQ6FYAhOWYWiiK5lYA1lBH0trMQN6NEfAiK4IZpoERuMgKdHILVoO+HyacBRF0s9nH2Q5IPKPV0amx58+es08HcwkoFHELATxrTS5X42IwPm+ZtQBCiqhWMiY9fa1d9jdg8sXGKj8hhCwQyZmZ1Kemp6cwl5nNVN3YWOUiEPIXcwYG3soylSrlQVtdi4mJmyAIMBE+id6rTUtLYXDJNt8ZHx/vqdXqjgCEgzjxIHaCoxKJMGndunU3zGU8Y8YM18bGZpbG3dtSSSCEvJOammyCYL4BQ8CbuGkKQo/Q0DE9e/f5z9v/+Ed4cHBwG/2lqKtrQHl5GY4fO47jx48hwD8A8QkJHFSprbJj+Wr0/qeen0InBS64AFX+LpD3DIFHnzA4+3XClYDO8Pby4Nj0AnSQSKUcgZEhyzEiv9p6NRrra+Dj48ndF0w5cZQ5IDy8l4lGevv239A1NBRyK2yRxv6xtM4jh49gy5YtXJFggZZdQ0Lg5elpFfPBtNFQisSVic1LvvhiteAgeSEnJ+eaELZu1IT4M7eTHtYzWgBZRCntb0RZtBWIaHVltLo+WmQ5WEU+tL3KbAY56i8g+tVp5bpgVDyMOAyUcurmn6RE88zddq6OVlN46tRpIRKJltEJmyxIZjd/KwiK4kb4jbCN2BXDz39TqVI+slsDr38HYTwGhIDRFxuzFhooxRMqVcqy9lpXKOIep8DXVox6G1VpKSxN0upBP1WhmCWBsMJK+5lpaSksnc5q0adgOi6loA+KlmuWIOCejsQttPc9lr9z3giqSxS7MfR16PaammqbOA9X+x5j/ZumIDAEqYgePWY9/OTTy2bOmilY3sgYquDl0lKUFJdw8CBGYrRzx3a88+67YAqFTdhSRsfLg/sakPX+lwjfYMjeMo6O4cso42sAMH5AJGrdwkyxqQ6E8hmi5ateD2YzLaQaKz57mccOWHtvWVk50tdnYMSIOyGXy9s88JlbITUlFdu2bcU9997HyaQYNoR/QAC8vVorC6z+31995bdTWVlTDh061KFUmmsdbPtzwC9Bkd46mTqFUIzSrysbB7gRK8Es8NDwgAUIklnaofg3SzdGW1FHloNjafu24mpgc1cQiFpH8XRtXvZ/77XzdFid4kbQmrbmvy3XgXGK6HeLligzc/wEHI2KGjTEHndw/TsMywKglDBTP4co1itf9EmVKrVDeDAJCQnhGo3OBGdtigqk2EeIbpytdEWFIo6lvlqhd6bL09JSH7D1ZQpF3GwKLCOA0cTdCpvh+qXS0gJjn9SB7AOFh/nhTc9pNOoIy6yO6333zVQQeN/uGnlX5PRZM14fMmTIPV1DukptHfylpaVIXreOm+n79++Puro6btpnwYpXrlShtqYGNdU13GxvHPSgtQcwuEhtjiYnkkhVZwkUQf1Q7RRknGqG/zcPMYrvWoPVn71g1YVg3CAeefgRdAsL4+9i7gJnZ2fOCOnm4c7xGzr5+vI4A2aFWJOUxK0HY8eOtTk+zFJx9Nix/HU/r/1ix47t3+Xk5Ny2fPDXO4mv9vmtGCttCr3wNCXk75TSTlatCe0d5u2lIYo7ZVFX7HqwBZBketyKa0I0mXcKoK9PyjvLfOv2YkUCDGRGq8VuQmDcBFrVaivkpC3FwNBQA6CbnpaWdsOpdm+3AZ0xY4ZTQ1NzKqGYYNjjtQTkr2lpyYs6KgsD6yNz8xgQ+Exbfq5Wox61fv16PSOgeSEKhfIbgDxs5afZaWnJK629PzY2fjwhlLFG6vkWKD1HqXBvevrNg9Q2WMNY8HGgRZ8KNZrmnn84BcH4EcOHDx98113jvlPGJ/QJDPB3IIQI7KC1RJPbvHkLN+WPGDmiVTaAWCD8gL3/7wg5ddkseUScvnSpixSzugyklQ7+bSpC8SH1NPFfzxBrGRXGd3699BvExSnbnKcM42Dt2nW8HrM0iAuzkmi1Wkop1e7bu6/2x2U/fHcu79zbmZmZtR2d/PZ6N1YCv0RGetN6dQoovZPFJtjkYNDbmE3BrGaYCbxLBgwFCxdDq4wJazEFVk4nK4GH5s5AiiYCfLQ3P/udt9vwjd5Yaf0xW1MoFPGA8LMYE7891ErDZt8G+ZLImkBxyNfXa5QdSvn65sfYsWOlbu6ey0DpLMOSYJvl3yyBkGy8xWTcYUBFDQ3N6YRgksU41gO6O9LS0lhQuFlhsXIBAYHbCRHuNP5gCDSsAnW4w1qGAEuZBYT9AAzuB1pKqe7ujmBfdIQu2pY0DQoCI48KsPA+HpfLZUOTkpKar28kLDSnG9lYB9qSRPWP6jNi7IiIXn36BMvl8hAnR6dOjnI5R16sq61pPHb0WESXoC59Qrt1g6PMkRMZWeNt4ArCg28i5FgLnpDlXlsSKMW9XQbQKllAmwpCXNc6uuqT54ijo4m6u9WnLPnya0yblmD1Exl+Q3b2WbDnd+7Y0eDv76cKCOjiKJM7StRNanVDQ21lk1p9saKk7PzOPTvzTpw4cTwvL++GR5x2QP72KhYSSAsMdJbKXJnm9yoIBph+tsAtEGclmJEkmSXFGCB2LW3R1uIJjC+yli9nY5QooBOA5Rqt9ovY87kM/MhkQbUPrHUJKBRxDIY2xqDi2Qy6El8sxHXbNCQRoiPQTU5NTTUFt9nH4dokEBsb9wghYLn/PJWPUvqGSpX6nq3W9Ac0I9mSDAVo14sXi147dOiQmtWPjVW+RAj52PJZnQ5vpaen/MPy78zKpNOBpTiKkRpZ2Ml+JyfZ+KSkJLNL3JQpU9wlEhnDO+BKCIACQuic1NTUXbb6O2nStABHR80ASskdzOKQlpby2rWsX5YtQQhlWRymw4oHNQtkTdRgE+X1tQ2Claduuouhoz1lmAn9IvrNnP/ow0v79+/Pr9+XS0qwees2uLu6IiIyAp06dWI+V35jY777k699hh5bLdg7RZtzk7uA8d0iUONipPm2dOzqe8diEJL+rY9BsFaqa2qwenUSxt51l8kP2dTYiEKWhnnyFDr7debuBKbIsPiIxYsXFx49cnjC5s2bTcAbHZWDvd7vI4G3335buOP75c8SkBcoEEgIMU+bscEGaZMrwQbfQysIZmMAg2Heiq0YorbrCSEnBUH71KTcXDsjYAeniCGP/qLRemBt9dtyL5jFGNgOU9msUqW0xkvvYP/s1bgEiFKpHKKjZCcBHA0y2UMI5fTNlFIpIPGjAnUgOl0QIPSmFANBEGH0+1OK9U5OMmVSUhILO2OUz/4NDU25hBBnCytenSAgXExsxKwHgYFdkihInGUgqk5HnkpPT/7KYpyIQhH3AQVeNcwRDaX0HUGA0c3nTKngRanOlRDSjQK9CTACAMPg50Wr1f5l/XoVS1k0KzExMX2cnZ2zjd9h+Tuzsri6evwA0NmWrnpK8WBHgjivds7dKgqC5Pnnnv9k1uw5zwR3DTbbmFkswoWLF3kMgq9vJ0OcAOWZapn/W40BKxmOhiHWzDLqmyWN3hGJPIcwK3Jp2S6ei2zAvz9YYFN2hw4dRm19Pcc5YEGHjHK6rqYWTHHo0iWQ8y+IlQvmTti6ZUvO+++898jpnNPbr3ZQ7PV/PwlsDO4VqJNS5gP9C4ChZj3piDvACMbEtz4DsbLlaSN2V7Sd+dBIKV1FQL/30DTuG1FU1PD7SeaP92aFIo6lNbL0xlaljRjQ9obc+LvacGtk0fb2co0SiI2N7UmI9BeAssPUzMIjVr713rnWx5XhmZfS0lI+EXchNi5uPtHhG7QED3L8GoGQX7Ral9np6SsqWX2FIu5FSum/WsfG0Z1yuePEpKQkszWnUMQ/DNCFFHDp6OFp8V3VGk1zsDWODmbtooSeVzdJ392wYa0Z1P5jjz3mcLG4+DVCCQNjEszbJDsB7aSO8kVczVB19Buvps2rqhsRGuofMThq0WtvvH4PAxLSn/YtjHc8UpttoqaNVC8a5mLY8PPPFcGfptfX+kibKimtL6urq7/i0KzW+LlU1gmkrJrQsry6piaNDpWapsbmhsZGLSE6nZaCyGQyiVQqF5ycXJxcXR19w8O7O3l6+3Ryd3P1cXJ0dA0IDJB08vN38/Xxdjp86Kh04KABnb29vVjshDhpnt//bNFXb9mytf7bpUsfgoCf7eApVzUtbonK60N6jSOELiCE9KWgXUA563hLEa9Sy38bEBBNAZB8XlsJhTfLTuBNMyKW84QgQxC0/56Um9segtstIatbrRMGUibmXpgs7ltbLgNbvxn80ZYH1EWtVj3ERtDbrSaOW7I/SqXSjVKyAcCdtpQD47KxvN3rw4I40inV6TT909PTT4o/kgU8NjY2r2I6gEnRaNm5KwnBZh0QDB0dZuT2MT5PQUtBpZNVqrVmHCZxcXETdDpkUEB6LQen/hvJ2rS05OnWBkShUG4HSDQluEIoS/MkvwHkAqXacIDMY3wULX00KVO5Dg6SsWvXri26GYN8Ld95w/rRo0cPR2h0iXPnz49/cP48m1kEli88depU7Y5t2/93KuvUt1lHjlS5derUVFVVVe/q6tpo9ENdZyeFoKAgx+DgYBad6lRVVSVVKpUR3Xv0eGfkyFFDvbzaxmcwvru4pASvLFhQlZdzdkFOQcH3bYFtXGd/7Y/fJAkwVTWle/cgR61DdxDdNAokECDIHI+1NfNiK1eCWRquiPKZ9ZsQDUAP6AhZ46CjWxygzr8rP7/qJn3SbdEsY8QDyA4Kwky8ptJmTIENyVh1Q7QD3XtbCPk6P9ISnMhac630bgt4EIAck8sdhlgzyyckJHRWq3XLTAGLlhaKFiVDND9IBShmRUUN3GSZtqpQKD+nFM8brQ0dnUuivYA98mRaWgpL2WxVTApCBwGKKHAGVLhPpVrHQPZuSjzS76ogGCQk6REaOmr4yFH3xickDA4KCu4CAh9Q6mTAPa9zcHAoq6utL83NzcnbvXv35s2bf035nYL8yPDhw++IiYlL6NsvMiowMMCfEOKr02q9KKUyIggaAlSr1ZrLe/bszlu+7MdfK6oqVhUWFjI/qL38CSTwNiDc2b17hFYrHU1A7yACQiiFN8tLpqBuhKU8EcICiPRMbProNzWltIkQUkdBawgIO/zLKXAK0O2VQb5jQt5Je9DqDZwfBvIdFmXuqR+GlmJr0xPfNLneZrs/DYTQHmJf9g3s+m3TVGxs/ERC6AYrN3wzGZgpCca0Xz5A3IX3kEqV8j9bQmPogw0NTe8RQmYYIv+tOfXY4/WU0n2A9EVLy4Gx7VhF3EJiQOO0Hs1me+gM39Cs1ZJh69cn6/3iFkWhiFsHIM5y6omsJfqpTFAMivT6euHVzZtvLofPraAgGMVE+vfv7zx48GA3f39/Z7lczjfY2tpaNbMO7N69uy4zM5MBCdmEvPz/XFksuMXf39+1W7duLi4uLnIXqQuLndCVVtc27d27tU6r1VbfIGvG/+dn2d91lRJY36OHY5NG4+RGiKNWEGRqteBApVqJlDrwiFcHQqiGYRlpHTQajU7t6owmSKWNpZmZDXZgo6sU9lVUZwh3hMhDpFLtDd/jtFqp2g6pfBWDYaPqjBkzvBsbNQPbbkljg/UYYM5iQaD72vO9M3dTba02QCLR3k0ImQbQ/iAkCJQyfoV8QLeJUsrQCc+21db06dN7Njfr2oIFbuNTNAw/R1dVVbXTlrt5ypQpnRwcHPpQShQARlHwQEzOHUIprScEeylFkkRC0mUy2UVbwYzXPzItLdzwxXMjO2dvyy4BuwTsErBLwC4BuwR+HwnYFYTfR+72t9olYJeAXQJ2CdglcEtLwK4g3NLDY++cXQJ2CdglYJeAXQK/jwTsCsLvI3f7W+0SsEvALgG7BOwSuKUlYFcQbunhsXfOLgG7BOwSsEvALoHfRwJ2BeH3kbv9rXYJ2CVgl4BdAnYJ3NISsCsIt/Tw2Dtnl4BdAnYJ2CVgl8DvIwG7gvD7yN3+VrsE7BKwS8AuAbsEbmkJ2BWEW3p47J2zS8AuAbsE7BKwS+D3kcD/AVNiV/xPXbpVAAAAAElFTkSuQmCC;" vertex="1" parent="1">
                    <mxGeometry width="520" height="153" as="geometry"/>
                </mxCell>
            </root>
        </mxGraphModel>
    </diagram>
</mxfile>